<svg xmlns="http://www.w3.org/2000/svg" viewBox="0 0 50 50"><defs><style>.a{fill:#ffc700;}</style></defs><title>資產 1</title><path class="a" d="M48.94,27.53a3.66,3.66,0,0,0-1,4.38,3.64,3.64,0,0,1-2,4.71A3.36,3.36,0,0,0,43.62,40,3.68,3.68,0,0,1,40,43.62a3.36,3.36,0,0,0-3.36,2.3,3.64,3.64,0,0,1-4.71,2,3.66,3.66,0,0,0-4.38,1,3.56,3.56,0,0,1-5.06,0,3.66,3.66,0,0,0-4.38-1,3.64,3.64,0,0,1-4.71-2A3.36,3.36,0,0,0,10,43.62,3.68,3.68,0,0,1,6.38,40a3.36,3.36,0,0,0-2.3-3.36,3.64,3.64,0,0,1-2-4.71,3.66,3.66,0,0,0-1-4.38,3.56,3.56,0,0,1,0-5.06,3.66,3.66,0,0,0,1-4.38,3.64,3.64,0,0,1,2-4.71A3.36,3.36,0,0,0,6.38,10,3.68,3.68,0,0,1,10,6.38a3.36,3.36,0,0,0,3.36-2.3,3.64,3.64,0,0,1,4.71-2,3.66,3.66,0,0,0,4.38-1,3.56,3.56,0,0,1,5.06,0,3.66,3.66,0,0,0,4.38,1,3.64,3.64,0,0,1,4.71,2A3.36,3.36,0,0,0,40,6.38,3.68,3.68,0,0,1,43.62,10a3.36,3.36,0,0,0,2.3,3.36,3.64,3.64,0,0,1,2,4.71,3.66,3.66,0,0,0,1,4.38A3.56,3.56,0,0,1,48.94,27.53Z"/></svg>