<svg xmlns="http://www.w3.org/2000/svg" viewBox="0 0 24 24"><defs><style>.a{fill:#ffce20;}</style></defs><title>brand-icon-map</title><path class="a" d="M12.43,9.76a.75.75,0,0,1,0,.15,1.24,1.24,0,0,0,0-.48c0,.2,0,.12,0,.36,0,0-.05-.07-.05-.15s0,0,0,.09S12.4,9.9,12.43,9.76Z"/><path class="a" d="M12.65,9.36a.35.35,0,0,0,0,.06l0,0Z"/><path class="a" d="M11.1,8.73l-.1.13C11.09,8.76,11.15,8.76,11.1,8.73Z"/><path class="a" d="M12.66,9.38v0s0,0,0,.06A.32.32,0,0,1,12.66,9.38Z"/><path class="a" d="M13.36,5.93l.07-.11,0,0Z"/><polygon class="a" points="12.51 9.6 12.51 9.59 12.51 9.59 12.51 9.6"/><path class="a" d="M12.53,9.77s0-.13,0-.17a.31.31,0,0,0,0,.11Z"/><polygon class="a" points="10.57 6.85 10.53 6.84 10.56 6.86 10.57 6.85"/><path class="a" d="M13.26,9.21l0,.07h0Z"/><path class="a" d="M14.08,6.69h0S14,6.69,14.08,6.69Z"/><path class="a" d="M14.56,7.54l-.08,0S14.46,7.53,14.56,7.54Z"/><polygon class="a" points="13.48 6.06 13.49 6.05 13.48 6.05 13.48 6.06"/><path class="a" d="M14.49,7.46s0,0,0,0S14.51,7.47,14.49,7.46Z"/><path class="a" d="M12.49,9.37h0v0Z"/><path class="a" d="M12.46,9.46l0,0S12.46,9.41,12.46,9.46Z"/><path class="a" d="M12.81,9.37s-.08-.12-.09-.08v.06C12.71,9.25,12.82,9.48,12.81,9.37Z"/><polygon class="a" points="14.32 7.91 14.22 7.91 14.36 7.96 14.32 7.91"/><path class="a" d="M12.72,1.06c0,.05,0,.1,0,.14a.51.51,0,0,0,.19-.47c-.12.2-.13.12-.25.35-.09,0-.14-.07-.13-.15s-.12-.05-.17.08C12.44,1.18,12.57,1.19,12.72,1.06Z"/><path class="a" d="M13.89.86a.16.16,0,0,0-.09,0h.07Z"/><path class="a" d="M6.14,3.16a.49.49,0,0,1,.17.06C6.2,3.15,6.32,3,6.14,3.16Z"/><path class="a" d="M13.93.89h-.06a.17.17,0,0,0,0,.07A.12.12,0,0,1,13.93.89Z"/><path class="a" d="M16.63,17.9a.45.45,0,0,0-.18,0l0,.05Z"/><path class="a" d="M20.11,9.5c-.2-.11,0-.46-.23-.57a.31.31,0,0,0,.2,0l-.16-.08c0-.08.07-.1.17-.09,0-.26-.3.09-.18-.21,0,0,0,0,.06.06.07-.32-.13-.58-.1-.87.22-.12.09.24.28.12-.09-.42-.43-.79-.47-1.18v.08c-.34,0,.09-.33-.14-.47,0,0,.2,0,.16,0a1.73,1.73,0,0,0-.53-.82h.1a1.91,1.91,0,0,0-.19-.57c-.1,0-.14-.1-.22,0,.16-.73-.75-.69-.71-1.3,0,0,.15.06.12,0l-.33-.25c-.09.12,0,.1-.06.24a.33.33,0,0,1-.29-.09c.19.06.18-.16.18-.28,0,0-.07.06-.1.09.05-.33-.24.19-.31-.13l.06,0c-.1,0-.24,0-.31-.12.09-.16.14,0,.24-.08-.13-.11-.44,0-.44-.19.08,0,.16.06.24.07,0-.26,0-.22-.11-.32h0l-.16-.24,0,.08c-.42.23-.37-.19-.76-.08.37-.1.12-.11.24-.26s-.08-.2,0-.23c-.19.07-.12-.22-.4-.12,0-.06-.12-.07,0-.19-.18,0,0,.11-.07.17-.32.09-.43-.53-.91-.38-.32,0-.45.14-.71.19l-.06,0c0-.1.14-.17.14-.17a.4.4,0,0,0-.41-.11c0-.05,0-.1,0-.18s-.12.19-.26.08A1.13,1.13,0,0,1,13.8.89c-.16,0-.32.13-.47.16,0-.12.11-.15.18-.21-.18,0-.46,0-.52.19l.09.08c-.06,0,0-.15,0-.18s.2.09.19.16l-.11,0c.05.38.42,0,.63.07l-.11.2a7.31,7.31,0,0,0-1.56-.17h0c0-.11,0-.21,0-.31s0,0,.06,0L12.3.73l-.14.05v0a.41.41,0,0,0-.25-.34l-.23.2L11.59.52l.21,0c-.13-.13-.2,0-.28.08a.2.2,0,0,0-.11-.15,1.69,1.69,0,0,0-.21.31c0-.11.08-.25-.1-.29-.09.15.14.25,0,.36C10.94.69,11,.58,10.84.72a.12.12,0,0,1,0-.17c-.1.11-.32.09-.34.26-.16-.14-.39.14-.45-.13A.76.76,0,0,1,9.82,1c.09-.39-.41.11-.48-.24,0,.34-.48.32-.65.61,0,0,0-.09,0-.08-.15,0-.23,0-.35,0,.1.23-.09.38-.11.59-.28-.11-.06-.32-.22-.49.11.17-.18.35,0,.46-.2-.05-.14,0-.32-.13.15.28-.09.12-.08.34-.25,0-.21-.21-.34,0-.14,0,0-.22,0-.22-.19.14.06.25.1.39-.18.22-.21-.06-.36-.1-.11.16-.07.41-.16.5s-.06,0-.07-.08c0,.27-.41.38-.37.71l-.06,0a.92.92,0,0,1,.26.19c-.06.08,0,.24-.15.17,0-.05,0-.09,0-.15v.13c-.23-.08,0-.16-.09-.27-.08.21-.1.5-.24.58-.2-.11.18-.33-.11-.29l.22-.13c-.38-.08.12-.1-.27-.21-.28.22-.16.36-.41.59.06.13.16.09.22.22-.09.49-.67,0-.61.45.08.15.31.32.06.45L5,4.76c-.18.27.23.33-.06.55-.07-.09,0-.26,0-.23-.26.11.06.2,0,.35l-.21-.06a7.52,7.52,0,0,0-.17,1.09c-.06,0-.1-.12-.2,0a4.54,4.54,0,0,1-.46,1.42L4,8s-.09.07-.12,0c-.1.17.11,0,.18.11a.09.09,0,0,1-.17.06A1.93,1.93,0,0,1,4,9.47L4,9.41c0,.29.42.26.27.52l0,0c0,.57.34,1.11.23,1.58.28,0,.07.55.43.45-.06.35-.15.29-.09.74,0,.11.28.06.38.18L5,12.92l.27.09-.18.19.11.1a.13.13,0,0,1,.08-.15.45.45,0,0,1,0,.56l.37.35c-.07,0-.14,0-.21-.06.3.14-.16.14.11.26,0,0,.11,0,.15,0a.68.68,0,0,0,.22.55l-.14,0c.16.33.43.64.64,1,0-.15.2-.25.28-.16l-.15.15c.15,0,0-.15.22-.09.06.14-.15.2-.26.17l.16.11c0,.05-.1,0-.17.06.15,0,0,.38.23.35l0,0a7.27,7.27,0,0,0,.55.73c.16-.09.19,0,.37,0a2.66,2.66,0,0,0,.28.77c.19.12.16,0,.3,0-.12.1.05.33-.13.27a2.87,2.87,0,0,0,.63.63c0-.07,0-.13.09-.14a.14.14,0,0,1,0,.22h0c.48.26.26,1.21.78,1.32h0l.38.22c.09.17-.16,0-.16.16.48.19.38.57.74.75-.09.28,0,.41.27.68a3.38,3.38,0,0,1,.79,1.1l0-.16c.14,0,.1.24.19.38,0-.13-.1-.28,0-.27a4.6,4.6,0,0,1,.46.51c.37-.44.75-.83,1.19-1.27l.33-.34.21-.19a4.59,4.59,0,0,0,.39-.37c.21-.23-.37-.5.09-.64l.1.21c.17-.65.77-1,.95-1.65,0,.06.07.1,0,.15.2,0,.28-.39.18-.46.07-.07.11,0,.2,0s0-.38.19-.35,0,.06,0,.08.24-.31,0-.35c.2-.14.18-.4.37-.5-.1-.2.3-.27.08-.46.24.18.42-.21.39-.4,0,.08.14-.06.21.05.09-.14.13-.3,0-.35.47-.07.09-.67.56-.58a13.27,13.27,0,0,1,.43-1.38c.24.16-.22.45,0,.58.11-.43,0-.76.28-1.09.08-.08.08.11.11.17.09-.43.4-.72.43-1.13a.16.16,0,0,1,0,.11c0-.07.12-.14,0-.19v.08c-.23,0-.23-.43-.32-.49.29.28.24-.3.59.08a.19.19,0,0,0-.12-.16c.05-.06.11-.06.17.05.05-.27-.12-.24,0-.46.06,0,.06.08.12.13a.44.44,0,0,1,0-.49s.09,0,.06.08c.11-.34-.1-.68.14-1,.23.2.14-.09.37,0V10.8l-.14,0c.05-.18-.07-.38,0-.52l.06.16,0-.35-.13.17c-.08-.21-.3-.05-.18-.27,0,.05,0-.17.19-.24h0c-.07-.11-.14-.21-.06-.34S20.06,9.52,20.11,9.5Zm-9.6-3a.42.42,0,0,1,.14.09c-.17-.12.2.06,0,0l-.14-.06c.11,0,.14,0,.11-.09l.12.07c.06,0,0-.16.05-.23a.67.67,0,0,1-.27-.18l.18.11c-.1-.09-.08,0-.19-.14s.21.11.26.16l0-.07.14.11c-.1-.09.21.07,0-.08l.06,0c0-.06,0-.13,0-.18-.13-.13-.08-.12-.18-.23.08,0,.23.06.26,0S11,5.68,11,5.59c.11.12.15.07.2.18,0-.06.05-.08.05-.25s-.07-.06-.1-.11.08,0,.12.1h0c0-.28.43.3.35,0h0l0-.19s0,.12.08.21c0-.3.14,0,.17-.2.15.46.19-.08.3.23V5.44c0-.12,0,.06,0,.09a1.16,1.16,0,0,1,0-.17c.17-.15.35.18.44.31s.2-.56.2-.27l-.09.19c.2-.2.22.09.43,0,0,0-.07.09-.08.08-.05.15.08.06.15,0s-.06.09-.08.15.16-.13.08,0,0,0,0,0,.05.07.14-.09c0,.1.13,0,.09.11.15-.13,0,.12.19-.07-.2.2-.11.22,0,.15-.08,0-.06.08-.15.15s.08,0,.19-.09c-.23.26.31,0,0,.24a.8.8,0,0,1,.44.09c-.26.13-.08-.09-.34.06.14,0,.39,0,.37.09s-.13,0-.17,0c.14,0,0,.17.21.21h-.08s0,0,.09,0h0a1.35,1.35,0,0,1,.5,0c-.37.06-.06.11-.54.17a.71.71,0,0,0,.17,0,.25.25,0,0,1-.17,0c.09,0,.22,0,.22.06h-.16c.13,0,.25,0,.21.07s-.09,0-.09,0,.34.12.23.23c-.28,0-.09,0-.33,0l.07,0h.12s.16.08.08.12l-.09,0,0,.09.09,0c.12,0,.3,0,.23.07s0,0-.15.06h0c.08,0,.15.07.09.1s-.26,0-.32,0c.2,0,.05.11.25.18l-.2,0,.16,0a.42.42,0,0,1-.18,0s.3,0,.15.09l0,0c-.09.06.06.18,0,.22s0-.07-.24-.11c0,.09.21.29.11.36h0c.3.16-.18,0-.06.11a.55.55,0,0,0-.13-.08c-.07,0,0,.15,0,.3l-.07-.06c-.08,0-.09.06-.15.07s0,.08.15.14c-.46-.21,0,.38-.36.18,0,0,0-.08,0-.07V9a1.1,1.1,0,0,0,.16.12c.05.08.08.15.06.17s-.16-.18-.23-.23l.09.11c-.21-.17.19.23,0,.15l0-.07c0,.05,0,.15,0,.15s0-.08-.11-.19.13.31,0,.2,0-.07,0-.12-.12-.09-.17-.11h0l-.11,0,.05,0c.19.41,0,.13,0,.42-.07-.28-.07-.15-.16-.32a.38.38,0,0,1-.11-.14c0,.16-.1-.09,0,.14,0-.06,0,0-.1-.14,0,.06.06.1.09.17,0,.23-.23-.19-.2.12,0,.13,0,.3,0,.43h0a.65.65,0,0,1,0-.19c-.06-.08-.08-.05-.11,0a.41.41,0,0,0-.05-.17s0,.23,0,.14l0-.25a2.1,2.1,0,0,1-.06.24.64.64,0,0,1,0-.24.73.73,0,0,0-.07.17c0-.13.06.05.07.11l0,.05c.08.36.11-.08.16-.07l0,.22a2.4,2.4,0,0,1-.46,0h0c0-.11,0-.22,0-.32s0,.06,0,0l0-.21,0,.06s0,0,0,0a1.28,1.28,0,0,0,0-.36l-.06.18V9.22h0c0-.13,0,0,0,.07a.62.62,0,0,0,0-.16l-.08.28a1.2,1.2,0,0,0,0-.3c0,.13,0,.27-.06.35,0-.14,0-.25,0-.14a.46.46,0,0,1,0-.16c0,.09-.07,0-.11.19,0-.17-.1,0,0-.25a.78.78,0,0,1-.12.21c.13-.32-.08,0,0-.39-.12.28-.14.09-.25.23l0-.05s0-.11,0-.18a1.31,1.31,0,0,1-.27.39,4.12,4.12,0,0,1,.25-.47c-.09.18-.15.15-.22.31a1.49,1.49,0,0,1,.1-.26c-.15.27,0,0-.16.18,0-.15.14-.25.06-.2a.4.4,0,0,1,.12-.16s-.14.18-.22.29.07-.16.13-.27-.21.2-.23.18a.55.55,0,0,1,.07-.09c-.15.13-.09-.05-.28.1l0-.05a3,3,0,0,1-.21.25s-.13.08,0,0L10.84,9l-.06,0c.14-.18.08,0,.19-.16-.08,0-.25.11-.24,0s.12,0,.22-.16l0,.1c.21-.28,0,0,.23-.26,0-.08-.13,0-.12-.06-.1.07-.13.13-.23.2s.36-.41.1-.28-.35.24-.27.1l.21-.13c0-.06-.31.18-.21,0s.1,0,.11,0-.13.05-.15,0l.18-.12c-.06,0-.24,0-.31-.09a.51.51,0,0,0,.18-.09c-.15,0-.06-.2,0-.32l-.2,0a.24.24,0,0,1,.12,0c.06,0-.12,0-.19,0s.1-.06.15-.06c-.16,0-.38-.11-.18-.21h0c.07-.06-.39,0-.22-.09h0c.07-.12-.11-.27.19-.35-.27,0,.12-.1-.25-.15.2,0,.26,0,.4-.08s-.23-.08-.26-.12l.2,0-.2-.09.24,0,0,0a.29.29,0,0,1-.15,0c-.08-.07.16-.07.26,0ZM12.75,9.9V9.72a.43.43,0,0,1,0,.17Zm.33-.1a.59.59,0,0,1,0-.14l.07.12Zm1-.67A.34.34,0,0,1,14,9l.11.1Zm-3.86-.87s.07,0,.11-.09a.09.09,0,0,0,0,.05Zm.15,0h0l0,0Zm7.89-4-.12.09-.08-.1A.18.18,0,0,1,18.3,4.27ZM15,1.63v.16l-.15-.06A.34.34,0,0,1,15,1.63Zm-1.06-.37a.25.25,0,0,1,0,.17l-.18,0ZM4.59,6.38l0,.1h0Zm-.14.53a1.89,1.89,0,0,0,.06-.18c.06,0,.12,0,.1.07S4.52,6.86,4.45,6.91Z"/><polygon class="a" points="4.94 12.94 4.98 12.92 4.93 12.9 4.94 12.94"/><path class="a" d="M16.43,2a.34.34,0,0,0-.06.06h0Z"/><path class="a" d="M19,13.45v0C19,13.56,19,13.51,19,13.45Z"/><path class="a" d="M19.86,9.8a.42.42,0,0,1,.07.13C20,9.87,20,9.81,19.86,9.8Z"/><polygon class="a" points="17.13 17.13 17.13 17.12 17.12 17.14 17.13 17.13"/><path class="a" d="M19.93,9.93c0,.06-.06.11,0,.17A.16.16,0,0,0,19.93,9.93Z"/><path class="a" d="M13.13.7s0,0,0,0h.05Z"/><path class="a" d="M13,.78l.1,0S13,.73,13,.78Z"/><path class="a" d="M14.53,1.08c-.07,0-.15-.18-.27-.17l0,0C14.32.87,14.43,1.17,14.53,1.08Z"/><polygon class="a" points="20.06 8.15 20.14 8.03 19.98 8 20.06 8.15"/></svg>