<svg xmlns="http://www.w3.org/2000/svg" viewBox="0 0 34.75 35.99"><defs><style>.a{fill:#ffc700;}.b{fill:#ffce20;}</style></defs><title>資產 1</title><path class="a" d="M8.12.85C4,.84.59,5.72.59,10a7.65,7.65,0,0,0,5.75,7.43l0,16.55A1.15,1.15,0,0,0,7.51,35.1H8.79a1.15,1.15,0,0,0,1.15-1.17V17.38A7.61,7.61,0,0,0,15.66,10C15.65,5.74,12.27.85,8.12.85Z"/><path class="b" d="M8.12.51c0,.05,0,.14.1.13l.1-.16Z"/><path class="b" d="M8.94.89c.15-.05.35-.15.28-.32C9,.7,9,.61,8.84.78c-.13,0-.21-.07-.19-.13S8.46.6,8.38.7A.54.54,0,0,0,9,.78S9,.86,8.94.89Z"/><path class="b" d="M15.41,9.77l0-.08A.19.19,0,0,0,15.41,9.77Z"/><path class="b" d="M12.35,15.89s.05-.06,0-.07S12.33,15.89,12.35,15.89Z"/><path class="b" d="M11.24,16.36l.07,0S11.25,16.34,11.24,16.36Z"/><path class="b" d="M15.41,9.77l0,.19C15.43,10,15.41,9.86,15.41,9.77Z"/><path class="b" d="M10.68,1h-.12l.1,0Z"/><path class="b" d="M14.65,6.72l0-.06-.08,0Z"/><path class="b" d="M13.51,4.59s.16,0,.22,0a.19.19,0,0,1-.15,0Z"/><path class="b" d="M10.93,1.78h0Z"/><path class="b" d="M15.1,8.38l0,0A.09.09,0,0,0,15.1,8.38Z"/><path class="b" d="M5,1A0,0,0,0,0,5,1S5.05,1,5,1Z"/><path class="b" d="M8.12.88h0a.25.25,0,0,0,0,.08Z"/><path class="b" d="M9.24,18.05h0C9.23,18,9.23,18,9.24,18.05Z"/><path class="b" d="M6.94,33.54c-.13.24-.17-.39-.3,0C6.69,33.48,6.85,33.84,6.94,33.54Z"/><path class="b" d="M10.73,1.06l.1.05Z"/><path class="b" d="M6.64,33.51h0v0Z"/><path class="b" d="M9.33,23.37l.06-.05S9.36,23.33,9.33,23.37Z"/><path class="b" d="M9.53,19.4l0,.1S9.52,19.43,9.53,19.4Z"/><path class="b" d="M9.53,25.43a.21.21,0,0,0,0,.14l0,0A.12.12,0,0,1,9.53,25.43Z"/><polygon class="b" points="9.53 27.57 9.56 27.53 9.55 27.46 9.53 27.57"/><path class="b" d="M.73,6.3a.23.23,0,0,1,.15,0C.78,6.24.87,5.92.73,6.3Z"/><path class="b" d="M10.65,1.09a.07.07,0,0,1,.08,0l-.07,0A0,0,0,0,0,10.65,1.09Z"/><path class="b" d="M10.64,25.51l0,.34A3.11,3.11,0,0,0,10.64,25.51Z"/><path class="b" d="M5.77,19.11l0-.07A.08.08,0,0,0,5.77,19.11Z"/><path class="b" d="M10.64,26.86a.62.62,0,0,0-.1.2l0,0Z"/><path class="b" d="M.88,6.25Z"/><path class="b" d="M1.69,4c-.2.29.06.24.11.36-.16.37-.21.09-.37.16-.09.24,0,.49-.13.66,0,0-.06,0-.07,0,0,.3-.35.72-.29,1.09l-.06,0a.35.35,0,0,1,.26,0c-.06.14,0,.29-.13.3,0-.08,0-.11,0-.16V6.6c-.22.08,0-.21-.1-.26a5.1,5.1,0,0,1-.15.9C.55,7.24.84,6.7.6,7l.18-.33c-.34.18.08-.21-.27,0-.19.45-.1.54-.26,1,.07.13.14,0,.21.12,0,.7-.55.45-.39,1,.1.15.28.22.15.57L0,9.13c0,.48.26.29.11.78C.07,9.82.1,9.53.07,9.6c-.16.33.09.24.1.48L0,10.14a7.33,7.33,0,0,0,.38,1.59c-.06,0-.13-.1-.15,0,.23.68.4,1.47.66,2.14l.25.16s0,.13,0,.09c.09.26.08,0,.2,0s0,.22-.05.16a8.09,8.09,0,0,1,1.23,1.38l-.1,0c.24.32.52.1.7.42L3,16.1c.59.6,1.45.95,2,1.41.1-.08.28,0,.46.1s.21.09.33,0c.08.1.07.14.06.19l-.13.2c0,.09.19.23.22.42H5.73l.17.29-.19.15,0,.2c0-.08.07-.17.12-.16a.93.93,0,0,1-.19.76l.13.72c-.06,0-.08-.14-.12-.23.16.39-.16.07,0,.42,0,0,.09,0,.12,0a1.86,1.86,0,0,0,0,.87l-.11-.05c0,.54,0,1.13,0,1.74.05-.22.24-.17.25,0l-.16.07c.1.11.06-.19.19.05s-.19.15-.24,0l.06.27s-.08,0-.14-.06c.1.11-.16.47,0,.63l-.05,0c0,.6.06.88.07,1.37.14,0,.11.2.22.35a8.25,8.25,0,0,0-.14,1.2c.07.3.12.09.2.22-.13,0-.11.46-.21.24a10.42,10.42,0,0,0,.13,1.32c.06-.07.08-.15.12-.11s0,.28-.11.26v0c.19.74-.38,1.71-.11,2.3v0l.14.61c0,.28-.1-.17-.18,0,.22.66,0,1.05.11,1.59a.78.78,0,0,0-.15.42,1.49,1.49,0,0,0,.19.84,2.47,2.47,0,0,0,1.32,1.06l0-.09c.23,0,.31.08.42.11s-.21-.09-.07-.13a7.53,7.53,0,0,1,.95,0c.18,0,.26,0,.55,0a1.87,1.87,0,0,0,1.64-1.38,2.5,2.5,0,0,0,.06-.38l0-.24,0-.49c0-.46-.46-.26-.25-.85l.17.17c-.2-.94,0-1.93-.17-2.85,0,0,.09.06.09.15.12-.2,0-.73-.09-.73s.08,0,.13-.12-.15-.49,0-.59,0,.05.05.09c-.06-.13,0-.6-.13-.48.07-.34-.06-.66,0-.93-.15-.18.08-.6-.14-.65.22,0,.18-.61.07-.83.07.07.07-.19.17-.1,0-.25-.05-.48-.16-.44.27-.46-.22-.92.13-1.18-.13-.75-.21-1.43-.26-2.1.22,0,0,.74.26.71a6.12,6.12,0,0,1-.24-1.63c0-.16.1.1.14.15-.09-.63,0-1.22-.1-1.79,0,0,0,.07.06.12,0-.11,0-.25-.07-.24l0,.11c-.14.17-.31-.44-.38-.46.29.18.07-.56.44-.26,0-.07-.07-.17-.14-.15s.06-.14.14,0c-.05-.41-.16-.26-.16-.46,0,0,.07.06.13.09s-.27-.32,0-.31c0,0,.05.06,0,.07a.51.51,0,0,0,.16-.09l.28-.19a2.86,2.86,0,0,1,.7-.35c-.06.27.21,0,.33.12l.26-.22H12c.25-.14.38-.38.61-.48l-.13.19.42-.34-.29.12c.17-.25-.16-.17.16-.35,0,.06.21-.17.39-.19h0a.9.9,0,0,1,.3-.39c.08,0,.12.18.17.18,0-.2.42-.51.4-.75a.14.14,0,0,0,.1.13l0-.17c.12-.07.14-.08.19,0,.25-.3-.26,0,.09-.36,0,0,0,0,0,.11a7.44,7.44,0,0,0,.66-1.14c.23,0-.12.36.08.3A18.51,18.51,0,0,0,15.66,12l-.05.1c-.22-.14.22-.4.17-.72,0,.08.12.12.1.1a4,4,0,0,0,0-1.46l.06.08a5.38,5.38,0,0,0,0-.9c-.07-.07-.08-.22-.17-.12.29-.86-.45-1.44-.37-2.18,0,.08.12.17.1.11a5.52,5.52,0,0,0-.26-.55c-.09.09,0,.1-.07.25a.61.61,0,0,1-.26-.32c.17.22.17-.07.19-.2,0,0-.08,0-.11,0,.07-.37-.22,0-.28-.39h.07c-.1-.13-.24-.22-.3-.38.09-.12.13.12.24.08-.12-.21-.43-.3-.44-.55a2,2,0,0,1,.24.27.62.62,0,0,0-.09-.45h0l-.15-.39,0,.12c-.44-.08-.41-.48-.82-.67.4.18.14,0,.27-.09s-.09-.27,0-.26c-.23-.07-.14-.31-.46-.41,0,0-.13-.16,0-.21-.21-.16,0,.1-.08.13-.39-.16-.51-.81-1.11-1-.43-.23-.62-.11-1-.29-.08-.15.19-.09.19-.09a.93.93,0,0,0-.57-.31c.06,0,0-.07,0-.15s-.18.09-.38-.06A.72.72,0,0,1,10.56,1c-.22,0-.47,0-.69-.06,0-.1.17-.08.27-.1C9.88.77,9.47.7,9.36.83l.15.08c-.09,0,0-.12.05-.13.25-.06.29.14.29.18l-.16,0c.06.34.62.15.91.32l-.21.13h.36c0,.08,0,.2-.12.16.15.19.21,0,.32.21s0,0,0,0a1.66,1.66,0,0,1,.21.06c-.06,0,0,.14-.14,0,.25.31.61.2.63.42h0c.46.28.13-.09.56,0l0,.46.14-.08s.1.13.05.16c.22.07,0-.08.17-.06.1.28.58.48.43.7.15,0-.1-.26.14-.09-.14.23.25.22.32.49-.15,0-.25-.2-.19.06.28,0,.24.41.39.55.17-.1.31.33.54.59a8.53,8.53,0,0,0,.29.93h0c.21,0,.29.29.42.5-.11,0-.16,0-.26-.09l.09.2a.41.41,0,0,1,.2.21h-.15c.1.27.35.51.36.91.12,0,.27-.4.45,0-.07,0-.18.07-.23,0a.27.27,0,0,1,.07.18l-.15-.13c0,.18.12.07.14.21s-.05.11-.13.11,0-.13,0-.17a.71.71,0,0,1-.05.43.11.11,0,0,1,.16.08c.05.3-.1.13-.13.3s0,.26.18.24-.05.11-.08.15,0,.71.2.53v0h0c.18.52-.1,1.05-.11,1.55h-.05c0,.3-.09.66-.06.89s-.15.18-.19.12a.78.78,0,0,1-.19.55c0-.24-.1,0,0-.24a1,1,0,0,0-.25.63c-.07-.15-.24.12-.27.26l.17-.14a1.37,1.37,0,0,1-.2.38l-.11-.15c-.45.39-.3,1.1-.86,1.22,0,.2.27-.19.28,0-.19.2-.56.24-.62.29-.32.19-.09.42-.43.62.08,0,.22.11,0,.34s-.43,0-.32-.14.09,0,.1,0,.14-.16,0-.15v.07c-.15,0-.45.25-.43.12-.13.16,0,.13.13.07-.34.12-.46.29-.8.41.06,0,.14,0,.09.06-.51.17-.16.21-.48.38-.23,0,0-.22-.32,0-.23,0-.1-.13,0-.21a.59.59,0,0,1-.2.12,2.2,2.2,0,0,1-.37.07c-.24,0-.5.06-.68.1l.28-.13-.25.1-.11,0s0,.08,0,.12l.06-.06a.32.32,0,0,1,.13,0c-.13,0-.07.12-.1.16s0,.09,0,.08c.07.22.19,0,.3.36a1.72,1.72,0,0,0,0,.4c0,.14,0,.2-.08.23,0-.21,0-.25-.06-.21s-.11.09-.13-.25a1.33,1.33,0,0,1,0,.4s0,0,0,0c-.14.43.18.19.18.64-.09-.06-.17.1-.15.18,0-.18.14-.09.21.07s0,.31,0,.46l0-.17c.09.06.08.2.1.4-.07,0,0-.18-.07-.11.15.22-.17.5-.06.81-.06.14-.17,0-.21.14.12.35-.12.37,0,.74.12-.11.09-.13.2.13l-.08-.6.17.39c0-.18-.07-.38-.05-.49.1.18.07.16.16.08-.17.24.11.48,0,.77h-.3c-.13.43.16.76.08,1.32l0-.18c.12.07,0,.34.07.52-.1,0-.14.1-.2.18s0,.4.19.45L9.45,24c0,.45.28.51.25.94-.11-.13-.18.07-.25-.22,0,.15,0,.28.05.28s.13.4,0,.53.14.08.14.24,0,0,0,0,.06.25.17.11c-.31.45,0,1.24-.24,1.63a8.52,8.52,0,0,1,.07,1s0,0,0-.06c-.1.4.28.25.18.7-.16.22-.09-.24-.15-.1-.32.06,0,.54-.14.84l0-.07c-.11.23.12.56.1.94,0,0,0,0-.05,0a3.23,3.23,0,0,1,.27,1.1c-.13-.11-.07-.16-.2-.09,0,.16.21-.05.24.27-.07.11-.13.34-.26.38v-.31c-.18.16,0,.4,0,.56l-.07,0c0,.46.22.47.2,1l.06,0c.19.27-.1.26,0,.49l-.2,0a.77.77,0,0,1-.24.71,1.27,1.27,0,0,0,.13-.63c0,.11-.17.32-.18.43,0-.05,0-.12.1-.14a.49.49,0,0,1-.49.48c.09-.37-.93-.09-1.18-.39-.55.18-.73-.28-.75-.62-.14.08-.14.06-.15,0s0-.19-.16-.17c0-.17,0-.23,0-.25L6.82,33c.09-.12.06.16.13.15,0-.38.13-.16.21-.41-.11.05-.15-.13-.11-.35l-.14.31c-.17-.53.25-.46.09-1l.1.17c-.06-.28,0-1-.25-1.28,0,0,.12-.11.14,0,0-.65-.26-1.45-.11-2L7,28.7c0-.13-.14-.22-.07-.37,0,0,.08.05.08,0a.91.91,0,0,1-.09-.48L7,28c.09-.64-.21-1-.26-1.51.22,0,.29-.5.33-.75h0a11.93,11.93,0,0,0-.27-1.94A13,13,0,0,0,7,21.66c0,.11-.17,0-.2-.13s-.15-.45,0-.42v.06c.2-.13.14-.46.15-.71l-.26-.05c.38-.67-.15-1.76.2-2.13A1.11,1.11,0,0,1,6.9,18a3.06,3.06,0,0,0-.07-.4l.15,0c0-.39.14-.82-.29-.82l-.48-.14-.28-.08-.16,0,.13-.06c-.26-.11-.49.26-.75.14l0-.22c-.48-.21-.79-.65-1.3-.79a.11.11,0,0,1,.14,0c-.19-.14-.59-.69-.72-.43.12-.14-.36-.38-.6-.55l.14-.06a.75.75,0,0,1-.57-.28c0-.08.05-.12.08,0-.09-.25-.23-.09-.34-.4l.14,0c-.13-.23-.16-.19-.33-.27s-.2-.48-.11-.56a.31.31,0,0,1-.26-.26s.08,0,.11,0c-.09-.44-.39-.57-.35-.91a.13.13,0,0,0,.07-.08c.1.34.17.62.16.6s.06-.32.29-.16c-.15-.18-.48-.5-.47-.79,0,0,0,0,0,0l0,0a.38.38,0,0,0-.06-.16,1.76,1.76,0,0,0,0-.23c.1-.05,0-.33,0-.47-.14,0-.13-.16-.23,0,0,0,0,0,0,.12a.11.11,0,0,0,0,.06h0l.05.35a.36.36,0,0,1-.1-.38,1.65,1.65,0,0,1-.25-.18c.19-.22.27-.6.4-.65,0-.21,0-.47-.06-.71A1.1,1.1,0,0,0,1,8.58c0-.14.1-.14.14-.17s0,.16,0,.2c0-.26.13-.73,0-.84.16-.29.12.22.2-.21l0,.07c.53-.71,0-1.52.8-2.22-.05,0-.07.07-.11.07.65-.88,1.12-2,2.11-2.58.27-.15.22-.26.31-.45l.14.08a3.49,3.49,0,0,1,.15-.34,1,1,0,0,1,.59-.25A.89.89,0,0,0,6,1.63l-.11-.06c.19-.07.59-.28.6-.17s0-.12.12-.1l0,.08c.14-.1.3-.16.45-.25.4,0,0,.29.54.25.2,0,.57-.27.5-.32S7.89,1,7.88,1l.2-.06c0-.23.21-.48-.34-.61L7.37.45,7.23.35l.32,0a.33.33,0,0,0-.41.1A.26.26,0,0,0,7,.33l-.31.3C6.58.55,6.77.42,6.51.42s.21.16,0,.29c-.19,0-.17-.14-.34,0,0,0,0-.1,0-.15-.15.13-.46.19-.5.35-.22,0-.54.31-.63.1a1.74,1.74,0,0,1-.33.42c.12-.4-.54.33-.64.06,0,.34-.6.6-.78,1,0,0,0-.09,0-.1a1.59,1.59,0,0,1-.41.21c.11.15-.08.45-.11.67C2.49,3.37,2.74,3,2.55,3c.13.09-.19.47,0,.48-.23.09-.15.11-.35.1.17.17-.08.18-.06.41-.28.18-.24-.06-.37.26C1.6,4.29,1.68,4,1.69,4ZM.42,11.72h0l0-.15Zm.18.65-.08-.28s.09,0,.11,0S.61,12.26.6,12.37Zm.66-1.5c0,.09,0,.12,0,.14l0-.16h0A.09.09,0,0,1,1.26,10.87Z"/><path class="b" d="M1.06,10.72s0,0,0,0l0,.06.05,0Z"/><path class="b" d="M15.43,9.68h0l0,0Z"/><polygon class="b" points="5.7 18.4 5.73 18.4 5.7 18.35 5.7 18.4"/><path class="b" d="M15.12,6.17a.35.35,0,0,0,0-.06S15.12,6.14,15.12,6.17Z"/><path class="b" d="M14.45,4.77l-.08-.22A1.32,1.32,0,0,0,14.45,4.77Z"/><path class="b" d="M13.84,3.73l-.07,0h0Z"/><path class="b" d="M10.47,19.32v.05C10.5,19.47,10.49,19.4,10.47,19.32Z"/><path class="b" d="M13.19,15.9a.65.65,0,0,1-.09.16C13.18,16,13.24,16,13.19,15.9Z"/><polygon class="b" points="10.64 25.48 10.64 25.48 10.64 25.51 10.64 25.48"/><path class="b" d="M12.89,16.23a.45.45,0,0,0,.21-.17A.87.87,0,0,0,12.89,16.23Z"/><path class="b" d="M9.64.62,9.58.6s0,0,0,0Z"/><path class="b" d="M9.57.62H9.5A.08.08,0,0,0,9.57.62Z"/><path class="b" d="M9.36.63H9.5A.17.17,0,0,0,9.36.63Z"/><path class="b" d="M11.13,1.3l0,0A.05.05,0,0,0,11.13,1.3Z"/><path class="b" d="M11.56,1.55c-.1-.07-.19-.26-.35-.31l0,0C11.29,1.23,11.42,1.56,11.56,1.55Z"/><path class="b" d="M12.67,3.29,12.42,3c0,.08,0,.19-.11.08C12.54,3.53,12.33,2.93,12.67,3.29Z"/><path class="b" d="M13.36,4.25c-.14-.15-.06,0-.1.06C13.38,4.39,13.41,4.41,13.36,4.25Z"/><path class="b" d="M15,12.28l-.11-.06C14.82,12.37,14.9,12.24,15,12.28Z"/><polygon class="b" points="14.87 14.08 15.02 13.97 14.96 13.85 14.87 14.08"/><path class="b" d="M13.57,14.37l0-.06a1.55,1.55,0,0,1-.12.22Z"/><path class="b" d="M9.41,27.19l.16-.05C9.54,27,9.36,27,9.41,27.19Z"/><path class="b" d="M9.58,33.57a.32.32,0,0,0-.06.36C9.53,33.78,9.6,33.64,9.58,33.57Z"/><polygon class="b" points="6.96 20.09 7.02 20.22 6.97 19.98 6.96 20.09"/><path class="a" d="M26.5.65l-.42,0a.37.37,0,0,0-.39.33L22,34.6a.57.57,0,0,0,.52.65l1.45.13a.58.58,0,0,0,.62-.55L26.83,1A.37.37,0,0,0,26.5.65Z"/><path class="b" d="M26.53.32s0,.12.13.15a.66.66,0,0,1,.19-.09A.59.59,0,0,0,26.53.32Z"/><path class="b" d="M26.85,1.19c.07.13.2.28.36.21-.15-.14-.09-.16-.27-.3,0-.11,0-.25.1-.23S27,.59,26.81.61c.08.22.06.41.15.59S26.88,1.2,26.85,1.19Z"/><path class="b" d="M25.92,11.44l0-.06A.11.11,0,0,0,25.92,11.44Z"/><path class="b" d="M25.41,17.8c0-.05,0-.07,0-.07S25.4,17.81,25.41,17.8Z"/><path class="b" d="M25.16,18.87v-.06S25.15,18.86,25.16,18.87Z"/><path class="b" d="M25.92,11.44l-.07.17C25.91,11.62,25.9,11.52,25.92,11.44Z"/><path class="b" d="M27.15,2.63a.18.18,0,0,0,0-.1l0,.09Z"/><path class="b" d="M26,8.63V8.58l-.06-.05Z"/><path class="b" d="M26.08,6.47s.13.08.19.1a.19.19,0,0,1-.09-.11A.19.19,0,0,0,26.08,6.47Z"/><path class="b" d="M26.55,3.07v0Z"/><path class="b" d="M25.84,10.17h0Z"/><path class="b" d="M24.87,2.37h0S24.87,2.36,24.87,2.37Z"/><polygon class="b" points="26.5 0.69 26.46 0.69 26.45 0.77 26.5 0.69"/><path class="b" d="M24.85,20.85h0C24.84,20.79,24.84,20.82,24.85,20.85Z"/><path class="b" d="M22.71,33.65c-.14.19-.12-.35-.29-.06C22.48,33.57,22.61,33.9,22.71,33.65Z"/><path class="b" d="M27.13,2.68v0Z"/><path class="b" d="M22.42,33.59h0l0,0Z"/><path class="b" d="M24.63,25.44l.07,0S24.67,25.41,24.63,25.44Z"/><path class="b" d="M25.06,22l0,.08A.41.41,0,0,0,25.06,22Z"/><path class="b" d="M24.72,27.22c0,.05,0,.06,0,.13v0A.11.11,0,0,1,24.72,27.22Z"/><polygon class="b" points="24.6 29.07 24.63 29.04 24.62 28.98 24.6 29.07"/><path class="b" d="M24.33,8l.13-.07C24.36,7.91,24.36,7.64,24.33,8Z"/><path class="b" d="M27.07,2.63a.08.08,0,0,1,.06.05V2.62S27.09,2.61,27.07,2.63Z"/><path class="b" d="M25.82,27.37l0,.29A2.26,2.26,0,0,0,25.82,27.37Z"/><path class="b" d="M22.91,21.15v-.07A.08.08,0,0,0,22.91,21.15Z"/><path class="b" d="M25.74,28.53a.76.76,0,0,0-.11.16l0,0Z"/><path class="b" d="M24.47,7.89h0Z"/><path class="b" d="M24.34,5.93c0,.28.17.15.27.22,0,.34-.15.14-.26.25s.18.39.15.54,0,0-.08,0c.13.23-.06.65.1.92l-.05,0a.54.54,0,0,1,.25,0c0,.13.09.24,0,.28s0-.09-.07-.13l0,.14c-.19.1,0-.19-.17-.2a2.09,2.09,0,0,1,.07.76c-.18,0,0-.46-.19-.22l.1-.29c-.29.2,0-.18-.27,0-.09.39,0,.45-.05.84.08.1.14,0,.22.09.11.58-.47.4-.29.84.1.11.31.18.16.46l-.18-.12c-.06.38.25.25.08.64-.07-.08,0-.31-.06-.25-.18.24.09.19.07.39l-.18,0c0,.41.06.87,0,1.33-.05,0-.09-.11-.15,0a5.82,5.82,0,0,1-.32,1.76l.12.23s-.07.08-.09,0c-.08.21.09,0,.13.13s-.1.16-.13.07a2.73,2.73,0,0,1-.05,1.5l0-.08c-.09.3.26.38.09.65l0,0a7.13,7.13,0,0,1-.36,1.92c.2.12-.16.66.13.73a2.63,2.63,0,0,0-.39.79c0,.14.16.24.17.42H23l.13.26-.2.11,0,.17c0-.07.08-.13.12-.12,0,.27-.17.63-.25.63l.06.63c-.06,0-.07-.12-.1-.21.12.35-.17,0-.06.36,0,0,.09,0,.12.05a1.36,1.36,0,0,0-.14.74l-.1-.06c-.07.46,0,1-.11,1.5.07-.18.25-.12.25,0l-.17,0c.09.11.08-.15.18.06s-.2.11-.24,0l0,.25c-.05,0-.07-.05-.13-.07s-.21.38-.05.54h-.05c-.05.52,0,.76-.06,1.18.14,0,.09.19.19.32a5.62,5.62,0,0,0-.26,1c0,.27.11.09.18.21-.13,0-.15.38-.22.18a6.27,6.27,0,0,0,0,1.15c.06-.05.09-.12.13-.08s-.08.23-.14.21v0c.12.66-.53,1.43-.32,2v0l.08.54c0,.24-.08-.15-.18,0,.15.59-.13.89,0,1.37a1.1,1.1,0,0,0-.24.83,1.65,1.65,0,0,0,.55,1.49v-.09c.23,0,.2.16.36.23,0-.07-.2-.15-.05-.15.54.08.74.05,1,.1l.41.06a2.25,2.25,0,0,0,.69,0,1.26,1.26,0,0,0,1-1l.15-1c.05-.4-.45-.26-.2-.75l.15.15c-.14-.82.12-1.66,0-2.46,0,0,.09,0,.08.13.13-.16.05-.62-.05-.63s.09,0,.14-.1-.12-.43,0-.51,0,.05.05.08.05-.51-.1-.41c.09-.3,0-.58.07-.81-.14-.16.11-.5-.1-.57.22,0,.21-.51.12-.7.06.06.08-.16.17-.08,0-.22,0-.42-.14-.39.3-.38-.16-.81.2-1-.08-.65-.12-1.24-.14-1.82.22,0,0,.64.22.63a4.6,4.6,0,0,1-.14-1.42c0-.14.09.09.13.14-.06-.55.09-1,0-1.55,0,0,0,.06.06.11,0-.1.05-.22-.06-.22l0,.1c-.15.14-.28-.4-.36-.42.28.18.11-.48.46-.2,0-.06-.06-.14-.13-.13s.07-.12.14,0c0-.35-.15-.23-.12-.54,0,0,.06.07.12.1a.74.74,0,0,1-.12-.58s.07,0,.07.06c0-.45-.21-.78-.09-1.27.21.16.09-.16.27-.17l0-.27-.1.1c0-.24-.11-.45,0-.65l.06.18v-.44l-.09.25c-.08-.25-.24,0-.16-.3,0,.06,0-.23.13-.35h0a.51.51,0,0,1-.05-.41c.06,0,.21,0,.25,0-.15-.13,0-.55-.17-.7a.18.18,0,0,0,.16,0l-.12-.1c0-.11.07-.12.14-.1,0-.32-.24.09-.11-.29,0,0,0,0,0,.08.08-.38,0-.75.05-1.1.2-.09,0,.31.19.2a10.3,10.3,0,0,1-.07-1.56l0,.09c-.26-.09.15-.36,0-.62,0,.06.14.09.11.07a5,5,0,0,0-.07-1.22l.06.07a5.45,5.45,0,0,0,.12-.74c-.07-.06-.05-.19-.15-.12.43-.64-.13-1.28.24-1.85,0,.07,0,.17.05.12l0-.51c-.12,0-.08.06-.17.16a.46.46,0,0,1-.1-.34c.06.23.18,0,.25-.08s-.07,0-.11,0c.23-.25-.22-.06-.06-.41l.06,0a1,1,0,0,1-.07-.41c.14-.05,0,.14.16.16,0-.2-.23-.42-.08-.59,0,.09,0,.21.05.3a.5.5,0,0,0,.17-.36h0l.09-.34,0,.09c-.33-.28,0-.53-.23-.88.19.34.12.06.27.09s.1-.21.14-.17c-.11-.17.11-.26-.05-.5.05,0,0-.18.14-.13,0-.22-.09,0-.15,0-.15-.34.25-.75.05-1.23s-.22-.5-.28-.88c.08-.12.17.12.17.12a.87.87,0,0,0,0-.55s.08,0,.13,0-.17-.11-.08-.31a.86.86,0,0,1,.18.16c0-.18-.11-.36-.14-.56.09,0,.12.13.17.2,0-.22,0-.56-.17-.63l-.06.13c0-.07.12,0,.14,0S27,2,26.94,2l0-.13c-.3.12,0,.54,0,.81l-.2-.13.16.29c-.06.05-.18.09-.2,0-.12.19.06.18-.06.33s0,0,0,0l.05.2s-.15,0-.11-.09c-.14.33.12.55,0,.67v0c0,.47.15.05.31.42l-.39.21.15.06s0,.14-.09.12c.09.19.07,0,.16.08-.15.23,0,.65-.22.69.11.09.1-.22.17,0-.27.06,0,.29-.11.5-.13-.07-.05-.27-.18-.07.22.15-.08.41-.05.6.18,0,.05.39.09.7-.06,0-.13.56-.22.84l0,0c.18.07.13.36.15.57-.11,0-.15-.06-.19-.17v.2c.06.05.08.11.09.24l-.13-.06c0,.27.13.54,0,.88.13,0,.38-.25.44.11-.07,0-.19,0-.21-.08s0,.11,0,.17l-.11-.15c-.06.16.09.09.07.21S26.07,10,26,10s.05-.11,0-.16a.71.71,0,0,1-.17.36.1.1,0,0,1,.13.11c0,.26-.12.08-.18.23s0,.23.13.25c0,.07-.08.08-.12.11s0,.64.15.5v0h0c.12.46-.14.93-.11,1.37H25.8a3.66,3.66,0,0,0,.09.79c0,.08-.1.18-.16.14a.73.73,0,0,1,0,.52c-.07-.21-.08.06-.05-.22-.06.27-.14.32,0,.61-.12-.1-.18.19-.15.32l.11-.18a2.47,2.47,0,0,1,0,.39L25.4,15c-.23.52.28,1-.08,1.38.11.15.1-.29.23-.15,0,.24-.3.49-.3.56-.11.34.22.33.13.69.07,0,.23-.08.27.19s-.27.29-.31.13,0-.09,0-.08,0-.19-.11-.1l.06,0c-.07.12-.08.46-.17.37,0,.19.09.09.13-.05a7.36,7.36,0,0,0-.12.82s.11-.09.11,0c-.11.47.1.22.1.54s-.21-.08-.16.26-.16,0-.2-.05c.1.3-.11.55-.14.72l0-.16a.71.71,0,0,1,0,.25l.13-.08c0,.09,0,.16-.09.16s.21-.06.3.13c-.07.12,0,.38-.12.42.08-.39-.16,0-.16-.3a.65.65,0,0,1,0,.23s0,0,0,0c-.17.36.17.18.14.57-.09-.06-.18.07-.16.14,0-.16.15-.07.21.08s0,.27,0,.4l0-.15c.08.06.06.18.08.35-.07,0,0-.16-.07-.1.14.2-.19.42-.1.7-.07.11-.17,0-.22.1.1.31-.14.32-.07.63.13-.08.1-.1.2.13l-.05-.52.15.34c0-.15-.05-.33,0-.42.08.16.06.15.16.08-.19.2.08.43-.06.66l-.3,0c-.15.36.11.66,0,1.13l.06-.15c.11.08,0,.3,0,.46-.09,0-.14.07-.2.14s0,.35.16.4l-.14.21c-.08.38.25.46.19.83-.1-.12-.18,0-.24-.21,0,.12,0,.23,0,.24s.11.35,0,.46.15.08.13.22-.05,0-.05,0,.05.22.17.11c-.33.36-.05,1.07-.33,1.39,0,.27,0,.6,0,.84,0,0-.05,0,0-.05-.12.34.27.23.14.61-.17.19-.07-.21-.14-.09-.33,0,0,.47-.19.71l0-.06c-.12.19.09.49.05.81H24.4a2.3,2.3,0,0,1,.2,1c-.12-.11-.06-.15-.19-.1s.21,0,.23.26c-.08.09-.15.28-.29.3V33c-.19.12,0,.34-.06.47l-.07,0c0,.41.19.42.15.86l.06,0c.18.24-.12.21,0,.41h-.2c.08.07.1.46-.16.54a.57.57,0,0,0,.08-.51c0,.08-.1.2-.11.3s0-.09.07-.09c0,.23-.15.33-.43.28.05-.19-.15-.23-.38-.26s-.58-.07-.53-.21a.14.14,0,0,1-.22-.13.33.33,0,0,1,.05-.15,3.06,3.06,0,0,0,.06-.45c-.32.19,0-.19-.29-.18,0-.15,0-.21,0-.22l.23-.43c.1-.09.05.15.12.15.06-.33.14-.13.25-.33-.12,0-.15-.13-.09-.31l-.16.24c-.12-.47.29-.36.18-.83l.08.15c0-.24.1-.86-.12-1.12,0,0,.13-.08.14,0,.1-.56-.13-1.28.07-1.69l.07.05c0-.11-.12-.2,0-.32s.07.05.08,0a.7.7,0,0,1,0-.42l.07.12c.16-.53-.11-.86-.11-1.32.21,0,.33-.39.39-.6h0a7.35,7.35,0,0,0-.09-1.7c.28-.34.24-1.22.44-1.8-.05.09-.17,0-.18-.14s-.11-.39.08-.35V23c.21-.08.19-.37.22-.59l-.26-.07c.45-.53,0-1.52.4-1.8-.05-.15,0-.32-.08-.47l.14,0a5.34,5.34,0,0,0,.14-1.06l.09.11c0-.27-.37-.38-.35-.63l.21-.05a3.56,3.56,0,0,0,.15-1.41.11.11,0,0,1,.09.1c0-.22.23-.84-.06-.79.18,0,.07-.48,0-.74l.14.05a.76.76,0,0,1-.22-.55c0-.07.12-.05.07,0,.1-.23-.11-.2,0-.47l.08.11c0-.24,0-.22-.1-.37s.09-.46.21-.48a.27.27,0,0,1-.1-.32c.05,0,.07,0,.08.07.14-.4-.09-.63.07-.89a.11.11,0,0,0,.09,0,4.62,4.62,0,0,1-.08.56c.13,0,.18-.25.33,0a1.66,1.66,0,0,1-.16-.85l0,0v0a.22.22,0,0,0,0-.16.83.83,0,0,0,.06-.21c.11,0,.09-.29.11-.42-.14,0-.1-.17-.23,0,0,0,0,0,0,.12a.13.13,0,0,0,0,.06v0q0,.13,0,.33a.32.32,0,0,1,0-.36l-.2-.21c.21-.15.36-.48.48-.52,0-.4.05-.94-.18-1.22,0-.11.09-.12.13-.16s0,.15,0,.19c0-.24.05-.67-.13-.75.11-.27.15.18.16-.21l.05.06c.38-.74-.33-1.3.14-2.12,0,.06,0,.09-.07.1.27-1,.06-2,.43-2.95.08-.27,0-.31-.11-.49l.16,0-.14-.3c-.08-.42.44-.66.26-1.2l-.11.06c0-.18,0-.59.12-.55s-.1-.07,0-.13H26c0-.15-.06-.33-.09-.44S26,.92,26,1h0V1.1h0l.09,0L26.33,1c.11-.05.18-.11.15-.14S26.29.8,26.29.72l.17,0c.06-.23.21-.45-.2-.65a.56.56,0,0,1-.18,0,.93.93,0,0,0-.34.13,1.1,1.1,0,0,0-.25,0,.92.92,0,0,1,.6-.19.58.58,0,0,0-.72.37c-.08,0-.18.07-.26.22s0,.28.05.3l.09.16c-.09,0-.16-.15-.23,0,.08.14.21-.11.26.12-.12.13-.21.08-.13.26-.07,0-.1,0-.12-.1.06.16,0,.4.1.49-.14.13,0,.5-.23.46a.91.91,0,0,1,.13.42c-.23-.28-.07.51-.34.41.21.21,0,.68.13,1,0,0-.05-.06,0-.09a1.19,1.19,0,0,1-.17.34c.19,0,.2.34.31.5-.22.21-.22-.16-.41-.11.16,0,.12.41.26.35-.14.16-.07.14-.24.21.24.06,0,.16.15.32-.14.24-.23,0-.19.32S24.34,5.93,24.34,5.93Zm-.28,6.55h0v0ZM24,13c0-.06,0-.15,0-.23s.1,0,.09.06S24.05,13,24,13Zm1.09-1c0,.09,0,.12-.05.13v-.16h0S25.08,12,25.09,12Z"/><path class="b" d="M24.93,11.8s0,0,0,0l0,.05.05,0Z"/><path class="b" d="M26,11.37h0l0,0Z"/><polygon class="b" points="22.91 20.53 22.95 20.54 22.92 20.49 22.91 20.53"/><path class="b" d="M26.62,8.38l0,0S26.64,8.36,26.62,8.38Z"/><path class="b" d="M26.74,7.08l.06-.19A1.3,1.3,0,0,0,26.74,7.08Z"/><path class="b" d="M26.88,6.08l-.06,0h0Z"/><path class="b" d="M26,22v0C26,22.16,26,22.1,26,22Z"/><path class="b" d="M26,17.26l.06.16C26.05,17.34,26.06,17.27,26,17.26Z"/><polygon class="b" points="25.82 27.34 25.82 27.34 25.82 27.37 25.82 27.34"/><path class="b" d="M26,17.64a.42.42,0,0,0,0-.22A.42.42,0,0,0,26,17.64Z"/><path class="b" d="M27.22,1.74V1.69h0Z"/><path class="b" d="M27.21,1.68V1.63S27.19,1.67,27.21,1.68Z"/><path class="b" d="M27.17,1.51l0,.12S27.21,1.54,27.17,1.51Z"/><path class="b" d="M27.07,3.06l.05,0A.06.06,0,0,0,27.07,3.06Z"/><path class="b" d="M27.06,3.46c0-.09.12-.23.1-.37h0C27.19,3.15,27,3.37,27.06,3.46Z"/><path class="b" d="M26.32,5.11l.06-.34c-.05.06-.13.13-.14,0C26.06,5.16,26.37,4.66,26.32,5.11Z"/><path class="b" d="M26.17,6.15c0-.18-.07,0-.1,0S26.12,6.28,26.17,6.15Z"/><path class="b" d="M25.68,13.72l-.13,0C25.56,13.84,25.6,13.7,25.68,13.72Z"/><polygon class="b" points="26.24 15.21 26.33 15.08 26.22 15.01 26.24 15.21"/><polygon class="b" points="25.28 16.01 25.27 15.95 25.3 16.18 25.28 16.01"/><path class="b" d="M24.49,28.73l.16,0C24.63,28.6,24.46,28.57,24.49,28.73Z"/><path class="b" d="M24.29,34.23a.25.25,0,0,0-.07.31C24.24,34.42,24.31,34.3,24.29,34.23Z"/><polygon class="b" points="24.01 22.12 24.05 22.24 24.03 22.02 24.01 22.12"/><path class="a" d="M30.36.94A.37.37,0,0,0,30,.61l-.42,0a.37.37,0,0,0-.33.39l2.14,33.79a.57.57,0,0,0,.62.54l1.46-.13A.58.58,0,0,0,34,34.6Z"/><path class="b" d="M30.69.9c-.05,0-.14,0-.11.1l.17.06Z"/><path class="b" d="M30.46,1.64c.09.11.25.24.39.14-.17-.1-.11-.14-.31-.25,0-.1,0-.19.1-.18s0-.16-.1-.21a.39.39,0,0,0,0,.5S30.49,1.64,30.46,1.64Z"/><path class="b" d="M31.3,11.9v-.07A.15.15,0,0,0,31.3,11.9Z"/><path class="b" d="M31.88,18.25c0-.05,0-.07,0-.07S31.87,18.26,31.88,18.25Z"/><path class="b" d="M31.82,19.35v-.07S31.8,19.33,31.82,19.35Z"/><path class="b" d="M31.3,11.9l0,.17C31.32,12.08,31.29,12,31.3,11.9Z"/><path class="b" d="M31,3A.2.2,0,0,0,31,2.92L31,3Z"/><path class="b" d="M30.86,9.12v0l-.07,0Z"/><path class="b" d="M30.61,7s.14,0,.2.06a.14.14,0,0,1-.1-.1Z"/><path class="b" d="M30.49,3.55l0-.06Z"/><path class="b" d="M31,10.66l-.05,0Z"/><path class="b" d="M28.62,2h0Z"/><path class="b" d="M30.32.94v0h-.08Z"/><path class="b" d="M31.85,21.35h0C31.83,21.29,31.84,21.32,31.85,21.35Z"/><path class="b" d="M31.84,33.21c-.11.21-.18-.33-.3,0C31.59,33.17,31.78,33.47,31.84,33.21Z"/><path class="b" d="M31,3.06l0,.09A.24.24,0,0,0,31,3.06Z"/><path class="b" d="M31.54,33.2h0v0Z"/><path class="b" d="M32.42,25.9s0,0,.06,0Z"/><path class="b" d="M32.26,22.48v.09A.31.31,0,0,0,32.26,22.48Z"/><path class="b" d="M32.81,27.65a.16.16,0,0,0,0,.12l0,0A.08.08,0,0,1,32.81,27.65Z"/><polygon class="b" points="33.01 29.48 33.03 29.45 33.02 29.39 33.01 29.48"/><path class="b" d="M29,7.63a.47.47,0,0,1,.12-.09C29.07,7.58,29,7.31,29,7.63Z"/><path class="b" d="M30.93,3a.07.07,0,0,1,.06,0V3S30.94,3,30.93,3Z"/><path class="b" d="M33.92,27.6v.3A1.58,1.58,0,0,0,33.92,27.6Z"/><path class="b" d="M29.9,20.86l0-.06A.11.11,0,0,0,29.9,20.86Z"/><path class="b" d="M34,28.76a.71.71,0,0,0-.08.18l0,0Z"/><path class="b" d="M29.17,7.54h0Z"/><path class="b" d="M28.71,5.63c0,.28.19.12.3.17.07.33-.13.17-.21.29s.24.35.24.51,0,0-.08,0c.16.21.05.65.25.89l0,0a.4.4,0,0,1,.25,0c0,.12.13.22,0,.28s-.05-.09-.09-.12l.06.13c-.17.13-.07-.18-.2-.17.07.25.24.54.2.74s-.09-.45-.22-.18l0-.31c-.25.25,0-.18-.26,0,0,.4.11.44.09.84.1.08.14,0,.24,0,.2.56-.4.48-.15.88.12.1.34.13.24.43l-.2-.09c0,.39.29.2.19.62-.08-.07-.08-.3-.1-.24-.14.27.12.18.13.38l-.16.05c.05.41.2.85.26,1.31-.05,0-.11-.1-.16,0a5.66,5.66,0,0,1,0,1.79l.16.2s-.07.1-.1,0c0,.22.1,0,.16.1s-.07.17-.12.09a2.69,2.69,0,0,1,.2,1.48l-.05-.07c0,.32.33.33.21.63l0-.05a7.37,7.37,0,0,1,0,1.95c.22.09,0,.68.25.71a2.72,2.72,0,0,0-.25.84c0,.14.2.2.24.38l-.15,0,.18.23-.18.14.05.17c0-.07.06-.15.11-.14.08.26-.07.65-.15.66l.17.62c-.06,0-.09-.12-.13-.2.17.33-.16.07,0,.37,0,0,.09,0,.13,0a1.29,1.29,0,0,0,0,.76l-.11,0c0,.46.11,1,.14,1.49,0-.19.23-.16.25,0l-.15.08c.1.09.05-.17.18,0s-.17.14-.23,0l.07.23s-.08,0-.14,0c.11.09-.14.41,0,.54l0,0c0,.52.1.75.14,1.17.14,0,.12.17.24.29a4.88,4.88,0,0,0-.08,1c.09.26.12.07.21.18-.12,0-.09.4-.19.22a6.45,6.45,0,0,0,.2,1.13c0-.06.07-.13.11-.1s0,.24-.1.23v0c.23.63-.28,1.5,0,2l0,0,.17.52c0,.24-.1-.14-.17.05.25.55,0,.9.2,1.36a.9.9,0,0,0-.13.69l.06.42a3,3,0,0,1,0,.5,2.38,2.38,0,0,0,0,.49l.05-.08c.17.15.08.26.17.4,0-.06-.08-.24,0-.16a1.28,1.28,0,0,0,1.21.43c.33,0,.57,0,.86,0h.23a2.36,2.36,0,0,0,.38,0,1.27,1.27,0,0,0,.66-.34,1.31,1.31,0,0,0,.4-1v-.31c0-.4-.48-.18-.33-.71l.18.13c-.28-.79-.17-1.65-.42-2.43,0,.05.09,0,.1.12.1-.18-.06-.62-.16-.61s.09,0,.13-.12-.2-.41-.09-.51,0,.05.06.08,0-.51-.17-.4c0-.3-.12-.56-.07-.8-.17-.14,0-.52-.2-.54.23,0,.13-.54,0-.72.08.05.05-.17.16-.11,0-.21-.09-.4-.2-.35.22-.43-.31-.77,0-1-.19-.63-.34-1.21-.45-1.77.22,0,.09.63.32.58a4.69,4.69,0,0,1-.38-1.37c0-.15.11.07.15.11-.15-.53-.09-1-.27-1.52,0,0,0,.05.08.09s0-.22-.1-.2l0,.09c-.13.17-.35-.34-.43-.35.31.13,0-.49.42-.27,0-.06-.08-.14-.15-.11s.05-.13.14,0c-.09-.33-.19-.2-.22-.51,0,0,.07.06.14.08a.73.73,0,0,1-.22-.55s.07,0,.08,0c-.06-.44-.34-.73-.3-1.24.23.13,0-.17.24-.22l-.09-.26-.08.12c0-.23-.18-.42-.14-.63l.1.17L32.54,18l0,.25c-.12-.22-.23.05-.21-.26,0,.06,0-.24.07-.37h0a.51.51,0,0,1-.11-.39c0-.05.21,0,.24,0-.17-.1-.1-.54-.28-.67a.14.14,0,0,0,.16,0l-.14-.08c0-.11.05-.13.13-.12,0-.32-.22.13-.16-.27,0,0,0,0,.05.08,0-.39-.16-.74-.13-1.1.17-.12.08.31.22.17A9.57,9.57,0,0,1,32,13.71l0,.1c-.27,0,.1-.39-.06-.62,0,.06.16.06.13.05a5.06,5.06,0,0,0-.28-1.19l.08.06a4.73,4.73,0,0,0,0-.75c-.07,0-.07-.18-.16-.09.31-.71-.35-1.24-.09-1.87,0,.07.08.16.07.11L31.53,9c-.11.06-.06.08-.14.19a.45.45,0,0,1-.16-.31c.1.21.19,0,.24-.13s-.08,0-.11,0c.17-.28-.24,0-.14-.39h.06A1.28,1.28,0,0,1,31.15,8c.12-.07.08.14.19.14,0-.21-.3-.38-.19-.57.05.08.06.2.11.28a.52.52,0,0,0,.1-.38h0l0-.35,0,.09C31,7,31.24,6.7,31,6.39c.25.31.13,0,.28.05s.07-.23.11-.2c-.14-.15.07-.28-.13-.49.05,0,0-.17.11-.15-.06-.2-.08.06-.14.05-.2-.3.12-.78-.16-1.22s-.31-.45-.43-.81c.07-.14.19.08.19.08a.8.8,0,0,0-.06-.55c.05,0,.08,0,.13-.07s-.19-.08-.14-.29a.6.6,0,0,1,.21.13c-.06-.18-.17-.34-.23-.53s.14.1.2.16c-.06-.2-.14-.53-.28-.58l0,.14c0-.08.11-.06.14,0a.17.17,0,0,1-.06.28l-.05-.13c-.27.17.1.53.11.8L30.54,3l.2.25c0,.07-.16.12-.21,0-.08.21.09.16,0,.34,0,0,0,0,0,0l.08.18s-.14,0-.12-.07c-.08.35.21.53.07.67l0,0c.12.46.16,0,.38.36l-.35.28.15,0s0,.14-.06.13c.12.17.06,0,.17.06-.11.25.13.63-.1.71.12.07.06-.23.17,0-.25.1.07.28,0,.5-.14,0-.09-.25-.19,0,.24.1,0,.42.06.59.18,0,.11.38.21.68-.07,0,0,.57-.08.86h0c.19,0,.18.32.25.53-.12,0-.16,0-.22-.14l0,.2a.31.31,0,0,1,.13.22l-.14,0c0,.26.22.51.16.85.13,0,.33-.3.45.05-.06,0-.18,0-.22-.05s.07.1.05.17l-.13-.13c0,.16.1.07.1.19s-.06.1-.14.09,0-.11,0-.15a.61.61,0,0,1-.11.38.1.1,0,0,1,.15.08c0,.26-.1.1-.14.26s0,.23.17.22-.06.1-.1.14.09.63.23.46v0h0c.19.43,0,.94.12,1.37H31.4a4.32,4.32,0,0,0,.22.76c0,.08-.07.19-.13.16a.76.76,0,0,1,.07.52c-.11-.2-.07.08-.09-.2,0,.26-.08.33.08.6-.13-.08-.14.21-.08.33l.07-.19a1.75,1.75,0,0,1,0,.39l-.17-.05c-.14.56.45.93.15,1.37.13.13.05-.3.2-.19s-.2.54-.2.61c-.05.35.28.29.26.65.05-.05.2-.11.29.15s-.22.33-.28.18,0-.09,0-.09-.06-.18-.12-.08l.06,0c0,.13,0,.47-.11.4.08.18.11.07.13-.07a7.54,7.54,0,0,0,0,.82c0-.05.09-.11.1-.06,0,.49.13.2.19.52s-.22,0-.11.28-.15.06-.21,0c.15.29,0,.57,0,.74l-.07-.15a.77.77,0,0,1,.06.24l.1-.1c0,.09,0,.17-.05.18s.19-.1.32.08c0,.13.1.36,0,.42,0-.39-.15.06-.21-.26a.55.55,0,0,1,0,.23s0,0,0,0c-.1.38.2.15.23.53-.09,0-.15.11-.13.17,0-.16.14-.09.22,0s.08.26.09.39l0-.15c.09,0,.09.17.14.33s-.07-.15-.09-.08c.17.17-.12.44,0,.7-.05.13-.17,0-.2.14.15.28-.08.33,0,.63.11-.1.08-.11.22.09l-.14-.5.21.31c0-.15-.11-.32-.1-.41.12.15.08.13.18.05-.16.23.14.41,0,.66l-.3,0c-.09.38.23.63.2,1.12l0-.16c.12.05,0,.29.11.44-.1,0-.13.1-.18.17s0,.35.23.37l-.11.23c0,.39.33.41.34.78-.12-.1-.17.08-.28-.16,0,.12,0,.23.08.23s.17.33.09.45.15.06.16.19a.05.05,0,0,1-.05,0c.05,0,.09.21.18.08-.26.41.14,1.06-.09,1.42.06.26.13.59.16.83,0,0,0,0,0,0-.06.34.3.17.24.57-.14.21-.11-.2-.15-.07-.32.09.09.46-.07.74l0-.06c-.08.21.18.47.19.8,0,0,0,0,0,0a2.31,2.31,0,0,1,.37.92c-.14-.08-.08-.13-.21-.06,0,.14.21-.06.27.21-.06.1-.1.31-.23.35l0-.26c-.16.15.05.33,0,.48h-.08a.9.9,0,0,0,.16.39l.09.17a.53.53,0,0,1,0,.16l0,0c.2.25-.1.11,0,.33l-.2-.1c0,.12-.15.29-.47.35.19-.17.34-.24.36-.37a1.07,1.07,0,0,0-.3.17c.08,0,.12-.08.15,0s-.39.26-.68.28c0-.19-.22-.19-.39-.19s-.28,0-.19-.2a.13.13,0,0,1-.12-.16.82.82,0,0,0,0-.2l0-.28a3.79,3.79,0,0,0,0-.58c-.28.24,0-.19-.32-.13,0-.14,0-.2,0-.22l.15-.46c.08-.11.08.14.15.12,0-.32.12-.14.18-.36-.1,0-.16-.11-.13-.29l-.12.27c-.2-.45.23-.41,0-.86l.1.14c-.07-.23-.05-.87-.31-1.08,0,0,.11-.1.14,0,0-.57-.34-1.23-.22-1.68l.08,0c0-.1-.15-.17-.08-.31s.07,0,.08,0a.77.77,0,0,1-.12-.41l.09.11c.07-.55-.25-.83-.33-1.28.21,0,.26-.45.28-.67h0a8.18,8.18,0,0,0-.37-1.66c.21-.38,0-1.24.12-1.84,0,.09-.18,0-.21-.11s-.17-.37,0-.36v0c.19-.12.12-.4.11-.62l-.26,0c.34-.6-.24-1.51.08-1.85-.07-.13-.08-.3-.16-.44H31a4.89,4.89,0,0,0,0-1.06l.1.09c0-.27-.42-.32-.45-.56l.21-.09a3.78,3.78,0,0,0-.1-1.42.13.13,0,0,1,.11.1c0-.23.08-.87-.2-.77.19,0,0-.49-.11-.74l.14,0a.8.8,0,0,1-.31-.5c0-.08.11-.07.08,0,.06-.24-.14-.17-.09-.46l.1.1c0-.25,0-.22-.17-.35s0-.47.13-.51a.28.28,0,0,1-.16-.3c.05,0,.08,0,.1,0,.06-.41-.2-.59-.09-.88,0,0,.07,0,.08-.06a4.83,4.83,0,0,1,0,.57c.13,0,.13-.28.32-.08a1.57,1.57,0,0,1-.3-.81l.05,0v0a.22.22,0,0,0,0-.16.76.76,0,0,0,0-.21c.1,0,0-.3,0-.44-.14,0-.13-.15-.23,0,0,0,0,0,0,.11a.08.08,0,0,0,0,0h0l0,.32a.3.3,0,0,1-.07-.35,2.25,2.25,0,0,1-.24-.17c.18-.19.27-.54.38-.6-.1-.39-.11-.93-.39-1.17,0-.11.07-.13.11-.18s0,.15.07.18c-.08-.22-.07-.67-.25-.71.06-.29.18.15.12-.24l.06.05c.24-.79-.55-1.23-.23-2.11,0,.06,0,.09-.05.11.1-1-.29-2-.09-3,0-.28-.08-.3-.18-.46L29.71,3l-.19-.27c-.16-.4.32-.73.05-1.22l-.1.07c0-.18-.1-.6,0-.54s-.1,0,0-.05l.08,0s-.05-.12.08-.17.17.09.18.16a.11.11,0,0,0,.06.09s0,0,.09,0H30V1s0,0,0,0,.12,0,.14,0A.4.4,0,0,1,30.21.8a.27.27,0,0,1,.1.11,2,2,0,0,0,.35,0c.07,0,.28-.24-.09-.69a.83.83,0,0,0-.68,0l-.1-.1.12,0a1.17,1.17,0,0,1,.32,0c-.45-.16-.39,0-.52,0A.2.2,0,0,0,29.58,0a.85.85,0,0,1-.23.14A1,1,0,0,0,29.1.4C29,.4,29.26,0,28.82.34c-.07.18,0,.14.1.13s.09,0,0,.21a1.49,1.49,0,0,0-.2.23.24.24,0,0,0,0,.23c-.06,0-.1,0-.13-.07.08.16.05.39.18.46-.12.16.07.5-.15.5a1,1,0,0,1,.2.39c-.28-.23,0,.51-.27.46.25.17.15.66.3,1,0,0-.06,0-.05-.08a1.08,1.08,0,0,1-.11.37c.2,0,.26.29.39.44-.17.23-.24-.12-.42,0,.16,0,.19.38.31.29-.1.18,0,.16-.2.26.25,0,.05.15.21.29-.1.25-.22.08-.13.35C28.81,5.87,28.71,5.63,28.71,5.63Zm.84,6.5h0V12Zm0,.54a1.93,1.93,0,0,0,0-.23c.05,0,.1,0,.1.05S29.62,12.59,29.58,12.67Zm.9-1.22c0,.09,0,.12,0,.13l0-.15h0Z"/><path class="b" d="M30.29,11.31s0,0,0,0l0,.06,0,0Z"/><path class="b" d="M31.31,11.82h0l0,0Z"/><polygon class="b" points="29.8 20.26 29.83 20.25 29.8 20.21 29.8 20.26"/><path class="b" d="M31.47,8.76l0,0S31.48,8.74,31.47,8.76Z"/><path class="b" d="M31.36,7.46l0-.19A.81.81,0,0,0,31.36,7.46Z"/><path class="b" d="M31.32,6.45h0Z"/><path class="b" d="M33.19,22.31v0C33.23,22.44,33.22,22.38,33.19,22.31Z"/><path class="b" d="M32.35,17.62a.6.6,0,0,1,.09.15C32.44,17.68,32.43,17.62,32.35,17.62Z"/><polygon class="b" points="33.92 27.57 33.92 27.57 33.92 27.6 33.92 27.57"/><path class="b" d="M32.46,18a.39.39,0,0,0,0-.22A.42.42,0,0,0,32.46,18Z"/><path class="b" d="M30.92,2.12V2.07h0Z"/><path class="b" d="M30.9,2.06l0-.05S30.89,2.06,30.9,2.06Z"/><path class="b" d="M30.83,1.9l.05.11S30.88,1.92,30.83,1.9Z"/><path class="b" d="M31,3.44h0Z"/><path class="b" d="M31.06,3.84c0-.09.08-.25,0-.38h-.05C31.14,3.51,31,3.76,31.06,3.84Z"/><path class="b" d="M30.61,5.59V5.25c-.05.06-.12.15-.15,0C30.36,5.69,30.59,5.15,30.61,5.59Z"/><path class="b" d="M30.65,6.64c0-.18-.08,0-.11,0S30.61,6.78,30.65,6.64Z"/><path class="b" d="M31.45,14.19h-.13C31.36,14.32,31.37,14.18,31.45,14.19Z"/><polygon class="b" points="32.26 15.56 32.33 15.41 32.2 15.36 32.26 15.56"/><polygon class="b" points="31.45 16.51 31.42 16.45 31.5 16.68 31.45 16.51"/><path class="b" d="M32.85,29.17l.15-.06C33,29,32.78,29,32.85,29.17Z"/><path class="b" d="M33.58,34.53c-.07,0-.13.06-.07.14S33.61,34.57,33.58,34.53Z"/><polygon class="b" points="31.15 21.64 31.21 21.74 31.15 21.54 31.15 21.64"/></svg>