<svg xmlns="http://www.w3.org/2000/svg" viewBox="0 0 46.46 34"><defs><style>.a{fill:#ffc700;}.b{fill:#ffce20;}</style></defs><title>資產 2</title><path class="a" d="M9,1.61A34.28,34.28,0,0,0,1.6,3.14V31.65a24,24,0,0,1,11.11-2.47A23.94,23.94,0,0,1,23,31.65V3.14A35.68,35.68,0,0,0,9,1.61Z"/><path class="b" d="M9,1c-.05.09,0,.28.14.23L9.18.85Z"/><path class="b" d="M10,1.49a.71.71,0,0,0,.22-.76c-.15.32-.2.2-.36.59a.19.19,0,0,1-.25-.21c0,.08-.24-.06-.3.15a.42.42,0,0,0,.69,0C10.05,1.34,10,1.43,10,1.49Z"/><path class="b" d="M22.51,4.31l0-.07A.08.08,0,0,0,22.51,4.31Z"/><path class="b" d="M22.32,13.16c0-.07,0-.1-.07-.1S22.3,13.17,22.32,13.16Z"/><path class="b" d="M22,14.67l0-.09S21.93,14.65,22,14.67Z"/><path class="b" d="M22.51,4.31a2.25,2.25,0,0,0-.11.22C22.51,4.56,22.48,4.4,22.51,4.31Z"/><path class="b" d="M12,.62a.38.38,0,0,0-.13.09l.13,0Z"/><path class="b" d="M20.16,3.12h-.07a.62.62,0,0,0-.09.12Z"/><path class="b" d="M17.26,2.62c.07,0,.13-.25.17-.37-.05.11-.11.16-.17.17A.67.67,0,0,0,17.26,2.62Z"/><path class="b" d="M12.64,1.76l-.09,0Z"/><path class="b" d="M21.88,3.64l-.05.09A.41.41,0,0,0,21.88,3.64Z"/><path class="b" d="M5.32.81v0S5.35.81,5.32.81Z"/><polygon class="b" points="9.02 1.69 8.98 1.71 8.98 1.86 9.02 1.69"/><path class="b" d="M21.6,17.44h0C21.57,17.36,21.58,17.4,21.6,17.44Z"/><path class="b" d="M12.12,28c.3.25-.48.32,0,.6C12.05,28.51,12.5,28.18,12.12,28Z"/><path class="b" d="M12,.66h.13A.25.25,0,0,0,12,.66Z"/><path class="b" d="M12.09,28.62h0l.05,0Z"/><path class="b" d="M21.77,23.82a.34.34,0,0,0,.12-.06S21.83,23.78,21.77,23.82Z"/><path class="b" d="M22.17,19.07l0,.12A.24.24,0,0,0,22.17,19.07Z"/><path class="b" d="M22.17,26.29c0,.07-.07.09,0,.17l0,0S22.12,26.36,22.17,26.29Z"/><path class="b" d="M22.17,28.86s0,0,0-.05v-.08Z"/><path class="b" d="M.41,6.83a1,1,0,0,1,.25-.12C.47,6.75.39,6.37.41,6.83Z"/><path class="b" d="M12,.78c0-.07,0-.11.07-.12H12S12,.76,12,.78Z"/><path class="b" d="M24.38,26.4l0,.4A1.64,1.64,0,0,0,24.38,26.4Z"/><path class="b" d="M.45,25.26l0-.09A.08.08,0,0,0,.45,25.26Z"/><path class="b" d="M24.38,28a.57.57,0,0,0-.19.23l.07,0Z"/><path class="b" d="M.67,6.71h0Z"/><path class="b" d="M0,3.71c0,.77.36.39.57.55.11.52-.27.23-.46.4.1.29.44.51.43.73-.07,0-.09.06-.16,0,.29.3,0,.91.38,1.26a.2.2,0,0,1-.09,0,1.13,1.13,0,0,1,.5,0c0,.17.24.32,0,.38,0-.1-.09-.11-.17-.16l.11.18C.76,7.23,1,6.81.73,6.81c.11.36.4.77.3,1.05-.34,0-.11-.64-.42-.28l.13-.42c-.53.32,0-.26-.53,0-.1.56.17.62.07,1.18.19.12.28-.05.47.08.34.79-.85.62-.4,1.2.23.15.66.21.43.62l-.39-.14c0,.54.56.31.3.87-.15-.1-.13-.42-.18-.34-.3.36.22.26.22.54l-.34.06c.06.57.3,1.2.36,1.83-.1,0-.2-.14-.31,0A5.64,5.64,0,0,1,.2,15.59l.29.29a.12.12,0,0,1-.19.06c-.11.3.19,0,.3.16a.14.14,0,0,1-.25.11,2.71,2.71,0,0,1,.22,2.08l-.09-.11c-.12.43.6.49.33.89L.76,19c-.13.94.14,2-.3,2.71.42.13-.19.93.4,1-.29.54-.4.39-.6,1.15,0,.2.37.3.43.55H.38l.33.34-.37.18.08.24A.25.25,0,0,1,.65,25a.84.84,0,0,1-.38.91l.26.87c-.12,0-.16-.17-.24-.28.31.46-.33.08,0,.51.07-.06.19,0,.25,0a1.35,1.35,0,0,0-.11,1L.18,28a4.94,4.94,0,0,0,0,1c0,.11,0,.55,0,.84s0,.65,0,1c.1-.53.47-.55.51-.26l-.33.33c.2.09.12-.43.37-.15,0,.43-.37.58-.48.37l.12.48c-.1.12-.15,0-.28.09.11.05,0,.37,0,.72s-.11.73.07.68l-.1.16a7,7,0,0,0,0,.74c.9-.47,1.48-.83,2.27-1.23.1-.35.47-.45.74-.83.31-.08.69-.14,1.05-.22a2.19,2.19,0,0,0,.71-.14c.29-.24,0-.26.12-.47.1.23.57.07.38.32a7.94,7.94,0,0,0,1.4-.65c-.11-.09-.21-.11-.18-.21a.26.26,0,0,1,.34.16l0,0c.77-.58,2.05.35,2.64-.25l0,0c.22-.12.44-.24.67-.35s-.18.21.08.35c.72-.49,1.19,0,1.8-.31.47.74,1.71,0,2.32.52l0-.18c.19-.15.19.13.31.18,0-.14-.16-.18,0-.26a9.7,9.7,0,0,1,4.18,1.25c.48.19.56-.8,1.07-.18l-.29.25a2.59,2.59,0,0,1,.74.09c.44.15.86.31,1.3.51.85.4,1.8.91,2.52,1.16a4.25,4.25,0,0,0-.06-.67,1.64,1.64,0,0,1,.17.55c.24-.1,0-1.59-.18-1.73,0-.28.18.09.28,0,.14-.36-.31-1.26-.07-1.36,0,0,.08.16.09.25-.11-.33,0-1.33-.24-1.09a2.2,2.2,0,0,0,0-.73.86.86,0,0,1,0-.53c-.31-.22.15-.72-.29-.78.45,0,.36-.73.15-1,.14.08.14-.23.33-.13,0-.3-.09-.57-.32-.52.54-.55-.44-1.11.26-1.42a18.43,18.43,0,0,1-.52-2.51c.46,0,.05.88.52.85-.18-.76-.57-1.2-.46-1.95.06-.2.19.11.27.17-.18-.76,0-1.47-.2-2.14,0,0,.08.07.12.14,0-.13.06-.31-.14-.29l.06.13c-.3.21-.63-.53-.78-.55.58.22.14-.67.89-.31a.28.28,0,0,0-.28-.18c0-.13.12-.17.28,0-.11-.47-.33-.31-.32-.74.09,0,.13.09.25.14a.85.85,0,0,1-.3-.81c.06,0,.13,0,.13.09,0-.62-.51-1.07-.33-1.75.44.2.15-.24.52-.27L23.92,14l-.18.14c0-.32-.27-.61-.15-.88l.16.24-.07-.61-.14.34c-.2-.32-.48,0-.37-.39,0,.09,0-.33.22-.49h0a.56.56,0,0,1-.15-.57c.12-.06.41,0,.49,0-.31-.16-.08-.76-.42-1a.43.43,0,0,0,.32.05l-.26-.13c.09-.15.13-.17.28-.15.05-.45-.47.14-.27-.39,0,0,.06,0,.1.11.11-.54-.16-1,0-1.53.38-.15.09.43.41.26a10.48,10.48,0,0,1-.36-2.16l0,.12c-.53-.09.26-.51,0-.86,0,.09.29.11.24.09a4.76,4.76,0,0,0-.3-1.68l.13.09a6.39,6.39,0,0,0,.14-1.34c-.14-.07-.12-.3-.32-.06a2.33,2.33,0,0,0,.21-.57,1.42,1.42,0,0,0-.39-.19,3.7,3.7,0,0,0-.92-.16c-.33,0-.53,0-.73-.07A1,1,0,0,1,21,1.93c.1,0,.27-.06.19-.08l-.72,0c0,.23,0,.15.16.36a.66.66,0,0,1-.51.14c.34-.08.08-.37,0-.52,0,.07-.05.14-.06.21-.27-.48-.15.44-.59.07L19.44,2c-.19,0-.39.15-.58.08,0-.28.22-.09.27-.3-.29,0-.65.39-.85.09.13-.06.3,0,.43-.08-.22-.36-.27-.28-.46-.37h0l-.46-.22.11.11c-.47.63-.75,0-1.29.4.52-.37.11-.24.19-.53-.12-.1-.29-.22-.23-.3-.25.21-.36-.23-.72.09,0-.1-.25,0-.17-.27-.31,0,.05.17,0,.29-.49.29-1.06-.5-1.75-.07-.58.16-.69.49-1.22.64-.17-.16.16-.35.16-.35a.83.83,0,0,0-.78,0c.06-.08,0-.15-.08-.26s-.14.35-.43.21a1.67,1.67,0,0,1,.21-.39c-.25.1-.5.27-.77.37-.07-.16.16-.26.25-.37-.3.08-.77.18-.85.46l.19.08c-.1,0-.06-.23,0-.28.25-.22.38.08.39.18l-.18.07c.21.56.75-.12,1.13-.09l-.15.42.38-.35c.08.11.14.34-.05.4.27.21.24-.14.47.09,0,0,0,.06,0,.07l.26-.12c-.05.09,0,.3-.12.23.46.25.76-.29.93,0l0,0c.65-.11.07-.3.58-.64l.28.77.09-.3c.06,0,.19.05.16.17.26-.19,0-.13.13-.32.29.3.9-.05.92.44.14-.22-.29-.21.07-.33,0,.53.41-.05.68.23-.13.25-.38.07-.12.35.23-.43.55.17.8.12.07-.35.56-.07,1-.12,0,.12.74.34,1.09.55l0,.06c.15-.35.53-.2.83-.21a.41.41,0,0,1-.31.35l.27.06A.38.38,0,0,1,20.45,3l-.13.25c.35.07.79-.14,1.19.16.09-.24-.18-.79.35-.82,0,.14-.07.37-.2.39,0,0,.17-.07.23,0a2.07,2.07,0,0,0-.24.17c.14.15.14-.16.29-.1-.08.18,0,.16-.06.3s-.07-.11-.14-.05a.28.28,0,0,1,.14.36c.07-.1.17-.23.29-.22s-.11.21-.1.33c.22-.12.05.12.35-.06,0,.07-.14.16-.22.22.13,0,0,.48.35.32l0,0,0,0h0c.29.54-.17,1.27-.05,1.87h-.09c.11.37.06.82.27,1.08,0,.11-.18.26-.29.22.07.28.18.31,0,.72-.17-.29-.15.09-.13-.29-.08.36-.24.44,0,.84-.25-.14-.32.27-.24.45l.18-.26a1.93,1.93,0,0,1,0,.54L22,9.29c-.41.75.69,1.35,0,1.92.23.2.16-.41.43-.23,0,.35-.52.7-.52.81-.18.47.49.44.36.94a.36.36,0,0,1,.55.24c-.05.35-.5.43-.59.21s0-.12.06-.12-.09-.26-.22-.12l.12,0c-.12.18-.11.65-.3.54.11.26.19.11.25-.08-.17.44,0,.69-.12,1.14.07-.07.21-.14.21-.06-.15.66.22.29.27.74-.18.26-.43-.09-.28.37-.12.28-.31.06-.41-.05.23.41-.15.77-.19,1l-.1-.22a.76.76,0,0,1,.06.35l.23-.13c0,.13,0,.24-.14.24.16.13.4-.1.61.16-.12.17.13.52-.18.58.1-.54-.32.06-.37-.4a.47.47,0,0,1,0,.33s-.06,0-.08-.06c-.28.52.36.24.35.77-.18-.06-.34.13-.3.21,0-.21.3-.1.43.1-.14.34.1.37.09.55l.06-.21c.18.07.16.25.21.48-.13,0-.09-.21-.15-.13.31.27-.33.6-.12,1-.12.17-.33,0-.41.17.23.41-.24.45-.05.88.24-.12.18-.15.41.16L22,20.68l.35.45c0-.21-.15-.45-.11-.58.19.22.13.2.33.09-.36.3.21.59,0,.93H21.9c-.26.51.3.91.15,1.58l.11-.22c.23.09,0,.42.12.63-.19,0-.27.12-.39.21.15,0,0,.49.38.55L22,24.6c-.1.54.56.62.5,1.14-.22-.16-.36.08-.51-.27,0,.17,0,.33.1.33-.13.1.26.48.08.64.08.07.29.09.27.29a.12.12,0,0,1-.09,0c.09,0,.13.3.35.13-.62.53,0,1.49-.49,1.95.07.46.13.62.15.88-.06,0-.1-.05-.08-.08-.18.14.57.54.36.83-.32-.12-.17-.36-.29-.35-.33-.27-.3-.2-.25,0s.15.42,0,.22l0-.09L22,30.11c-.08-.05,0,.31-.23.17a.38.38,0,0,0,0-.12c0,.35-.41.29-.77.26.18-.21.17-.08.19-.35-.14,0,0,.43-.43.36-.07-.17-.3-.38-.25-.65l.37.11c-.07-.41-.47-.15-.64-.27l.07-.14c-.57-.13-.69.24-1.28,0l0,.13c-.42.29-.21-.29-.61-.09v-.4a8.46,8.46,0,0,1-1.25.18A3.23,3.23,0,0,1,18.2,29c-.21-.06-.75-.13-.9,0,.09,0,.23-.09.3,0a1.37,1.37,0,0,1-1.13.25c.2-.75-1.1-.37-1.36-1-.81.19-1.55-.25-2.49-.23.32.6-.27,0-.22.63-.21,0-.29,0-.31,0l-.65-.35c-.16-.17.2-.14.18-.28-.48,0-.21-.25-.54-.4.08.22-.15.32-.42.25l.39.27c-.63.35-.6-.48-1.25-.11l.2-.21c-.34.14-1.28.13-1.54.68-.07-.07-.17-.22,0-.29-.84,0-1.69.85-2.37.7l0-.16c-.14.08-.19.34-.41.24,0-.06,0-.16,0-.15s-.32.36-.54.33l.12-.21c-.83,0-1,.76-1.63,1.07-.25-.37-.37-.48-.4-.54v-.07s-.13.18-.42.49c-.13.13-.2.11-.27.05.48-.75.2-.36.47-1.61-.08.13-.35,0-.39-.17s-.31-.53.1-.5v.07c.4-.14.29-.54.3-.85l-.53-.05c.77-.81-.28-2.11.41-2.55-.13-.2-.13-.44-.26-.63h.28a5.1,5.1,0,0,0,0-1.48l.2.14c0-.38-.81-.48-.83-.83l.42-.1c0-.66.37-1.32,0-2,.06,0,.19,0,.2.14,0-.31.29-1.2-.29-1.09.38,0,0-.67-.13-1l.28.06c-.36-.3-.45-.31-.55-.73,0-.1.22-.09.15,0,.14-.33-.27-.25-.12-.65l.18.15c0-.34-.07-.32-.28-.5a.57.57,0,0,1,.32-.7c-.15,0-.36-.23-.28-.43.09,0,.15.05.18.08.19-.57-.33-.84,0-1.23a.22.22,0,0,0,.16-.07,3.53,3.53,0,0,1,0,.78c.26,0,.3-.36.66-.07-.19-.3-.62-.8-.49-1.15l.08,0,0,0a.24.24,0,0,0,0-.22.9.9,0,0,0,.08-.3c.21,0,.11-.42.12-.6-.28,0-.23-.22-.46,0,0,0,0,0,0,.16s0,.06,0,.07h0v.45c-.14-.14-.26-.29-.1-.49l-.46-.25c.4-.25.61-.73.85-.8-.16-.55-.1-1.31-.63-1.66-.07-.15.15-.18.23-.24.05.1.05.2.12.25-.13-.31,0-.93-.42-1,.17-.39.34.23.28-.32l.11.07C3,7,1.49,6.36,2.25,5.17c0,.08-.07.12-.13.14a4.49,4.49,0,0,0,.1-1c0-.21,0-.44-.07-.69A2,2,0,0,1,3.67,3.3c.39,0,.37-.23.55-.46l.15.28.3-.43c.5-.37,1.09.52,1.68-.07l-.12-.19c.25,0,.77-.25.77,0,0,0,0-.22.16-.13l0,.15.58-.35c.49.05,0,.63.7.58.24-.09.68-.53.58-.63a.31.31,0,0,1-.31-.23L9,1.71c0-.47.15-1-.5-1.23L8.09.81,7.93.6l.35,0C8.06.36,8,.56,7.82.71A.4.4,0,0,0,7.61.48L7.26,1C7.18.81,7.39.59,7.1.54c-.17.23.24.37-.06.55C6.81.91,6.84.73,6.63,1A.19.19,0,0,1,6.71.69c-.19.17-.55.15-.62.41-.26-.22-.69.2-.76-.24a1.09,1.09,0,0,1-.48.47c.24-.59-.73.13-.76-.44-.15.52-.89.43-1.27.81,0,0,0-.13.09-.12-.29,0-.34-.1-.61-.11.05.39-.54.66-.65,1-.74-.16,0-.47-.4-.74.21.27-.7.56-.28.7-.62-.08-.36.06-.71,0,.49.37.08.45.37.92-.24.48-.46,0-.31.72C.17,4.39,0,3.73,0,3.71ZM.85,13.1h0v-.18Zm0,.77c0-.09,0-.21,0-.33s.2,0,.19.08S.93,13.75.85,13.87ZM2.8,12.25c0,.12,0,.17-.07.18s0-.12,0-.21h0Z"/><path class="b" d="M2.43,12s0,0,0,0-.05,0-.06.07l.09,0Z"/><path class="b" d="M22.55,4.23h0l0,0Z"/><polygon class="b" points="0.31 24.41 0.39 24.41 0.32 24.34 0.31 24.41"/><path class="b" d="M20,1.79a.16.16,0,0,0,0-.09S20,1.75,20,1.79Z"/><path class="b" d="M18.25,1.37,18,1.23Z"/><path class="b" d="M16.86,1c0,.05,0,.09,0,.12h0Z"/><path class="b" d="M24.05,19a.13.13,0,0,0,0,.06C24.12,19.15,24.09,19.07,24.05,19Z"/><path class="b" d="M23.39,12.37l.14.21C23.55,12.46,23.55,12.37,23.39,12.37Z"/><polygon class="b" points="24.39 26.35 24.38 26.35 24.38 26.4 24.39 26.35"/><path class="b" d="M23.52,12.89a.37.37,0,0,0,0-.31A.55.55,0,0,0,23.52,12.89Z"/><path class="b" d="M10.69.63h-.07s0,0,0,0Z"/><path class="b" d="M10.61.66l-.07,0S10.6.7,10.61.66Z"/><path class="b" d="M10.38.78,10.54.7C10.48.7,10.41.7,10.38.78Z"/><path class="b" d="M12.58.73l0-.11A.27.27,0,0,0,12.58.73Z"/><path class="b" d="M13.15.71c-.13,0-.34-.23-.53-.17l0,.08C12.7.47,13,.88,13.15.71Z"/><path class="b" d="M15.43,2.1,15,2c.08.12.17.27,0,.28C15.48,2.63,14.83,2,15.43,2.1Z"/><path class="b" d="M16.84,2.42c-.25,0,0,.16,0,.22C17,2.56,17,2.54,16.84,2.42Z"/><path class="b" d="M22.33,7.48l-.26,0C22.11,7.65,22.17,7.46,22.33,7.48Z"/><polygon class="b" points="23.65 9.5 23.81 9.31 23.57 9.22 23.65 9.5"/><polygon class="b" points="21.83 10.69 21.79 10.6 21.88 10.93 21.83 10.69"/><path class="b" d="M21.92,28.4l.31-.06C22.18,28.21,21.82,28.19,21.92,28.4Z"/><path class="b" d="M19.06,29.37c0-.17-.23-.33-.4-.22C18.82,29.22,19,29.39,19.06,29.37Z"/><polygon class="b" points="2.84 26.44 2.95 26.59 2.86 26.3 2.84 26.44"/><path class="a" d="M37.69,1.61A35.68,35.68,0,0,0,23.74,3.14V31.65a24.31,24.31,0,0,1,21.37,0V3.14A34.28,34.28,0,0,0,37.69,1.61Z"/><path class="b" d="M37.75,1c-.06.08,0,.28.1.26L38,.89Z"/><path class="b" d="M38.68,1.67A.73.73,0,0,0,39,1c-.21.29-.24.16-.47.51a.19.19,0,0,1-.2-.25c-.07.07-.23-.1-.33.1a.43.43,0,0,0,.68.13C38.76,1.53,38.69,1.61,38.68,1.67Z"/><path class="b" d="M44.65,10.84l0-.1A.13.13,0,0,0,44.65,10.84Z"/><path class="b" d="M44.46,19.7c0-.07,0-.1-.07-.1S44.44,19.71,44.46,19.7Z"/><path class="b" d="M44.1,21.21l0-.09S44.08,21.19,44.1,21.21Z"/><path class="b" d="M44.65,10.84l-.11.23C44.65,11.09,44.62,11,44.65,10.84Z"/><path class="b" d="M40.77,1.17a.27.27,0,0,0-.14.07l.12,0Z"/><path class="b" d="M44.38,6.93V6.86a.59.59,0,0,0-.14-.06Z"/><path class="b" d="M44.33,4.13s.27,0,.39,0c-.12,0-.17,0-.19-.06A.69.69,0,0,0,44.33,4.13Z"/><path class="b" d="M41.22,2.42l-.09,0Z"/><path class="b" d="M44.32,9.07l-.1,0A.19.19,0,0,0,44.32,9.07Z"/><path class="b" d="M34.21.15V.2S34.23.15,34.21.15Z"/><polygon class="b" points="37.68 1.69 37.63 1.7 37.61 1.85 37.68 1.69"/><path class="b" d="M43.74,24h0C43.71,23.9,43.72,23.94,43.74,24Z"/><path class="b" d="M27.5,29c.35.17-.38.44.13.59C27.56,29.46,27.9,29,27.5,29Z"/><path class="b" d="M40.84,1.23H41A.31.31,0,0,0,40.84,1.23Z"/><path class="b" d="M27.63,29.55h0l.05,0Z"/><path class="b" d="M43.91,29.49l.12.07Z"/><path class="b" d="M44.31,25.61l0,.12A.24.24,0,0,0,44.31,25.61Z"/><path class="b" d="M43.77,30.17s-.06-.09-.09-.06l0,.05S43.72,30.1,43.77,30.17Z"/><path class="b" d="M41.87,29.49a.15.15,0,0,0,0,.07H42Z"/><path class="b" d="M26.21,1.23a1.16,1.16,0,0,1,.18.22C26.31,1.27,26.67,1.11,26.21,1.23Z"/><path class="b" d="M40.74,1.33c0-.07.06-.1.1-.1h-.09A.22.22,0,0,0,40.74,1.33Z"/><path class="b" d="M44.35,32.85l-.72-.38A7.88,7.88,0,0,0,44.35,32.85Z"/><path class="b" d="M22.59,18.72l0-.09A.08.08,0,0,0,22.59,18.72Z"/><path class="b" d="M42,31.86a.54.54,0,0,0-.14-.26.2.2,0,0,0-.07.06Z"/><path class="b" d="M26.39,1.46h0Z"/><path class="b" d="M29,.28c-.4.06-.13.39-.18.61-.46.18-.26-.23-.46-.39-.28.15-.44.52-.67.55,0-.06-.07-.07,0-.16-.26.35-.92.2-1.2.64a.23.23,0,0,1-.07-.07,1.26,1.26,0,0,1,.17.48c-.17,0-.27.3-.39.08.11,0,.1-.12.13-.2L26.14,2c-.24-.3.22-.17.16-.42-.33.19-.67.57-1,.54-.14-.31.6-.26.17-.47l.45,0c-.45-.44.27,0-.17-.51-.58,0-.58.33-1.16.38-.08.22.13.26,0,.48a1.17,1.17,0,0,1-1.16.09.85.85,0,0,0-1,.13c.17.41.64.75.4,1.24a4.68,4.68,0,0,1-.38-.39c-.05.92.55.72.29,1.42-.15,0-.13-.63-.17-.48a.66.66,0,0,0-.1.33c0,.06,0,.08.09.11s.22.1.22.24l-.34.06c.06.57.3,1.2.36,1.84-.1,0-.2-.15-.31,0a5.64,5.64,0,0,1-.24,2.48l.29.3a.12.12,0,0,1-.19.05c-.11.3.19,0,.3.16a.14.14,0,0,1-.25.12,2.68,2.68,0,0,1,.22,2.07l-.09-.11c-.12.43.6.49.33.89l-.05-.07c-.13.94.14,2-.3,2.71.42.14-.19.93.4,1-.29.54-.4.39-.6,1.15,0,.2.37.3.43.55h-.3l.32.34-.37.18.08.24a.25.25,0,0,1,.23-.19.84.84,0,0,1-.38.91l.26.87c-.12,0-.16-.17-.24-.28.31.46-.33.08,0,.51.07-.06.19,0,.25,0a1.35,1.35,0,0,0-.11,1.05l-.21-.07c-.06.65.1,1.36.09,2.09a.27.27,0,0,1,.51,0l-.33.08c.2.14.12-.22.37.06,0,.27-.37.19-.48,0l.12.33c-.1,0-.15-.06-.28-.08.21.14-.32.57,0,.76l-.1,0c0,.73.11,1.05.13,1.64.28,0,.22.25.44.42a5.41,5.41,0,0,0-.28,1.44c.14.37.24.11.4.27-.25,0-.23.55-.41.28,0,.42,0,.69.06,1s.09.76.2,1.32c.1-.22.15-.39.23-.38a.84.84,0,0,1-.23.65l0,0a5.11,5.11,0,0,1-.05,1.93,4.69,4.69,0,0,0,2.46-1l-.07.06,1.11-.76c.17,0,.13,0,.1.11s0,.08-.05.13.07.05.12.07c.57-.66,1.14-.33,1.65-.77.65.59,1.65-.47,2.38-.1l-.06-.17c.13-.2.21.06.34.08,0-.13-.2-.12-.12-.24,1.38-.45,3-.08,4.36.11.52.07.34-.91,1-.45l-.21.32c1.1-.34,2.16.21,3.25.08-.08.07-.1.16-.2.14.17.28.8.18.85,0,.15.06,0,.18.07.3s.61-.16.67.1c0,0-.08.06-.13.07.17-.08.64.2.59-.1.34.23.76.1,1,.35.3-.22.57.36.81,0-.24.39,1.14.86,1.49.81-.11.09.41.34.3.5.54.26,1,.37.73,0a2.36,2.36,0,0,0,1.15.69c-.07-.65-.27-1.3.15-1.16-.24-1.83-.41-3.41-.52-4,.23,0,.24.24.26.45a.65.65,0,0,0,0,.29c0,.11.1.21.21.2a1.85,1.85,0,0,0-.07-.36l-.09-.25c-.06-.15-.12-.31-.18-.45a1.85,1.85,0,0,1-.12-1c.06-.19.19.11.27.18-.18-.76,0-1.47-.2-2.14,0,0,.09.07.12.14,0-.13.07-.31-.14-.29l.06.13c-.3.21-.63-.53-.78-.55.59.22.15-.67.89-.31a.28.28,0,0,0-.28-.18c0-.13.13-.17.28,0-.11-.48-.33-.31-.32-.74.1,0,.13.09.25.13a.82.82,0,0,1-.3-.8c.06,0,.13,0,.13.09,0-.63-.51-1.07-.32-1.76.43.21.14-.23.51-.27l-.11-.37-.18.15c0-.32-.27-.61-.15-.89l.16.25-.07-.61-.14.34c-.2-.33-.48,0-.37-.39,0,.08,0-.33.22-.5h0a.54.54,0,0,1-.15-.56c.12-.06.41.05.49,0-.31-.16-.08-.76-.41-1a.4.4,0,0,0,.31.05l-.25-.13c.08-.15.12-.17.27-.15.05-.45-.47.14-.27-.39,0,0,.06,0,.1.11.11-.54-.16-1,0-1.54.38-.14.1.44.41.27a10.46,10.46,0,0,1-.36-2.17l0,.13c-.53-.09.26-.51,0-.86,0,.09.3.11.24.09a4.73,4.73,0,0,0-.3-1.68l.14.09a5.92,5.92,0,0,0,.13-1c-.14-.09-.12-.26-.31-.15.77-.93-.42-1.77.23-2.59,0,.09.12.23.12.15l-.13-.7c-.23.06-.14.09-.32.24a.59.59,0,0,1-.24-.46c.15.32.37,0,.5-.14-.07,0-.15,0-.22,0,.41-.37-.47-.06-.19-.56l.12,0c-.06-.19-.22-.36-.19-.56.27-.09.13.19.35.21,0-.29-.51-.56-.24-.82.07.12.07.29.15.42.31-.28.23-.32.28-.52v0c0-.18.1-.28.15-.52a1.14,1.14,0,0,1-.09.16.65.65,0,0,1-.38-.64c0-.22,0-.52-.2-.61.43.24.24-.07.54-.24l.07-.18,0-.1,0,0c0-.06,0-.11,0-.13-.52.09-.44-.34-1.11-.18,0-.09-.34-.11-.16-.31-.48-.06,0,.19-.06.29A1.17,1.17,0,0,1,43.64,2a1,1,0,0,0-.94-.16c-.6.05-.78.35-1.32.4-.14-.19.22-.32.22-.32a.82.82,0,0,0-.76-.15c.07-.07,0-.15,0-.28-.22,0-.21.33-.47.14a1.32,1.32,0,0,1,.29-.35c-.27,0-.56.18-.83.23,0-.18.2-.24.31-.33-.31,0-.79,0-.92.29l.18.12c-.11,0,0-.23.06-.27.28-.17.35.15.35.25l-.2,0c.11.59.76,0,1.13.12l-.23.39.45-.27c.06.12.07.36-.13.38.23.25.27-.1.45.17,0,0,0,.06,0,.07l.28-.07c-.06.08,0,.3-.16.21.41.32.8-.15.91.2h0c.67,0,.13-.28.69-.51l.14.81.14-.28c.06,0,.18.08.13.19.29-.13,0-.14.18-.29.23.35.92.13.71.57.24-.17-.16-.23.23-.28-.11.24,0,.24.12.22s.38-.05.37.1c-.33.16-.38,0-.41.25.31-.18.22,0,.17.15s-.19.29-.14.36c.36-.1.15.36.27.8-.12,0-.2.79-.33,1.18h-.06c.36.08.3.48.37.77a.39.39,0,0,1-.4-.22v.28a.42.42,0,0,1,.22.33l-.27-.07c0,.36.32.74.13,1.21.26,0,.72-.38.89.12-.14,0-.38,0-.43-.09,0,0,.11.15,0,.24l-.23-.2c-.1.21.19.11.17.28-.19,0-.14.13-.29.1s.08-.15,0-.21a.75.75,0,0,1-.3.5c.11,0,.26,0,.29.15,0,.36-.24.12-.34.34.14.08,0,.32.29.33,0,.1-.14.12-.22.16.13.19,0,.89.35.68l0-.05,0,0h0c.29.62-.17,1.29,0,1.91h-.09c.11.37.06.82.28,1.08,0,.11-.19.26-.3.21.07.29.18.32,0,.72-.17-.28-.15.1-.13-.29-.08.37-.24.45,0,.85-.25-.14-.32.27-.24.45l.18-.26a1.93,1.93,0,0,1,0,.54l-.33-.09c-.41.75.69,1.35,0,1.92.23.2.16-.41.44-.23,0,.34-.53.7-.53.81-.18.47.49.44.36.94a.36.36,0,0,1,.55.24c0,.35-.5.43-.59.21s0-.12.06-.12-.09-.26-.22-.12l.12,0c-.12.17-.11.65-.3.54.11.26.19.11.25-.08-.17.44,0,.69-.12,1.14.07-.07.21-.14.21-.06-.15.66.22.29.27.74-.18.26-.43-.09-.28.37-.12.27-.31,0-.41-.06.23.42-.15.78-.19,1l-.1-.22a.74.74,0,0,1,.06.34l.24-.12c-.05.13-.05.24-.15.23.16.14.4-.1.61.17-.12.17.13.52-.18.58.1-.54-.32.06-.37-.4a.4.4,0,0,1,0,.32s-.06,0-.08-.05c-.28.52.36.24.35.77-.18-.07-.34.13-.3.21,0-.21.3-.1.43.1-.14.34.11.37.09.55l.06-.21c.18.07.16.24.21.48-.13,0-.09-.21-.15-.13.31.27-.32.6-.11,1-.13.17-.34,0-.42.17.23.41-.24.44,0,.88.24-.13.18-.15.41.16l-.17-.72.35.46c0-.21-.15-.45-.11-.58.19.22.13.19.33.09-.35.3.21.59,0,.93H44a.85.85,0,0,0,0,.73,3.3,3.3,0,0,1,.13.37.23.23,0,0,1,0,.2l.11-.08c.23.1,0,.23.12.39a1.31,1.31,0,0,0-.39-.15c.15.1,0,.13.38.57a1,1,0,0,1-.26-.15s0,.09,0,.2.14.28.16.34.09.36-.11.23-.25-.49-.23-.64-.14-.11-.06.07c-.09-.17-.1.24-.25,0,0,.08,0,.32-.11.25a.24.24,0,0,1,0-.11c0,.11-.19.06-.07.35-.22-.42-.33-.46-.76-.58s-.71-.18-.85-.51c-.4,0-.86-.12-1.21-.19,0-.05,0-.09.09-.06-.43-.3-.42.48-.91.16-.2-.38.33-.11.18-.26.07-.66-.67-.06-1-.5l.1,0c-.24-.28-.73.12-1.18,0a.11.11,0,0,0,0-.09,3,3,0,0,1-1.41.37c.16-.24.21-.12.15-.38-.2,0,0,.42-.37.46-.12-.15-.4-.3-.42-.57h.38c-.17-.37-.49,0-.68-.09l0-.16c-.59,0-.61.42-1.22.39l.06.12c-.33.39-.28-.23-.61.07l-.11-.39a9.62,9.62,0,0,1-1.16.51c.2-.31.67-.49,1-.67-.22,0-.76.06-.86.27.09-.05.2-.15.29-.1A1.34,1.34,0,0,1,32,29c0-.77-1.16-.06-1.56-.59-.74.4-1.58.15-2.47.43.46.49-.26.08-.05.66-.19.1-.27.11-.3.07l-.72-.16c-.2-.13.15-.19.09-.32-.46.1-.26-.19-.62-.25.13.19-.06.36-.34.36l.45.15a.47.47,0,0,1-.62.11.61.61,0,0,0-.28-.07.58.58,0,0,0-.16.05s0,0,0,.08,0-.14,0-.19,0,.07-.06.13L25,30a1.25,1.25,0,0,1,.15-.36s-.1.07-.23.19-.35,0-.15-.29l.15-.08s-.28.07-.13-.06.15,0,.16-.06-.26-.05-.18-.13l.17,0c.05,0,.05-.25,0-.38a1.65,1.65,0,0,0-.16-.44,3,3,0,0,1-.37-.86c.44,0,.58-.59.65-.89h.07a8.33,8.33,0,0,0-.54-2.33c.48-.51.2-1.73.47-2.55-.08.13-.35,0-.39-.17s-.31-.53.1-.5v.07c.4-.14.29-.54.3-.85l-.53,0c.77-.8-.28-2.11.41-2.55-.13-.2-.13-.44-.26-.63H25a5.1,5.1,0,0,0,0-1.48l.2.14c0-.38-.81-.48-.83-.82l.42-.11c0-.66.37-1.32,0-2,.07,0,.19,0,.2.14,0-.31.29-1.2-.29-1.09.38,0,0-.67-.13-1l.28.06c-.36-.3-.45-.31-.55-.73,0-.1.22-.09.15,0,.15-.33-.26-.26-.12-.66l.18.15c0-.34-.07-.32-.28-.5a.57.57,0,0,1,.32-.7c-.15,0-.36-.23-.28-.43.09,0,.15,0,.18.08.19-.56-.32-.84-.05-1.23a.23.23,0,0,0,.17-.07,3.86,3.86,0,0,1-.05.78c.26,0,.3-.36.66-.07-.19-.29-.61-.79-.49-1.15l.08,0,0,0a.22.22,0,0,0,0-.22.9.9,0,0,0,.08-.3c.21,0,.11-.42.12-.6-.28,0-.23-.22-.46,0,0,0,0,0,0,.16s0,.06,0,.08l0,0V6c-.14-.14-.26-.29-.1-.49L24,5.27c.4-.25.61-.73.85-.8a1.22,1.22,0,0,0-.09-.24L24.7,4a2,2,0,0,0-.15-.29,2.75,2.75,0,0,0-.09-.29c.05-.09.23.09.31.15s-.07.07,0,.14c.06-.16.36-.16.38-.55.42.06-.12.38.38.19l0,.12c1.14.31,1.45-1.33,2.77-.81-.09,0-.14,0-.16-.1,1.36.09,2.69-.74,4.06-.3.37.08.4-.15.62-.34l.1.29.37-.36c.56-.27,1,.7,1.67.24l-.09-.21c.25,0,.81-.11.76.13,0,0,.09-.21.18-.1V2.1l.64-.24c.47.14-.11.61.58.69.25,0,.77-.4.68-.51a.3.3,0,0,1-.25-.28l.24-.06c.09-.46.33-.92-.26-1.29l-.44.25L36.8.42l.36,0c-.18-.23-.33,0-.48.06a.36.36,0,0,0-.16-.25l-.44.42c0-.18.2-.35-.08-.46-.2.19.17.41-.16.53-.19-.22-.13-.39-.37-.22a.19.19,0,0,1,.12-.24c-.22.13-.57,0-.68.3-.21-.27-.72.06-.7-.38a1.15,1.15,0,0,1-.57.38C34,0,32.91.56,33,0c-.24.48-.95.26-1.4.56,0,0,.07-.12.11-.1-.26,0-.35-.15-.53-.23,0,.39-.4.53-.59.79-.36-.34.14-.48,0-.83.05.31-.52.38-.38.63C29.92.62,30,.73,29.8.43c0,.49-.22.11-.39.43C29,.68,29.26.42,28.89.63,28.68.51,29,.28,29,.28ZM23,6.57h0V6.38Zm0,.76A1.73,1.73,0,0,0,23,7c.1,0,.2,0,.2.08S23.07,7.22,23,7.33Zm2-1.61c0,.12,0,.16-.07.17s0-.12,0-.21h0A.34.34,0,0,1,24.94,5.72Z"/><path class="b" d="M24.57,5.5s0,0,0,0l-.06.07.09,0Z"/><path class="b" d="M44.69,10.73h0l0,0Z"/><polygon class="b" points="22.45 17.87 22.52 17.87 22.46 17.8 22.45 17.87"/><path class="b" d="M45.66,6.52a.15.15,0,0,0,.07,0A.1.1,0,0,0,45.66,6.52Z"/><path class="b" d="M45.72,4.71l.1-.26A1.11,1.11,0,0,0,45.72,4.71Z"/><path class="b" d="M45.85,2.84a.28.28,0,0,0-.12,0h0Z"/><path class="b" d="M46.19,25.51a.13.13,0,0,0,0,.06C46.26,25.69,46.24,25.61,46.19,25.51Z"/><path class="b" d="M45.53,18.9c0,.08.1.14.14.22C45.69,19,45.69,18.91,45.53,18.9Z"/><polygon class="b" points="44.43 32.9 44.43 32.89 44.35 32.85 44.43 32.9"/><path class="b" d="M45.66,19.42a.32.32,0,0,0,0-.3A.51.51,0,0,0,45.66,19.42Z"/><path class="b" d="M39.51,1l-.06,0a.08.08,0,0,1,0,0Z"/><path class="b" d="M39.43,1l-.08,0S39.42,1,39.43,1Z"/><path class="b" d="M39.18,1,39.35,1A.15.15,0,0,0,39.18,1Z"/><path class="b" d="M41.36,1.39l0-.09S41.37,1.34,41.36,1.39Z"/><path class="b" d="M41.93,1.48c-.13-.05-.3-.29-.5-.26l0,.08C41.52,1.16,41.76,1.62,41.93,1.48Z"/><path class="b" d="M43.87,3.26c-.08,0-.26-.13-.39-.19.05.13.11.29-.1.26C43.84,3.8,43.36,3.07,43.87,3.26Z"/><path class="b" d="M44.47,3.81c0-.12-.16.1-.22.12C44.35,4,44.37,4,44.47,3.81Z"/><path class="b" d="M44.47,14l-.26,0C44.25,14.19,44.31,14,44.47,14Z"/><polygon class="b" points="45.79 16.04 45.95 15.85 45.72 15.76 45.79 16.04"/><polygon class="b" points="43.97 17.23 43.93 17.14 44.02 17.47 43.97 17.23"/><path class="b" d="M42.39,29.4l0,.32C42.5,29.71,42.64,29.38,42.39,29.4Z"/><path class="b" d="M34.55,28.45a.28.28,0,0,0-.45-.1C34.28,28.37,34.46,28.49,34.55,28.45Z"/><polygon class="b" points="24.98 19.9 25.09 20.05 25 19.76 24.98 19.9"/></svg>