<svg xmlns="http://www.w3.org/2000/svg" viewBox="0 0 152.67 89.41"><defs><style>.a{fill:#fff;}.b{fill:#4a4a4a;}</style></defs><title>資產 1</title><path class="a" d="M131.38,28a20.3,20.3,0,0,0-7.88,1.58A20.5,20.5,0,0,0,103.38,13a20.29,20.29,0,0,0-5.14.68,23.5,23.5,0,0,0-43,3.08,20.47,20.47,0,0,0-31.3,10.41A20.74,20.74,0,0,0,21.38,27a20.5,20.5,0,1,0,12.53,36.7A25.49,25.49,0,0,0,80.13,77.35a25,25,0,0,0,44.09-9.62A20.49,20.49,0,1,0,131.38,28Z"/><path class="b" d="M131.38,27.37c-.21.09-.09.28.51.27l.44-.31Z"/><path class="b" d="M135.33,28.37c.71,0,1.57-.06,1.2-.48a7.5,7.5,0,0,0-1.71.22c-.6-.05-1-.26-.9-.37-.22,0-.93-.16-1.27,0a7.55,7.55,0,0,0,2.77.38C135.62,28.27,135.39,28.32,135.33,28.37Z"/><path class="b" d="M134.15,68.36h.36A2.28,2.28,0,0,0,134.15,68.36Z"/><path class="b" d="M107.54,85.14c.25-.08.35-.15.35-.18C107.66,85.06,107.48,85.13,107.54,85.14Z"/><path class="b" d="M101.71,86h.35A1,1,0,0,0,101.71,86Z"/><path class="b" d="M134.15,68.36c-.31,0-.62,0-.93,0C133.16,68.5,133.7,68.42,134.15,68.36Z"/><path class="b" d="M143.09,30.7a2.84,2.84,0,0,0-.5-.21l.45.23Z"/><path class="b" d="M146.93,60.72l.16-.22a2.51,2.51,0,0,0,0-.27Z"/><path class="b" d="M151,50c0,.26.25.38.37.49a1.1,1.1,0,0,1-.16-.59C151.17,49.92,151.11,50,151,50Z"/><path class="b" d="M144.59,33.26l-.27-.2Z"/><path class="b" d="M140.56,66a.23.23,0,0,0-.14,0S140.49,66,140.56,66Z"/><path class="b" d="M122.71,23.46s0,0,0,0S122.76,23.55,122.71,23.46Z"/><path class="b" d="M131.38,28.11l-.19,0a.47.47,0,0,0,0,.16Z"/><path class="b" d="M91.35,84.07l0,0C91.66,84.17,91.51,84.11,91.35,84.07Z"/><path class="b" d="M10.52,63.54c.4.39,0,.24-.38.07s-.66-.28-.07.34C10,63.81,11.6,64.39,10.52,63.54Z"/><path class="b" d="M143.35,30.9l.41.31C143.58,31.06,143.45,31,143.35,30.9Z"/><path class="b" d="M10.07,64h0l.13.13Z"/><path class="b" d="M70.48,84.15a.65.65,0,0,0,.28,0S70.67,84.13,70.48,84.15Z"/><path class="b" d="M85.6,81.57l-.34-.31A4.18,4.18,0,0,0,85.6,81.57Z"/><path class="b" d="M61.47,87.14a2.25,2.25,0,0,0-.67,0l.1,0A1.21,1.21,0,0,1,61.47,87.14Z"/><path class="b" d="M51.6,86a.83.83,0,0,0,.15.11l.31.1Z"/><path class="b" d="M97.11,9.73a1.69,1.69,0,0,1,.1.55C97.27,10,98.27,11.27,97.11,9.73Z"/><path class="b" d="M143,30.83a.47.47,0,0,1,.34.07c-.1-.07-.21-.12-.31-.18S143,30.77,143,30.83Z"/><path class="b" d="M61.21,89.39c-.57,0-1.15,0-1.73,0C60,89.42,60.6,89.42,61.21,89.39Z"/><path class="b" d="M32.51,14.84l.33-.23A1.34,1.34,0,0,0,32.51,14.84Z"/><path class="b" d="M54.37,89c-.29-.13-.59-.29-.91-.4a1.05,1.05,0,0,0-.21,0A10.49,10.49,0,0,0,54.37,89Z"/><path class="b" d="M97.21,10.28Z"/><path class="b" d="M105.77,11.58c-1.68-.15-.82.31-1.18.49-2,0-.9-.32-1.58-.51-1.27.13-2.17.57-3.07.71-.07,0-.25,0-.06-.15l-.4.14c-.12,0-.36.11-.36.12l-.34.12c-.16-.25-.27-.47-.5-.79a7.74,7.74,0,0,0-1-1.22.4.4,0,0,1,0-.21c0,.3-.14.44-.28.48-.44-.57-1-.91-1-1.28a1.19,1.19,0,0,0,.55.44L96,9.39c-.16-.75.73.73.92.59-1-1.15-2.37-2.18-3.1-3,.07-.43,2,1.8,1.1.51.39.44.73.92,1.09,1.39-.48-1.37.68.84.3-.47C94.78,6.54,94.37,6.54,92.62,5c-.53-.18,0,.32-.56.15a7.13,7.13,0,0,1-2.22-1.78A2.93,2.93,0,0,0,88,2.18a4.27,4.27,0,0,1-2.58-.6c.23-.06.46-.12.69-.16-2.15-.77-1.38.07-3.59-.75.43-.06,1.75.3,1.43.17C82.49.18,82.81.77,81.67.57L81.48.19a24.74,24.74,0,0,0-7.69.28c.13-.12.57-.28-.06-.31a32.72,32.72,0,0,0-9.86,3.48L63,4.58c-.23.17-.5.22-.29,0-1.07.7.06.19-.35.66s-.86.46-.55.1a43.24,43.24,0,0,0-2.88,3.23C58,9.81,57,11.1,56.3,12.05l.15-.44a4.25,4.25,0,0,0-.75,1.78,4.6,4.6,0,0,1-.2.77,3.07,3.07,0,0,1-.4.74.85.85,0,0,0,0-.16c-.11.23-.22.53-.34.75-.16-.11-.31-.22-.47-.31L54.05,15c-.17-.09-.36-.21-.55-.3a21.78,21.78,0,0,0-2.25-1.06c-1.5-.62-3-1.05-4.19-1.45a7.86,7.86,0,0,1-2.23-.13c-.94-.1-1.85-.07-2,.23l-1.26-.13-.82,0c-.26,0-.56,0-1,0s-1,.11-1.8.24a13.42,13.42,0,0,0-2.11,1.13l-.13-.28a11.42,11.42,0,0,0-1.21.85h-.85a8.17,8.17,0,0,0-.85.54c.35-.19.8-.29.79-.17a19.06,19.06,0,0,1-3.45,1.74,21.6,21.6,0,0,0-2.56,2.68c0-.15.34-.65.66-1-1.17,1.63-.5,0-1.53,1.56.22-.14.05.22.08.29a11.69,11.69,0,0,0-2.58,3.65L24.2,23a16.18,16.18,0,0,0-.95,1.91c-.39.92-.24.76-.33.87h-.2l-1.15-.05c-.76,0-1.53.08-2.31.11,1.12,0,.88.43,0,.51a4.73,4.73,0,0,0-.39-.28c-.55.29.94,0-.2.4-1.12.14-.82-.25-.18-.45l-1.36.32c-.1-.08.21-.18.28-.32a7.86,7.86,0,0,1-1.52.3,3.13,3.13,0,0,0-1.65.56l-.1-.06A19.89,19.89,0,0,0,8,30.27c.06.12-.11.32-.36.57a6.67,6.67,0,0,0-.71.91,26.9,26.9,0,0,0-2.15,2,14.79,14.79,0,0,0-1.92,2.55c-.69,1.4,0,.5-.24,1.18-.28,0-1.22,2-.88.87A17,17,0,0,0,.12,44.83c.16-.35.26-.74.32-.52-.06.6-.3,1.34-.4,1.24l0-.16c.06,1.88-.14,4,.11,6.11A11.33,11.33,0,0,0,1.8,56.81l-.09-.14c.27.45.52.91.82,1.34l.92,1.25c.36.61.22.45,0,.28s-.42-.42-.21.08c.58.63,1.07,1.2,1.52,1.74s.91,1,1.32,1.47.89.86,1.35,1.28a14.22,14.22,0,0,0,1.61,1.11,6.27,6.27,0,0,0,1.66,1.41,9.94,9.94,0,0,0,1.22.65,11.12,11.12,0,0,0,1.36.58c1.9.74,4,1.06,5.4,1.49l-.14-.2c.76-.05.89.2,1.45.27-.07-.14-.81-.2-.33-.27a25,25,0,0,0,7.8-.78A22.28,22.28,0,0,0,31.27,67c1.68-.85,1.25-.59,1.4-.61a.49.49,0,0,1-.05.17s0,.07,0,0l.15.92c.42,2.38,1.14,1.11,1.59,4.07-.22-.22-.38-.47-.57-.7a37.06,37.06,0,0,0,3.31,6.45,12.89,12.89,0,0,0,1,1.49c.38.47.74,1,1.13,1.4a18.93,18.93,0,0,0,2.62,2.39c-.26-.12-.33,0-.67-.35a8,8,0,0,0,1.62,1.49c.68.42,1.28.73,1.34.65.58.44,0,.24.35.59.77.66,2.28,1,2.64,1.47.06.07-.3,0-.46-.13.63.21,2.73,1.32,2.27.81A14.55,14.55,0,0,0,51.3,88c.76.24,1.5.35,2.16.61a12.36,12.36,0,0,1,1.85.25c.66.12,1.25.21,1.41,0-.18.44,3.05.58,4.14.25-.37.16,1,.07.55.29,1.27-.1,2.4-.39,2.15-.58a7.39,7.39,0,0,0,3.29-.66,6.2,6.2,0,0,1,2.54-.68,29.13,29.13,0,0,0,8.48-6.17c.12.2-.54.85-1.21,1.45S75.32,83.86,75.51,84a22.27,22.27,0,0,0,2.86-3c.4-.48.78-1,1.19-1.49l.31-.42a1.39,1.39,0,0,1,.3-.33c.11.18.07.2,0,.21a1.08,1.08,0,0,0-.13.35l.1-.17c0-.06.07,0,.11,0l.24.25.61.66.81.8a16.92,16.92,0,0,0,3.46,2.63,1.82,1.82,0,0,1-.56-.25c.46.31,1,.8,1.1.58a4.52,4.52,0,0,1-.49-.25c-.56-.72,2.17.67,2.35.51-.55,0,0,.4.56.74s1,.62.16.64c.35.12.81.23.79.07.47.26.61.4,0,.32,1.89.66,1.3.2,3,.78,0,.09-.39,0-.6.06l1.46.17c.52.09,1.12.19,1.85.38-.1,0,.06.16-.39.06,2.59.47,4.44.14,7.25.13-.4.23-.16.25.21.27s.86-.06,1,.11c.5-.11,1-.19,1.51-.32-.21,0-.43-.06-.64-.09,1.33-.23,2.42-.73,3.54-1l-.91.45c.79-.29,1.6-.52,2.37-.85a13.32,13.32,0,0,1-1.39.32c1.22-.61-.26-.36,1.41-.88-.32.15,1.23-.45,1.93-.59h0a11.3,11.3,0,0,1,2-1.22c.28,0,0,.46.22.44a9.36,9.36,0,0,1,1.5-1.21,5.77,5.77,0,0,0,1.48-1.4c-.16.24-.05.4,0,.37l.24-.55c.52-.34.61-.38.64-.19.72-.6.53-.59.38-.59s-.22,0,.6-.72a2.22,2.22,0,0,1-.24.39,26.42,26.42,0,0,0,3.88-4.93c.31-.16.12.24-.11.61s-.47.73-.14.53a20.72,20.72,0,0,0,2-4.07c.29-.7.46-1.43.71-2.13a7.65,7.65,0,0,0,.26-.87c.07-.26.14-.52.22-.76l-.14.34a.9.9,0,0,1,.09-.84,5.14,5.14,0,0,0,2.15.83c-.35,0-.53.17-.42.14a16,16,0,0,0,6.93.27l-.36.15a8.85,8.85,0,0,0,2.1-.15A19.34,19.34,0,0,0,137,69c.33-.21,1-.4.54-.46a10.53,10.53,0,0,0,5-2.16c.75-.48,1.36-1.12,2-1.62s1.32-1.08,2-1.61c-.26.32-.61.78-.37.56s.63-.74.95-1.11l.47-.56.41-.6c-.33,0-.32.23-.86.57a8.3,8.3,0,0,1,.95-1.63c-.65,1.11.31.22.73-.18-.1,0-.07-.17-.15-.17,1.11-1.07-.23-.43,1-2.06l.06.15.75-2.15c.36-.23-.14.81,0,.93.42-1.1.35-2.29.83-3.23a13.54,13.54,0,0,1-.33,1.66,5.19,5.19,0,0,0,.86-2l0,.08a14,14,0,0,0,.5-1.93l-.16.49a4.11,4.11,0,0,1-.15-1.14c0-.38,0-.76,0-1.16s.06-.81,0-1.25a8,8,0,0,0-.26-1.37c.53,1.86.27.3.58.43.06-.51.11-1.29.21-1.08a3.76,3.76,0,0,1-.24-1.29,3.23,3.23,0,0,0-.43-1.55c.07-.08-.25-1,0-.83-.38-1.18-.09.33-.23.26a5.17,5.17,0,0,1-.26-.69c-.1-.24-.19-.48-.28-.74-.19-.51-.29-1.09-.53-1.65a13.59,13.59,0,0,0-.77-1.72,10.07,10.07,0,0,0-1.18-1.61A10.39,10.39,0,0,0,147,34.81l-1.87-1.43c-.43-.59.67.14.67.14a11,11,0,0,0-1.11-1.14c-.41-.3-.82-.57-1.29-.85.22.06.08-.13-.12-.42-.77-.46-.7,0-1.61-.74a3.27,3.27,0,0,1,1,.12,23,23,0,0,0-3-1.16c-.19-.28.69.05,1.09.11l-.95-.38a10.08,10.08,0,0,0-1-.31,3.14,3.14,0,0,0-1.45-.2,6.36,6.36,0,0,1,.7.33c-.41-.14-.14-.3.18-.23,1.06.16,1.38.59,1.39.72-.24-.09-.49-.14-.73-.21.52.74,2.8,1.15,4.09,2l-.76,0,.75.26.73.33c.2.29.24.6-.39.21.72.82.88.42,1.41,1.22.06.1,0,.08-.07,0l.85.61c-.21-.07-.07.33-.5-.14a18.53,18.53,0,0,0,1.62,1.61,2.31,2.31,0,0,1,.86,1.12l-.11-.11c.83,1,.92,1,1,.94s.13-.24.8.52a10.87,10.87,0,0,1,0,1.51l.38.09c.11.25.32.74.17.7.62.81,0-.21.48.23a17.67,17.67,0,0,0,.72,2.21c.19.74.34,1.37.13,1.56.35.4-.13-1.24.37.07-.19.24-.12.63,0,1.11A3.75,3.75,0,0,1,151.6,47c-.26-.35-.28-1.45-.38-.27a2.49,2.49,0,0,1,.21,1.51,15.36,15.36,0,0,0-.2,1.73c.17,0,.22.58.09,1.31,0,.36-.11.78-.18,1.2l-.26,1.27c-.06-.07-.24.69-.66,1.58a18,18,0,0,1-1.33,2.61l0-.07c.11.23-.09.65-.35,1.17-.13.26-.29.54-.45.81l-.52.77c-.15-.17-.09-.39.2-.94l-.65.86a2.62,2.62,0,0,1-.63,1.14l0-.38a12.51,12.51,0,0,1-3.35,3.29c.06.28,1.64-.33.12,1-.14-.07-.33-.22.06-.58a2.44,2.44,0,0,1-.75.59,6.59,6.59,0,0,0,.52-.64c-.74.42-.26.42-.85.77-.09-.18-.5.14-.5,0a3.62,3.62,0,0,0,.73-.43,5.63,5.63,0,0,1-1.85.74c.11.07.12.24-.37.5-1.29.63-.53,0-1.34.25-.27.24-1.17.42-1.1.71a.83.83,0,0,1-.69,0,15.63,15.63,0,0,1-1.81.56c-.65.13-1.11.26-.67.35h.19l-.12,0h0a11.24,11.24,0,0,1-3.76.32c-1.28-.09-2.53-.34-3.73-.54l0-.09a14.25,14.25,0,0,1-1.47-.3c-.62-.18-1.22-.38-1.74-.54a11.45,11.45,0,0,0-.34,1.69,2.71,2.71,0,0,1-.29.67c-.12.18-.23.23-.25.13-.15.53-.24.83-.34,1.19a5.42,5.42,0,0,1-.7,1.45c.31-1.08-.28.29.35-1.09-.31.65-.58,1-.77,1.41s-.39.83-.67,1.56c0-.59-.78.78-1.14,1.35.23-.24.5-.47.71-.73a19.07,19.07,0,0,1-1.2,1.75l-.06-.5c-1,1-1.73,2.12-2.51,3.08a8.92,8.92,0,0,1-1.22,1.3,4.15,4.15,0,0,1-1.47.87c-.48.64,1.37-.81,1-.19a9.75,9.75,0,0,1-1.73.92,10,10,0,0,0-1.17.44,5.58,5.58,0,0,0-1.48,1,3.4,3.4,0,0,1-1.6,1c.28,0,.63.21-.7.87-1.33.4-1.75,0-1-.3.31-.11.47-.12.47-.08.4-.17.9-.46.37-.37l-.12.18c-.68.1-2.43.64-2.06.33-1,.32-.37.32.36.15-.84.17-1.5.26-2.16.43a19.28,19.28,0,0,1-2.22.27c.28,0,.56.13.28.17a5,5,0,0,0-1.77.17,1.81,1.81,0,0,1-1.15.23c-1-.22.38-.4-1.41-.35-1.06-.22-.19-.33.23-.39A10,10,0,0,1,94.45,85l.84.07a6.7,6.7,0,0,1-1.3-.24c.13.12.27.25.41.36-.47-.17-.87-.28-.84-.37-.53,0,.28.49-.77.42a6.6,6.6,0,0,0-1.22-.43c-.42-.16-.79-.33-.84-.52,1.91.86-.1-.34,1.56.19a4.19,4.19,0,0,1-1.16-.43c0-.06.09,0,.22,0-.86-.48-1.09-.51-1.35-.5a2.21,2.21,0,0,1-1.47-.42c.31,0-.27-.51-.56-.65.71.4.19.47-.54.18a14.33,14.33,0,0,0-1.83-1.11l.62.5a4.51,4.51,0,0,1-1.64-.94c0-.16.73.44.51.19-1-.38-1.6-1.74-2.74-2.61-.38-.59.24-.23-.17-.8a14.89,14.89,0,0,1-2-2.39l-.1-.13s-.06,0-.09.07l-.2.22-.44.52c-.32.4-.69.9-1.14,1.57.36-.27.52-.42.48-.29a2.35,2.35,0,0,1-.24.43c-.06.11-.18.27-.25.39s-.12.21-.2.34l.54-.69.66-1,.69-1,.18-.25c.06,0,.12.12.18.18l.38.42-.48-.44-.06-.06s0,.05-.06.07l-.1.18-.21.35L79,77.77c.38-.49.76-1,1.13-1.59a10.33,10.33,0,0,1,1,1.11c-.89-.77-.73-.67-.44,0a6.36,6.36,0,0,0-.35-.58,2,2,0,0,0-.19-.25l-.19.23c-.24.32-.49.69-.71,1a9.67,9.67,0,0,1-.69,1,3.46,3.46,0,0,1-.68.7L77.43,79c-1.53,1.24-2.28,2.74-4.53,4.07a7.48,7.48,0,0,0,.74-.39,1.79,1.79,0,0,1-.79.68c-.4.25-.85.51-1.2.75,0-.21-.53,0-.89.05.1.12-1.69.82-1.77,1.25-.39.06-.78.15-1.17.18a9.25,9.25,0,0,0-2.06.9,5.42,5.42,0,0,1-2.09.72c.57-.32-.35-.27.93-.7-.65.16-1.25.2-1.24.34a15.37,15.37,0,0,1-2.46.36,2.07,2.07,0,0,1-1.13.31c-.08,0,0-.1,0-.1s-1.19.12-.53.36a29.68,29.68,0,0,0-3.92-.62,11.1,11.1,0,0,1-2-.42,4.64,4.64,0,0,1-1.55-.66,21.57,21.57,0,0,1-4.27-1.68c.1,0,.05-.08.26.07a2.57,2.57,0,0,0-1.42-.62A2.36,2.36,0,0,1,44.78,83c-.69-.9,1,.51.54,0,.06-.35-.46-.7-1.12-1.11a7,7,0,0,1-1.77-1.59l.28.2c-.62-.89-2.05-1.66-3.08-3.12,0,0,.1,0,.09-.05a8.65,8.65,0,0,1-1.66-1.79,24.59,24.59,0,0,1-1.5-2.39c.47.37.48.63.56.23-.19-.33-.26-.23-.38-.22s-.29-.06-.6-.77c-.06-.52-.38-1.59-.15-1.82.16.45.36.88.54,1.33a2.51,2.51,0,0,0-.36-1.25,7.79,7.79,0,0,1-.45-1.23l.17,0c-.36-1-.56-1.55-.76-2.1-.11-.27-.21-.55-.32-.91l-.07-.28a4.11,4.11,0,0,1-.07-.47c0-.32-.07-.67-.11-1.08l-.08.42A2.66,2.66,0,0,1,34.26,64l0-.51v-.28c0-.08,0-.25,0-.22a6.17,6.17,0,0,0-.75.66.68.68,0,0,0-.3-.28c-.28.23-.65.55-1.07.86-.21.16-.41.34-.65.5L31,65a14.49,14.49,0,0,1-2.19,1.28c.35-.3.92-.66,1.49-1.06.29-.2.58-.4.84-.61l.5-.37.58-.46-.5.33c-.17.12-.44.28-.53.34l-.85.49a9.28,9.28,0,0,0-1.26.8,5.6,5.6,0,0,1,1-.52,8.38,8.38,0,0,1-3.67,1.84c0-.41-1-.16-2.28,0a6.48,6.48,0,0,1-3.32-.18c-2.94.17-5.74-.89-8.69-2.44.39.54.17.44-.16.26s-.76-.44-.82-.12c-.72-.39-1-.56-1-.64a20.24,20.24,0,0,1-1.68-1.8c-.3-.51.65.41.68.25-1.24-1.19-.37-.68-1.07-1.55,0,.33-.62-.22-1.21-1l.71,1.21a3.94,3.94,0,0,1-1.39-1.76,7.32,7.32,0,0,0-1.18-1.9l.55.54A17.73,17.73,0,0,1,4,55.5c-.29-.49-.48-1-.72-1.46a11.29,11.29,0,0,0-.64-1.1c0-.24.1-.56.28,0-.15-.72-.42-1.46-.54-2.24l-.25-1.17c0-.4-.09-.79-.14-1.19a10.46,10.46,0,0,1,.26-4.2l.11.25A3.16,3.16,0,0,1,2.6,42.7s.09.25.16,0,0-.52.1-1a6.49,6.49,0,0,1,.4-1.2l0,.64c.29-.66.49-1.26.74-1.79s.38-1.07.62-1.54.4-1,.65-1.46.56-1,.91-1.47c.17.14.67-.19,1.22-.64S8.59,33.34,9,33v.08c.64-.53,1.26-1,1.84-1.44s1.16-.86,1.77-1.19a16.41,16.41,0,0,1,1.84-1l1-.46c.35-.14.71-.24,1.09-.37a5.61,5.61,0,0,0,.86-.07c.32,0,.67,0,1-.07.75-.1,1.61-.12,2.5-.15a10.24,10.24,0,0,1,1.35.06l2.3.18c.14,0,.15-.08.19-.18l.11-.29.23-.58c.14-.35.27-.69.4-1a10,10,0,0,1,.57-1.08c-.27.4-.29-.22-.08-.74a6.46,6.46,0,0,0,.56-1.15c.18-.37.36-.61.49-.45l-.15.21a2.9,2.9,0,0,0,1-1c.4-.44.75-1,1.16-1.41l-.26-.5c1.31-.9,2.76-2.26,4.29-3.3a8.17,8.17,0,0,1,4-1.7,19.64,19.64,0,0,1,2.24-.88l0,.29a25,25,0,0,1,5.54-.34l-.53.17c1.39.12,1.88-.65,3.21-.4l.3.5A15.82,15.82,0,0,1,51.31,16c.55.28,1.08.56,1.61.85s1,.58,1.42.85.94.57,1.37.81c0-.09.07-.22.11-.32a1.75,1.75,0,0,1,0,.49,1.94,1.94,0,0,1-.52-.27l.55.38.89-2.12.24-.6.13-.31,0-.12,0,0,0-.08.28-.58c.33-.75.57-1.32.24-1.27.18.07.5-.48.87-1.21s.86-1.6,1.26-2.17l.08.34a6,6,0,0,1,1.47-2.47c.31-.23.4-.07,0,.24a3.27,3.27,0,0,0,.83-.85,2.84,2.84,0,0,1,1-.93l-.34.49a4.82,4.82,0,0,0,1.38-1.4,5.68,5.68,0,0,1,1.36-.86,2.35,2.35,0,0,1,1.12-.29,2.49,2.49,0,0,1,1.39-1c.13,0-.1.21-.22.3,2.07-.73,3-1.5,4.54-1.59,0,.09.16.11.29.12a29.67,29.67,0,0,0-2.93.77c.09.22,1.41-.17.48.52.49-.27,1.18-.61,1.91-.93a7.13,7.13,0,0,1,2.24-.53.54.54,0,0,1,.19.07l-.14,0a3.59,3.59,0,0,0,.85-.14c.44,0,.72,0,1.14,0,.08.1.48.11.94.1l1.35,0c0-.29.87-.18,0-.46.12,0-.13,0-.6,0l-.3,0,0,0c-.47,0-1.07,0-1.75.05a3.25,3.25,0,0,1,1.92-.13,8.59,8.59,0,0,1,1-.42,16.59,16.59,0,0,0,1.76.69,4.53,4.53,0,0,1,1.19.58c2.14.25,4.78,1.42,6.22,1.63.57.25.55.49.7.67a7.19,7.19,0,0,0-.89-.37c1.16.43,3.08,1.9,3.52,1.82,1.12,1.1-.87-.31.79,1l-.28-.1c1.1,1.23,2.08,2.2,3.07,3.17a19.35,19.35,0,0,1,1.42,1.56A16,16,0,0,1,98,14.22a14.56,14.56,0,0,1,1.62-.33,11,11,0,0,1,1.43-.06,1.38,1.38,0,0,1-.57-.05,24.62,24.62,0,0,1,4-.07,23.26,23.26,0,0,1,4,.57,15.55,15.55,0,0,1,7,3.77,9.93,9.93,0,0,0,1.16.93,8.6,8.6,0,0,1,1,.55V20a14.63,14.63,0,0,1,1.29.94,7.32,7.32,0,0,1,1.58,2.67c.17.5.38,1,.6,1.51a13.21,13.21,0,0,0,.84,1.69l.07-.41c.08.24.18.55.3.88l.17.49.09.25.08.31c.2.8.33,1.45.22,1.47a1.92,1.92,0,0,1,.26.4,1,1,0,0,1,.29-.08l0,.19c.57-.28,1.12-.54,1.62-.76s.79-.34,1.2-.49c.95-.18.91,0,1,.14s.23.2,1.58,0c1-.22,2.88-.64,2.5-.73s-1.08-.08-1.13-.23l1-.11c.16-.45,1-1-1.56-1.2-.58.14-1.15.31-1.7.49l-.6-.12c.48-.1,1-.18,1.46-.24a3.14,3.14,0,0,0-1.92.43,1.33,1.33,0,0,0-.77-.08c-.27.14-.53.29-.78.44l-.38.23c-.15.09-.12.12-.2.19s0-.2,0-.29a.14.14,0,0,0-.13-.16.35.35,0,0,0-.06.34c0,.09.08.15-.26.35-.1,0-.12-.08-.13-.13,0-.23.08-.28-.09-.43.09-.14.17-.11.24-.07a.31.31,0,0,1-.11-.15l0-.11-.1-.25a3.72,3.72,0,0,0-.57-1.1c0-.93-1.22-2.68-.82-2.78-.22-.21-1-1.2-1.51-1.84.61.47.23-.17-.28-.91s-1.16-1.53-.84-1.56A13,13,0,0,1,118,17.52a11.93,11.93,0,0,0-1.3-1.05,7.94,7.94,0,0,0-1.35-.83.94.94,0,0,1,.46.19c-.89-.62-1.07-.93-1.64-1.35-.33.27-1.85-.46-2.78-.54-1.08-.86.91-.11.67-.61,0,.16-.6,0-1.12-.13s-1-.18-.83,0c-.9-.53-.79-.4-1.22-.83-.3.45-.95-.15-1.84,0-1.42-.43-.31-.53-2-.55C104.29,11.65,105.77,11.55,105.77,11.58Zm-32-11h0l.77-.11Zm-3.09.68c.37-.08.83-.24,1.33-.33.13.07,0,.19-.28.25C71.91,1.05,71.18,1.19,70.71,1.24Zm6.62,1c-.46.06-.62,0-.68,0l.81-.06.05,0A.52.52,0,0,1,77.33,2.24Z"/><path class="b" d="M78.17,1.9h.19l-.27-.07-.17.08Z"/><path class="b" d="M134.58,68.34h-.07a.28.28,0,0,1,.14,0Z"/><polygon class="b" points="35.72 13.16 35.75 13.23 35.99 13.07 35.72 13.16"/><path class="b" d="M148.92,60.16a.45.45,0,0,0,.18-.16A.82.82,0,0,0,148.92,60.16Z"/><path class="b" d="M151.93,53.31a6,6,0,0,0,.31-1A9.53,9.53,0,0,1,151.93,53.31Z"/><path class="b" d="M152.58,47.57a.28.28,0,0,0-.12-.11h0Z"/><path class="b" d="M84.82,83.31l-.2-.11C84.16,82.93,84.46,83.13,84.82,83.31Z"/><path class="b" d="M110.89,84.94a4.52,4.52,0,0,1-.74.49C110.62,85.28,110.94,85.08,110.89,84.94Z"/><path class="b" d="M61.4,89.37h0l-.2,0Z"/><path class="b" d="M109,85.9a5.37,5.37,0,0,0,1.17-.47A8.41,8.41,0,0,0,109,85.9Z"/><path class="b" d="M138.43,28.38l-.26-.11s0,0,0,0Z"/><path class="b" d="M138.12,28.3l-.3-.08A.82.82,0,0,0,138.12,28.3Z"/><path class="b" d="M137.16,28.12c.22,0,.44.05.66.1A1.48,1.48,0,0,0,137.16,28.12Z"/><path class="b" d="M145.05,32.29l.13,0A.11.11,0,0,0,145.05,32.29Z"/><path class="b" d="M146.77,33.88a8.59,8.59,0,0,0-1.48-1.63l-.11,0C145.55,32.42,146.33,33.57,146.77,33.88Z"/><path class="b" d="M150.5,42.61,150,40.84c0,.35,0,.79-.29,0C150.14,43.15,149.72,40.32,150.5,42.61Z"/><path class="b" d="M151.23,48.26c-.1-1-.16,0-.22,0a4.14,4.14,0,0,0,.11.53S151.21,48.63,151.23,48.26Z"/><path class="b" d="M122.86,70.07l-.21-.18C122.42,70.61,122.74,69.93,122.86,70.07Z"/><path class="b" d="M120.14,77.79a5.05,5.05,0,0,0,.6-.53l0-.45A9,9,0,0,1,120.14,77.79Z"/><polygon class="b" points="115.56 79.99 115.78 79.75 114.9 80.64 115.56 79.99"/><path class="b" d="M53.37,86.21l.14.36C54,86.64,54.2,86.32,53.37,86.21Z"/><path class="b" d="M34.76,64.92a7.54,7.54,0,0,0-.16-2.68C34.7,63.32,34.67,64.47,34.76,64.92Z"/><polygon class="b" points="30.16 19.57 29.81 20.04 30.55 19.23 30.16 19.57"/></svg>