<svg xmlns="http://www.w3.org/2000/svg" viewBox="0 0 87.94 56.55"><defs><style>.a{fill:#fff;}.b{fill:#4a4a4a;}</style></defs><title>資產 2</title><path class="a" d="M75.6,18.58a11.48,11.48,0,0,0-5.23,1.27A13.13,13.13,0,0,0,57.56,9.56a13,13,0,0,0-5,1,18.45,18.45,0,0,0-33.26,2.88,14.34,14.34,0,1,0-5,28.07A14.34,14.34,0,0,0,40,47.15a16.38,16.38,0,0,0,30.6-6.76,11.48,11.48,0,1,0,5-21.81Z"/><path class="b" d="M75.6,17.92c-.12.08-.06.27.3.25l.26-.31Z"/><path class="b" d="M77.88,18.76c.42-.07,1-.21.77-.58-.48.21-.55,0-1.05.35-.35,0-.59-.2-.51-.31-.13.05-.54-.13-.75.07a2.26,2.26,0,0,0,1.61.26C78.06,18.65,77.92,18.7,77.88,18.76Z"/><path class="b" d="M76.12,41.05l.21,0A.66.66,0,0,0,76.12,41.05Z"/><path class="b" d="M62.94,52.23c.12-.1.15-.16.14-.19S62.9,52.22,62.94,52.23Z"/><path class="b" d="M59.82,53.43l.19,0A.32.32,0,0,0,59.82,53.43Z"/><path class="b" d="M76.12,41.05,75.6,41C75.56,41.08,75.86,41,76.12,41.05Z"/><path class="b" d="M82.54,19.88a.75.75,0,0,0-.31-.1l.27.13Z"/><path class="b" d="M83.58,37.24l.11-.11a1.37,1.37,0,0,0,0-.19Z"/><path class="b" d="M86.2,31.4c0,.15.24.24.35.31a.47.47,0,0,1-.14-.35A.47.47,0,0,0,86.2,31.4Z"/><path class="b" d="M83.09,21.77l-.17-.1Z"/><path class="b" d="M79.8,39.89a.28.28,0,0,0-.09-.07S79.75,39.88,79.8,39.89Z"/><path class="b" d="M70.74,16.82l0,0S70.76,16.88,70.74,16.82Z"/><path class="b" d="M75.6,18.66h-.11a1,1,0,0,0,0,.16Z"/><path class="b" d="M53.92,54.1h0C54.1,54.08,54,54.08,53.92,54.1Z"/><path class="b" d="M6.93,37.33c.33.58-1-.4-.45.41C6.49,37.61,7.43,37.94,6.93,37.33Z"/><path class="b" d="M82.68,20l.25.18A2.71,2.71,0,0,0,82.68,20Z"/><path class="b" d="M6.48,37.74h0l.06.08Z"/><path class="b" d="M42.11,48.17a1.33,1.33,0,0,0,0,.2S42.15,48.33,42.11,48.17Z"/><path class="b" d="M50.36,54.17l-.25-.09A1.29,1.29,0,0,0,50.36,54.17Z"/><path class="b" d="M37,49.15a.74.74,0,0,0-.31.22h.07A.39.39,0,0,1,37,49.15Z"/><path class="b" d="M32.05,51.73l.12,0,.16-.06Z"/><path class="b" d="M54.29,8.76a.82.82,0,0,1,.35.18C54.5,8.77,55.42,8.5,54.29,8.76Z"/><path class="b" d="M82.46,20a.22.22,0,0,1,.22,0l-.18-.11A.07.07,0,0,0,82.46,20Z"/><path class="b" d="M38.21,51c-.27.21-.57.39-.86.59A7,7,0,0,0,38.21,51Z"/><path class="b" d="M18.78,11.78v-.09A.07.07,0,0,0,18.78,11.78Z"/><path class="b" d="M34.67,53.15a2.07,2.07,0,0,0-.61,0s-.07.07-.08.11Z"/><path class="b" d="M54.64,8.94Z"/><path class="b" d="M61.44,8.49c-1-.24-.54.24-.8.4-1.15-.15-.48-.37-.84-.63-.77,0-1.35.28-1.89.26,0-.07-.14-.09,0-.16-.76.23-2.31.09-3.12.65a.26.26,0,0,1-.13-.07.62.62,0,0,1,.24.47c-.41.09-.7.4-.91.21.25-.06.24-.16.34-.26l-.4.21c-.48-.23.56-.27.5-.51-.17.06-.35.14-.53.22a2.87,2.87,0,0,0-.43.24,3.81,3.81,0,0,1-.61.35c-.06,0-.08-.12-.11-.19s.12-.1.2-.07c.21-.13.38-.17.2-.3a2.64,2.64,0,0,0,.45,0c-.3-.19-.17-.22-.13-.22s.3-.09-.09-.27c-.12,0-.12,0-.18.08a.12.12,0,0,1-.1,0,.1.1,0,0,1,0-.06v0s0,0,0,0l0-.05-.15-.24c-.34-.14-.17.24-.5.1-1.41-1.3-.27-1.75-1.58-2.51-.41-.12-.82.11-1.39-.75l.51,0c-1-.9-.91-.09-1.84-1.12.29,0,.9.52.77.37-.52-.8-.64-.21-1.19-.62l.08-.36A19.87,19.87,0,0,0,43.56,1.8c.11-.06.4-.06.1-.29A45.11,45.11,0,0,0,37.71,0L37,.27c-.17,0-.32-.14-.13-.2-.75-.1,0,.19-.4.31s-.56-.15-.29-.25c-1.33.23-3.61.88-5,1L31.39,1c-1.08.16-1,.94-2,1l.16-.11c-2.23.7-4.19,2.36-5.79,3.18,0,.28-.46.6-.86,1s-.77.76-.6,1A8.09,8.09,0,0,0,20.15,8.9c-.3.41-.08.84-.34,1.39l-.28-.14c-.05.29-.07.6-.1.89l-.54.24c-.06.18-.14.4-.11.41s.28-.26.33-.17l-.11.31a.91.91,0,0,1-.09.17c-.08.09-.16.16-.24.13a.89.89,0,0,1-.21-.28l-.08,0c-.05,0,0,0-.27,0l-1.1,0c.06-.11.43-.11.73-.14-1.2.15-.17-.37-1.28-.19.14.08-.09.18-.12.24a5.85,5.85,0,0,0-2.64-.06l.15-.22A14.83,14.83,0,0,0,8.78,13c.64-.2.63.21.18.47l-.33-.21c-.22.33.55-.12,0,.4-.61.25-.58-.13-.27-.4a8.29,8.29,0,0,0-.68.48c-.09-.05,0-.2,0-.33-.18.35-1.44.44-1.63,1.06l-.09,0a14.4,14.4,0,0,0-2.94,3c.2.2-.2.63-.27,1.11-.36.4-.69.86-1.06,1.34a8.52,8.52,0,0,0-.88,1.67c-.19.91.13.34.14.78-.29,0-.61,1.23-.61.53A11.36,11.36,0,0,0,.07,24.6L0,25.51c0,.34,0,.74.05,1.23.12-.2.17-.44.25-.31,0,.35-.14.79-.26.74l0-.09a9,9,0,0,1,.14,1.74c.06.61,0,1.25.11,1.86l.1.91c.06.3.14.58.22.85a3.2,3.2,0,0,0,.71,1.36l-.07-.08a15.17,15.17,0,0,0,1.11,1.49c.39.75-.42-.34-.24.29a23.5,23.5,0,0,1,1.66,1.91,5.7,5.7,0,0,0,.73.82,4.1,4.1,0,0,0,.91.71,4.41,4.41,0,0,0,2.24,1.94c.54.27,1.09.52,1.62.73a12.94,12.94,0,0,1,1.39.68l0-.2c.48,0,.48.27.8.39,0-.13-.43-.29-.14-.3l1.4.26.16,0h.08l.15,0,.31,0c.13,0,.1.13.12.2l0,.27a2.11,2.11,0,0,0,.07.27l.1.35.2.71a15.49,15.49,0,0,0,2.84,5.17,1.28,1.28,0,0,0,1.1.55c.32,0,.58.15,1.15.84l-.61,0A35.57,35.57,0,0,0,22.18,53a10.31,10.31,0,0,0,4.14,1c-.18.06-.2.15-.47.11a2.9,2.9,0,0,0,1.3.24c.48,0,.89-.12.89-.22.43.05.1.19.37.3.61.14,1.47-.37,1.8-.17.06,0-.16.09-.26.12.37-.12,1.8-.23,1.38-.44a20.84,20.84,0,0,0,2.73-.74c.39-.47,1.71-.59,1.64-1.08.16.46,1.78-.62,2.15-1.21-.09.24.53-.25.45.06.6-.48,1-1,.78-1.11a2.21,2.21,0,0,0,.34-.18l.15-.11h0s.07-.06.1-.13a2.34,2.34,0,0,1,.19-.46.76.76,0,0,1,0,.53.3.3,0,0,1,.14.06l.09.06s.05,0,.17.14c.37.39.73.77,1.12,1.12a20.28,20.28,0,0,0,2.34,1.88c-.17.16-.6-.18-1-.51s-.77-.69-.91-.49A46.63,46.63,0,0,0,46,54.26c.39.28-.33,0-.51,0a15.67,15.67,0,0,0,5,1.74s-.2,0-.38,0c.33.07.74.24.74,0h-.32c-.44-.39,1.38-.37,1.44-.53-.62.53,1.58.31.64,1,.22,0,.5-.08.46-.23.31.06.41.14.08.28,1.18-.08.76-.27,1.81-.31,0,.1-.21.14-.32.27a5.21,5.21,0,0,1,1.94-.46c0,.06.07.13-.2.16a7.2,7.2,0,0,0,2-.62,16,16,0,0,1,2-.72c-.3.58.58-.06.8.22l.78-.48h-.41c.74-.3,1.17-.94,1.82-1.15l-.42.42A11.25,11.25,0,0,0,64.18,53l-.75.36c.53-.61-.33-.35.56-.85-.14.15.62-.43,1.05-.54h0a3.64,3.64,0,0,1,.89-1c.19,0,.21.38.33.37a2.51,2.51,0,0,1,.64-.94,2.54,2.54,0,0,0,.58-1c0,.17.11.3.17.28v-.4c.28-.23.33-.26.43-.12.64-.87-.58,0,.3-.93,0,.09,0,.07-.06.27A18.57,18.57,0,0,0,70,45.19c.49-.19-.33,1,.13.74A20.08,20.08,0,0,0,71,41.35l-.06.16a.74.74,0,0,1-.13-.4.33.33,0,0,1,0-.15l0-.06,0,0,.06,0c.36.27.67.57.93.52-.14,0-.12.27-.1.21a1.89,1.89,0,0,0,.48.17,6.82,6.82,0,0,0,.94.16,11.54,11.54,0,0,0,2.28,0l-.21.13A9.83,9.83,0,0,0,77.8,42c.19-.15.59-.24.31-.37a4.57,4.57,0,0,0,3.08-.95A16.71,16.71,0,0,1,83.72,39c-.17.16-.35.47-.2.34a12.57,12.57,0,0,0,1.13-1.29c-.26-.06-.25.07-.62.21a2.69,2.69,0,0,1,.54-1c-.36.67.3.25.59.05-.09,0-.08-.14-.16-.16.85-.47-.25-.36.59-1.21l.07.12c.19-.41.22-.85.45-1.25.33-.07-.09.47.09.6.31-.63.07-1.41.52-1.88,0,.28-.16.67-.2,1a2.12,2.12,0,0,0,.68-1.09l0,0c.14-.36.3-.73.42-1.11a2.44,2.44,0,0,1-.14.28,2,2,0,0,1-.16-1.38,3.21,3.21,0,0,0-.16-1.53c.44,1.09.26.18.56.26.07-.3.15-.76.24-.64-.26-.53.1-1-.37-1.69.1-.06-.14-.58.14-.52-.26-.69-.12.21-.26.18a2.87,2.87,0,0,1-.31-.85c-.09-.31-.16-.64-.25-1a3.93,3.93,0,0,0-1.12-2,10.92,10.92,0,0,0-2.32-1.73c-.2-.39.5,0,.5,0a3.38,3.38,0,0,0-1.39-1.19c.16,0,.09-.12,0-.33-.44-.29-.49.1-1-.38a1.72,1.72,0,0,1,.65-.06c-.29-.13-.59-.23-.89-.33s-.62-.15-.92-.24c-.08-.23.45-.07.71-.07-.68-.29-1.8-.58-2.08-.39.14.07.26.16.39.24-.24-.08,0-.27.15-.25.66,0,.79.4.78.51a3.15,3.15,0,0,0-.44-.11c.21.66,1.64.65,2.39,1.2l-.54.15a6.36,6.36,0,0,1,.93.24c.09.2.05.46-.33.25.37.53.53.22.77.75,0,.06,0,.06-.06,0l.53.31c-.15,0-.14.27-.36,0a3.31,3.31,0,0,0,.91.92c.26.23.46.41.46.66l-.08,0c.94,1.14.34-.07,1.25.71a8.64,8.64,0,0,1-.32,1h.34c.05.15.17.43,0,.43.38.45.08-.15.38.09,0,.78.74,1.95.27,2.22.27.22.07-.74.34,0-.48.3.25.9,0,1.6-.28-.19-.17-.82-.38-.15.5.39-.1,1.29-.07,1.82.18,0,.17.34.11.76s-.22.93-.3,1.4c0-.05-.25.35-.49.85a8.92,8.92,0,0,1-.92,1.38l0,0c.24.34-.33,1.06-.7,1.6-.15-.16-.13-.29,0-.64a6,6,0,0,1-.38.47,1.27,1.27,0,0,1-.33.68l-.09-.3c-.27.29-.52.61-.81.94a3.25,3.25,0,0,1-1.16.81c.07.26,1.13.15.22.91-.11-.1-.26-.29,0-.49A1.07,1.07,0,0,1,81,40l.27-.43c-.46.15-.11.31-.47.47-.08-.18-.32,0-.34-.17s.34-.06.43-.21a2.22,2.22,0,0,1-1.13.22c.08.09.11.25-.18.38-.76.29-.34-.13-.81-.06-.14.18-.67.17-.62.46-.23.06-.3-.07-.4-.12a6.92,6.92,0,0,1-1,.27c-.36.06-.63.12-.38.27h.11l-.07,0h0a4.47,4.47,0,0,1-2.15,0c-.36-.08-.71-.18-1.05-.27l-1.11-.31v-.1a15.06,15.06,0,0,1-1.79-.64s0,.06,0,.13v.56a4.46,4.46,0,0,0,0,.65c0,.27-.26.59-.35.41,0,.23,0,.39,0,.56l0,.33a3.58,3.58,0,0,1-.28.88c0-.66-.19.17,0-.67-.24.79-.49.89-.5,1.81-.07-.18-.19-.06-.3.15a2.41,2.41,0,0,0-.3.69l.39-.45A9.33,9.33,0,0,1,68.4,46l-.22-.34a4.57,4.57,0,0,0-.6,1c-.14.35-.27.69-.41,1a2.33,2.33,0,0,1-1.25,1.5c-.1.49.69-.59.65-.11-.5.59-1.42.81-1.58,1-.85.58-.38,1-1.31,1.62.18,0,.49.18-.14.76-.67.42-1,.13-.71-.22.14-.12.24-.14.25-.1.18-.18.42-.4.09-.34v.16c-.36.14-1.25.67-1.14.37-.43.38-.12.29.28.14a8.46,8.46,0,0,0-1.12.53,7.79,7.79,0,0,1-1.17.49c.17,0,.36.06.21.13-1.43.37-.53.43-1.47.82-.61,0,.08-.47-.86-.08-.63,0-.2-.28,0-.43-.82.48-1.67.14-2.16.19l.45-.16a2,2,0,0,1-.73.13l.29.23c-.28,0-.51,0-.52-.12-.27.17.25.38-.31.62-.38-.08-1.17.15-1.28-.17,1.17.14-.12-.31.86-.36a1.47,1.47,0,0,1-.69,0s0-.07.11-.08c-1.08-.32-.52.34-1.68.22.17-.15-.22-.36-.41-.36.46.08.18.33-.27.39-.71-.26-.82-.08-1.2-.18l.42.18c-.19.12-.56,0-1.09-.08,0-.14.49.06.33-.06a1.38,1.38,0,0,1-.94-.31,2.55,2.55,0,0,0-1-.52c-.29-.27.1-.32-.16-.53a1.35,1.35,0,0,1-.83-.43,2.16,2.16,0,0,0-.81-.53c.1.35.18.33-.51.16a14.27,14.27,0,0,0,1.43.66c-.34-.06-.7-.11-1-.2.41.26,1,.37,1.18.54-.51,0-.44-.09-.33.2-.41-.62-1.26-.47-1.77-1.11l.35-.47c-.73-.85-1.77-1-2.68-2.16l.24.42c-.29,0-.65-.64-1-1,.18-.09,0-.37,0-.6,0,.29-1-1.54-1.28-1.22l-.47-1.26a3.2,3.2,0,0,0-.26-.44c-1,1.33-1.1,2.39-2,3.13a.24.24,0,0,0-.09-.29c0-.09-.13-.08.29-.65A3.34,3.34,0,0,1,38,48l-.18.19c-.08.1-.12.18-.08.23-.24.06-.6.9-1,1-.07.17,0,.36-.36.61-.06,0,0-.09,0-.09s-.49.5,0,.47a7.33,7.33,0,0,0-2.1.87,3.56,3.56,0,0,1-2,.53,9.91,9.91,0,0,1-2.53.61c0-.06,0-.1.14-.09a.93.93,0,0,0-.85.25,1,1,0,0,1-1,.16c-.61-.35.64-.14.26-.28-.08-.33-.42-.32-.86-.29A2.27,2.27,0,0,1,26,51.9h.19c-.54-.32-1.48-.06-2.42-.43,0,0,.06,0,0-.09A6.1,6.1,0,0,1,21,50.53c.39-.05.44.12.42-.2-.38-.2-.1.43-.89,0-.17-.27-.59-.76-.48-1l.65.47c-.11-.54-.85-.59-1.12-.95l.15-.08a7.17,7.17,0,0,0-1.07-.69,2.84,2.84,0,0,1-1-.9v.19c-.78-.35-.22-.61-.86-1.07l.21-.4a9.38,9.38,0,0,1-1.58-2.09,4.16,4.16,0,0,1,.74.8c.26.31.54.62.75.85-.11-.21-.31-.55-.51-.86a2.12,2.12,0,0,0-.51-.7,1.25,1.25,0,0,1,.32.54,3.14,3.14,0,0,1-.72-.8,4.59,4.59,0,0,1-.52-1.27c.19,0,.25-.23.22-.59a5.71,5.71,0,0,0-.08-.63c0-.11,0-.27-.1-.34l-.37-.06c-.49-.07-1.08-.14-1.52-.24a1.5,1.5,0,0,1-.72-.43C10.67,40,9.29,39,7.73,37.93c.23.87-.47-.29-.73.25-.38-.26-.51-.38-.52-.44a12.71,12.71,0,0,1-.76-1.2c-.11-.34.4.2.46.07-.65-.7-.11-.45-.4-1-.07.24-.46,0-.73-.51.07.26.18.51.27.77a1.43,1.43,0,0,1-.7-1.05A2,2,0,0,0,4,33.68L4.4,34c-.49-.52-1.15-2.21-1.79-2.73,0-.14.13-.34.28-.07-.22-.79-.53-1.66-.74-2.53A9.94,9.94,0,0,1,2,27.35a3.82,3.82,0,0,1,.12-1.11l.15.14c0-.31-.27-.57-.05-.94.06,0,.13.14.16,0a2.36,2.36,0,0,1,0-1.25l.08.38c.55-1.51.3-2.51.85-3.84.4.22,1.13-.84,1.6-1.27l0,.06a20.89,20.89,0,0,1,3.26-3.74A18.7,18.7,0,0,0,10.6,15a9.08,9.08,0,0,1,1.46-.43,5.4,5.4,0,0,1,1.41-.16c-.28,0,0-.34.3-.44s1.13-.37,1.08,0H14.7c.33.37,1.15.24,1.8.32l.16-.51a4.75,4.75,0,0,0,1.11.43l2.21.58c.22-.53.41-1.08.59-1.58l.26-.69.18-.39a1.88,1.88,0,0,1,.82-1c.11-.43.38-.89.53-1.3l.22.18a13.33,13.33,0,0,1,1-1.13c.3-.37.64-.73,1.12-1.27l-.06.35c.56-.56.19-1.29.76-1.83l.45.18C26.93,5.35,28.35,5,29.45,4c0,.07,0,.19-.18.31.6-.32,2.48-.69,2.08-1.15.13.36,1.42-.39,2.18-.67l-.07.3A2.51,2.51,0,0,1,35,2c.23,0,.22.2-.08.16.74.06.56-.3,1.46-.2L36,2.19a1.67,1.67,0,0,0,1.12-.29c.49-.11,1.45.16,1.53.43a1,1,0,0,1,1-.15c0,.11-.13.14-.21.15a6,6,0,0,0,1.5.25,2.14,2.14,0,0,1,1.19.35.19.19,0,0,0,.08.2c-.94-.33-1.73-.5-1.65-.5,0,.25.7.47,0,.67a4.71,4.71,0,0,1,2.52.28.45.45,0,0,1,.06.12h-.09a1.47,1.47,0,0,0,.47.14,3,3,0,0,0,.56.34c0,.22.75.52,1.09.72.11-.27.55,0,.23-.41,0,0-.08,0-.32-.12a.44.44,0,0,0-.17-.06h0c-.23-.12-.54-.28-.9-.43a1.23,1.23,0,0,1,1,.4,5.34,5.34,0,0,1,.72-.12c.29.63,1,1.39,1,1.68,1.09.58,2.25,1.75,3.15,2,.3.22.15.41.18.56-.17-.12-.32-.31-.46-.33a9.08,9.08,0,0,1,.95.93c.3.34.58.61.79.58a1.28,1.28,0,0,1,.08.23c0,.05,0,.12,0,.13s-.1,0-.15,0-.08,0-.06,0,.15.26.41.63l-.21-.12a9.62,9.62,0,0,0,.68,1.32c.37-.13.75-.28,1.11-.44s.75-.31.89-.39c.39-.19.78-.39,1.2-.55a4,4,0,0,1,3-.1c-.18-.05-.27-.08-.31-.14a20.79,20.79,0,0,1,4.48,1,7.91,7.91,0,0,1,3.66,2.67c.5.67.74.57,1.2.87l-.12.33a8.24,8.24,0,0,1,.8.5,2.9,2.9,0,0,1,.71,1.63,4.92,4.92,0,0,0,.22.9,3.78,3.78,0,0,0,.19.51c.12.24.23.51.37.75l.09-.42c.12.43.3,1.14.46,1.56.35-.17.59-.25.51-.1.09-.09.29-.38.54-.37v.17c.32-.2.62-.36.9-.51l.63-.34c1.09-.13,0,.61,1.5.37.53-.15,1.59-.56,1.38-.66s-.62-.08-.64-.24l.55-.1c.08-.45.59-1-.95-1.22-.34.12-.68.26-1,.41l-.37-.16.87-.16a1.27,1.27,0,0,0-1.14.31.67.67,0,0,0-.49-.14,5.27,5.27,0,0,0-.8.71c-.06-.17,0-.38-.17-.43a.42.42,0,0,0,0,.3c0,.09.08.16-.1.31-.21-.14,0-.4-.32-.08a1.06,1.06,0,0,1,.19-.35.71.71,0,0,1-.15.15c-.07,0-.1-.2-.27-.14.06-.23.05-.18-.11-.65s-.23-.62,0-.69a6.17,6.17,0,0,1-1-1.08c.44.25.23-.14,0-.61s-.62-1-.32-1c-.76-.25-1.65-1.74-2.74-2.26.07,0,.21,0,.27.13-.45-.47-.52-.67-.81-1-.29.24-1.17-.23-1.74-.29-.5-.7.64-.17.61-.59-.12.26-1.38-.38-1.26,0-.43-.49-.42-.31-.58-.74-.28.43-.55-.17-1.13,0-.76-.48-.08-.53-1.06-.62C60.54,8.46,61.44,8.47,61.44,8.49ZM43.52,1.89h0L44,2Zm-1.75-.58c.21.08.48.16.76.25,0,.11-.06.18-.24.12C42.41,1.65,42,1.47,41.77,1.31Zm2.74,3.15c-.25-.09-.31-.16-.32-.23l.43.17h0A.35.35,0,0,1,44.51,4.46Z"/><path class="b" d="M45.1,4.37l.11,0-.11-.13L45,4.3Z"/><path class="b" d="M76.37,41.09h0l.08,0Z"/><polygon class="b" points="19.47 10.12 19.53 10.15 19.56 9.98 19.47 10.12"/><path class="b" d="M85.16,37.34a.29.29,0,0,0,.14-.07A.43.43,0,0,0,85.16,37.34Z"/><path class="b" d="M87.2,33.44l.26-.59A5.73,5.73,0,0,0,87.2,33.44Z"/><path class="b" d="M87.83,30.07A.24.24,0,0,0,87.7,30h0Z"/><path class="b" d="M50.11,56.05,50,56C49.66,56,49.88,56,50.11,56.05Z"/><path class="b" d="M65,52a3.3,3.3,0,0,1-.3.43C65,52.25,65.14,52.11,65,52Z"/><polygon class="b" points="38.3 50.96 38.3 50.96 38.21 51.03 38.3 50.96"/><path class="b" d="M64.14,52.85a1.67,1.67,0,0,0,.6-.44A3.7,3.7,0,0,0,64.14,52.85Z"/><path class="b" d="M79.79,18.45l-.15-.07a.08.08,0,0,1,0,0Z"/><path class="b" d="M79.6,18.42l-.18,0C79.5,18.41,79.57,18.44,79.6,18.42Z"/><path class="b" d="M79,18.34l.4,0A.52.52,0,0,0,79,18.34Z"/><path class="b" d="M83.66,20.88l.1,0A.14.14,0,0,0,83.66,20.88Z"/><path class="b" d="M84.67,21.84a6.09,6.09,0,0,1-.33-.52,1.83,1.83,0,0,0-.49-.51l-.09,0C84,20.87,84.35,21.71,84.67,21.84Z"/><path class="b" d="M86.21,27.22a7.33,7.33,0,0,0-.24-1c0,.21-.1.48-.28,0C85.81,27.57,85.86,25.89,86.21,27.22Z"/><path class="b" d="M86.42,30.42c0-.55-.16,0-.22,0C86.28,30.74,86.3,30.83,86.42,30.42Z"/><path class="b" d="M69.77,41.84l-.23-.18C69.45,42.39,69.65,41.69,69.77,41.84Z"/><path class="b" d="M69.5,46.79a2.19,2.19,0,0,0,.34-.34l-.12-.3C69.65,46.36,69.59,46.59,69.5,46.79Z"/><path class="b" d="M66.53,48.16,66.6,48a4.59,4.59,0,0,1-.35.61Z"/><path class="b" d="M32.92,51.19l.23.26C33.4,51.29,33.33,51,32.92,51.19Z"/><path class="b" d="M17.84,47.18a1.09,1.09,0,0,0-.49-.81A3.77,3.77,0,0,0,17.84,47.18Z"/><path class="b" d="M17.42,14.26l-.34.05.62,0Z"/></svg>