<svg xmlns="http://www.w3.org/2000/svg" viewBox="0 0 113.1 68.21"><defs><style>.a{fill:#fff;}.b{fill:#4a4a4a;}</style></defs><title>資產 3</title><path class="a" d="M112,33.17a15,15,0,0,0-21.68-13.5A15,15,0,0,0,67,8.92,15,15,0,0,0,39.9,10.39a15,15,0,0,0-20.78,9.27,15.81,15.81,0,0,0-2.6-.23,15,15,0,0,0,0,30.08,16.68,16.68,0,0,0,2-.13,15,15,0,0,0,25.69,9.39,15,15,0,0,0,27.18-.39,16,16,0,0,0,27.49-10.3A15,15,0,0,0,112,33.17Z"/><path class="b" d="M112.66,33.17c-.09-.16-.28-.08-.26.37l.31.33Z"/><path class="b" d="M111.76,36.08c0,.53.17,1.2.54.94-.2-.59,0-.69-.3-1.31,0-.44.21-.75.33-.66,0-.16.15-.68-.06-.94a3.84,3.84,0,0,0-.31,2C111.86,36.3,111.81,36.13,111.76,36.08Z"/><path class="b" d="M83.41,62.76l.27,0A1.06,1.06,0,0,0,83.41,62.76Z"/><path class="b" d="M61.68,66c.18,0,.25-.11.25-.14C61.77,65.89,61.63,66,61.68,66Z"/><path class="b" d="M57.43,66.15l.25,0A.46.46,0,0,0,57.43,66.15Z"/><path class="b" d="M83.41,62.76c-.23,0-.45,0-.68-.09C82.68,62.79,83.08,62.76,83.41,62.76Z"/><path class="b" d="M110.19,41.93a2.12,2.12,0,0,0,.15-.38l-.18.33Z"/><path class="b" d="M93.41,58.32s.09-.1.14-.15a1.49,1.49,0,0,0,0-.21Z"/><path class="b" d="M97.63,51.08c-.07.18.18.32.28.42a.62.62,0,0,1-.06-.45A.31.31,0,0,0,97.63,51.08Z"/><path class="b" d="M108.06,42.86l.13-.22Z"/><path class="b" d="M88.26,61.47a.19.19,0,0,0-.11-.07S88.2,61.45,88.26,61.47Z"/><path class="b" d="M109.6,22.79l0,0S109.64,22.85,109.6,22.79Z"/><path class="b" d="M111.92,33.17l0-.15a.39.39,0,0,0-.15,0Z"/><path class="b" d="M50.37,63.66l0,0C50.58,63.75,50.48,63.7,50.37,63.66Z"/><path class="b" d="M4.27,28c-.27.3-.22,0-.15-.32s.11-.52-.33-.06C3.93,27.53,3.7,28.77,4.27,28Z"/><path class="b" d="M110,42.11l-.21.32A1.85,1.85,0,0,0,110,42.11Z"/><path class="b" d="M3.79,27.57h0l-.08.11Z"/><path class="b" d="M34.58,62a.43.43,0,0,0,.19.11S34.72,62.05,34.58,62Z"/><path class="b" d="M46.67,61.1c-.06-.1-.13-.18-.18-.28A1.23,1.23,0,0,0,46.67,61.1Z"/><path class="b" d="M27.84,61.25A1.29,1.29,0,0,0,27.4,61a.34.34,0,0,0,.06.06A.73.73,0,0,1,27.84,61.25Z"/><path class="b" d="M22.21,56.84l0,.13.16.17Z"/><path class="b" d="M90.78,16.34a1,1,0,0,1-.12.43C90.8,16.6,91.21,17.74,90.78,16.34Z"/><path class="b" d="M110.06,41.84a.31.31,0,0,1,0,.27l.14-.23S110.11,41.81,110.06,41.84Z"/><path class="b" d="M26.64,63.14a10.05,10.05,0,0,1-1.16-.64A6.86,6.86,0,0,0,26.64,63.14Z"/><path class="b" d="M43,4.09l.21-.22A.85.85,0,0,0,43,4.09Z"/><path class="b" d="M22.28,60.22a3,3,0,0,0-.38-.67l-.16-.06Z"/><path class="b" d="M90.65,16.78h0Z"/><path class="b" d="M95.22,16.62c-1.27.15-.55.44-.78.68-1.43.36-.72-.14-1.27-.22a5.88,5.88,0,0,0-1.15.58c-.44.24-.38.32-.52.36s0-.07,0-.17a1,1,0,0,1-.37.32c0-.1-.07-.28-.12-.41a.54.54,0,0,0-.05-.11.69.69,0,0,1-.07-.15A3.14,3.14,0,0,0,90.6,17a.38.38,0,0,1,.05-.17.54.54,0,0,1-.44.31c-.14-.52-.54-.86-.37-1.13.1.31.2.3.33.42l-.29-.49c.15-.61.37.68.62.6-.47-1-1.24-2.08-1.6-2.84.1-.16.39.25.57.58s.32.56.21,0c.14.43.31.84.43,1.27,0-.57.12-.39.2-.19s.15.42.25-.13a6.85,6.85,0,0,0-.87-1.7c-.29-.41-.55-.84-1-1.58-.38-.22-.15.27-.53.05a4.09,4.09,0,0,1-1.21-1.78,1.76,1.76,0,0,0-1.12-1.25A2.51,2.51,0,0,1,84,8.07L84.53,8a2,2,0,0,0-1.27-.53c-.29,0-.52-.12-1.28-.58.36,0,1.25.49,1,.33-.89-.83-.84-.17-1.63-.54l0-.39a16.36,16.36,0,0,0-5.77-.77c.11-.09.46-.18,0-.31A22.76,22.76,0,0,0,67.81,6.8a.23.23,0,0,0-.1.13l0,.11c0,.08-.07.16-.1.23s-.09-.1,0-.19c-.14,0,0,.23-.14.44l-.07,0a.35.35,0,0,1,.06-.37c-.07,0-.16,0-.32-.17-.36-.43-.78-.87-1.19-1.31C65,4.83,64.12,4,63.51,3.38l.33.14a2.51,2.51,0,0,0-1.31-.67,2.6,2.6,0,0,1-1.23-.61l.24.07A13.94,13.94,0,0,0,57.34.66C55.9.32,54.52.19,53.37,0c-.21.22-.95.19-1.66.27S50.33.48,50.3.78c-.85.07-1.18,0-1.57.09a8.1,8.1,0,0,0-2,.55c-.6.29-.71.75-1.34,1.24l-.18-.26a10.11,10.11,0,0,0-.71.88l-.69.05c-.19.17-.36.36-.53.54.24-.18.57-.3.59-.2A9.16,9.16,0,0,1,41.48,5.4,16.23,16.23,0,0,0,40,7.8c-.07-.12.14-.53.28-.89-.53,1.43-.46,0-.89,1.39.15-.13.11.17.15.23a.71.71,0,0,0-.3.25.49.49,0,0,0-.17-.06L39,8.7H39l-.19,0A1.59,1.59,0,0,0,39,8.5a15.59,15.59,0,0,0-6.65-.8c.85.06.66.44,0,.5l-.29-.31c-.42.25.7.05-.16.39-.84.07-.62-.29-.13-.46l-1,.25c-.08-.09.16-.18.2-.31-.38.25-1.89,0-2.4.59l-.09-.07a12.75,12.75,0,0,0-2.6,1.14,23.28,23.28,0,0,0-2.08,1.38c.13.24-.48.66-.76,1.19a12.56,12.56,0,0,0-3.19,3.26c-.51,1.06,0,.41-.1.95-.27-.06-1,1.42-.79.58-.23.5-.4.94-.54,1.29a3.34,3.34,0,0,1-.08.35l-.26,0-.1,0H17.7c-.23,0-.47,0-.74,0,.27.11.56.18.4.25-.44,0-1-.13-.95-.24l.12,0c-1.4.24-3,.2-4.57.5a7.48,7.48,0,0,0-3.85,1.66l.09-.09a16.35,16.35,0,0,0-1.76,1.56c-.85.65.38-.56-.34-.18-.4.52-.8.91-1.15,1.31s-.68.74-1,1.1-.59.72-.87,1.1a9,9,0,0,0-.68,1.31,4.06,4.06,0,0,0-1,1.32,10.83,10.83,0,0,0-.7,2C.3,31.58.28,33.16,0,34.27l.18-.13c.14.57-.08.69-.12,1.11.14-.06.13-.62.25-.27a20.34,20.34,0,0,0,1.78,7.08,16.15,16.15,0,0,0,4.65,5.88,1.89,1.89,0,0,0,1.46.5c.36,0,.72.08,1.65.75H9.13a22.39,22.39,0,0,0,5.35,1.44,12.63,12.63,0,0,0,1.38.12l.67,0,.29,0,.6-.08c.11,0,.09.14.17.24-.08,0-.18,0-.18,0a.33.33,0,0,0-.08.16,1.47,1.47,0,0,0,.07.33l.13.45c.16.58.42,1,.52,1,.15.53-.13.17-.12.53.08.79,1,1.65.93,2.11,0,.08-.17-.15-.23-.28.29.41,1.08,2,1.08,1.49a18.9,18.9,0,0,0,2.19,2.86c.66.3,1.59,1.65,2,1.43-.17.15.25.56.83,1a6,6,0,0,0,1.78.78c-.32,0,.6.43.22.47.88.43,1.78.56,1.68.31a2.92,2.92,0,0,0,1.22.52,4.59,4.59,0,0,0,1.25.15,8.9,8.9,0,0,1,1.1.09,1.56,1.56,0,0,1,.86.3,17.44,17.44,0,0,0,7.66-2.12c.06.22-.57.54-1.2.8s-1.26.46-1.14.67A13.4,13.4,0,0,0,41,62.42l1.19-.83,1.25-.9c.12-.06.1,0,.08.1s-.25.34-.29.41a3.91,3.91,0,0,0,.48-.47l.27-.27a2.25,2.25,0,0,1,.16.31l.26.4c.22.29.44.58.67.86s.49.51.75.76c0,0-.22-.13-.39-.27.28.32.61.78.73.6l-.33-.26c-.23-.66,1.59.76,1.77.65-.45,0-.11.37.22.7s.61.65-.06.59c.24.15.57.29.6.13.31.27.38.41-.06.3,1.32.76,1,.27,2.16.94,0,.09-.32,0-.49,0a10.72,10.72,0,0,1,2.42.77c-.08,0,0,.16-.3,0,1.88.65,3.32.44,5.4.71-.64.42.72.16.85.5a11.05,11.05,0,0,0,1.15-.2L59,67.88c1-.09,1.85-.49,2.7-.6-.23.11-.45.23-.69.32a13.94,13.94,0,0,0,1.8-.57,7.55,7.55,0,0,1-1.06.17c.92-.45-.22-.39,1.05-.7-.12,0,.11,0,.44-.11a3.73,3.73,0,0,1,1-.24h0a5.7,5.7,0,0,1,1.44-1c.23,0,.08.43.23.43.28-.47,1.9-1.41,2.12-2.09-.1.19,0,.35.1.33l.12-.47c.39-.25.47-.27.53-.11,1-1-.64,0,.63-1.06-.08.11,0,.09-.16.31a9.06,9.06,0,0,0,1.45-1.92c.32-.55.56-1.08.81-1.46a.15.15,0,0,1,0,.1c0,.05,0,.08,0,.09,0,.3-.32.67-.09.77l.16-.4c.34.26.55.35,1.56,1,.84.51,1.69,1,2.5,1.4l-.33-.22c.48-.33,1.3.94,2.43,1-.26,0-.42.16-.34.13a11.86,11.86,0,0,0,5.13.61l-.28.13a7.18,7.18,0,0,0,1.57.05,14.78,14.78,0,0,0,1.62-.13c.25-.17.78-.23.43-.37a6.75,6.75,0,0,0,3.92-1.1,35.22,35.22,0,0,1,3.33-2c-.24.18-.52.52-.32.38a15.91,15.91,0,0,0,1.58-1.49c-.27,0-.31.09-.76.26a2.17,2.17,0,0,1,.33-.52,5.8,5.8,0,0,1,.49-.62c-.54.79.27.26.66,0-.1,0-.06-.15-.14-.17,1-.57-.22-.44.93-1.43l0,.13a11.29,11.29,0,0,1,.78-1.5c.36-.07-.22.57-.06.72a3.68,3.68,0,0,0,.45-1.21,2.55,2.55,0,0,1,.52-1.07A10.44,10.44,0,0,1,97.25,55a2.85,2.85,0,0,0,1-1.3l0,0a12.74,12.74,0,0,0,.65-1.34l-.19.34A3.29,3.29,0,0,1,98.74,51a4.34,4.34,0,0,0,.12-1.92c.28,1.39.23.26.51.47.11-.25.23-.54.3-.38a.94.94,0,0,1,0-.35c0-.06,0-.06.09-.06h.15a.92.92,0,0,0,.29,0,1.34,1.34,0,0,0,.37-.22c.06.08.73-.19.64.09.87-.32-.26-.11-.21-.25a16.24,16.24,0,0,1,2.3-.77,10.31,10.31,0,0,0,1.3-.55,5.22,5.22,0,0,0,1.19-.91A6.41,6.41,0,0,0,107,44.71c.29-.4.54-.83,1-1.44.48-.27,0,.55,0,.55a3.94,3.94,0,0,0,.86-.81,5.11,5.11,0,0,0,.62-1c0,.19.13.09.36-.06.34-.57,0-.53.52-1.21a1.77,1.77,0,0,1,0,.77,14.67,14.67,0,0,0,.77-2.26c.25-.13,0,.55,0,.86.14-.44.37-1,.49-1.49a2.49,2.49,0,0,0,.07-1.11l-.28.52c.1-.31.28-.09.25.16,0,.81-.5,1-.6,1l.17-.54c-.39.16-.57.68-.76,1.28a7.21,7.21,0,0,1-.77,1.76l-.09-.62-.36,1.15c-.24.12-.51.12-.24-.36-.64.5-.32.64-.92,1-.08,0-.07,0,0-.07-.13.22-.29.43-.44.64,0-.17-.29-.11.07-.41a8.83,8.83,0,0,0-1.19,1.18c-.28.35-.51.61-.82.63l.07-.09c-1.47,1.21.07.39-1,1.46a9.53,9.53,0,0,1-1.21-.18l0,.35c-.18.08-.54.23-.52.08-.58.51.16.07-.14.44-1,.12-2.46,1-2.84.52-.28.3,1,0,0,.35-.24-.23-.6-.14-1,0l-.28.1c-.07,0,0,.08,0,.14v.18a2.09,2.09,0,0,1-.12.67c-.23-.41,0-1.38-.32-.44a1.62,1.62,0,0,1,.11.68,2,2,0,0,1-.15.7,5.12,5.12,0,0,0-.39,1.21c.33.12-.27,1.56-.68,2.71a5.26,5.26,0,0,0-.71,1,11.29,11.29,0,0,1-.66.93,6.06,6.06,0,0,1-.66.77l0-.06c.08.19-.07.51-.31.87s-.6.7-.86,1c-.14-.18-.09-.35.15-.74l-.54.56c0,.23-.19.42-.55.8l0-.34c-.38.35-.73.75-1.17,1.11a4.84,4.84,0,0,1-1.56,1c0,.27,1.32.07.1,1-.12-.11-.26-.27,0-.52a1.34,1.34,0,0,1-.6.36,6.2,6.2,0,0,0,.42-.46c-.61.19-.21.32-.67.51-.08-.18-.4,0-.4-.14s.43-.11.57-.26a3.09,3.09,0,0,1-1.44.3c.08.08.09.24-.29.4-1,.36-.4-.08-1,0-.21.2-.88.22-.84.51-.29.08-.38-.07-.51-.12a9.73,9.73,0,0,1-1.36.29c-.48,0-.83.12-.51.27h.14l-.09,0h0c-1.82.42-3.75-.28-5.46-.68l0-.1c-1.06-.19-2.23-.76-3-1-.28-.15-.56-.53-.38-.56a4.43,4.43,0,0,1-1.72-1.16c.75.36-.13-.28.74.4-.19-.18-.35-.31-.48-.45l-.19-.19L73,58.86a9.77,9.77,0,0,0-1.39-1.1c.21,0-.06-.37-.5-.84a9.46,9.46,0,0,0-.63,1.28l.59-.77a14.45,14.45,0,0,1-1.06,2,5.68,5.68,0,0,1,0-.61c-.12.16-.24.34-.36.52s-.23.37-.29.44a4.81,4.81,0,0,0-.4.6c-.26.39-.47.8-.72,1.17a3.43,3.43,0,0,1-1.88,1.63c-.29.54,1-.6.78-.07A7.51,7.51,0,0,1,65,64c-1.21.49-.83,1-2.17,1.48.2,0,.5.3-.49.75-1,.26-1.31-.16-.74-.39.22-.07.34-.07.34,0,.29-.14.66-.32.25-.32l-.08.15c-.49.06-1.77.36-1.51.09-.68.24-.27.25.28.21a19.8,19.8,0,0,1-3.19.23c.2.06.39.19.19.2-1.87-.2-.84.21-2.14.14-.69-.29.32-.37-1-.45-.73-.3-.09-.32.23-.38a5,5,0,0,1-2.57-1l.58.14a4.76,4.76,0,0,1-.88-.31l.22.35c-.31-.16-.58-.3-.53-.39-.39,0,.09.49-.67.35-.37-.32-1.35-.63-1.3-1,1.2.9,0-.33,1.12.27a2.87,2.87,0,0,1-.75-.46c0-.06.07,0,.16,0-1-1-.74,0-1.89-1,.26,0,0-.48-.22-.61.43.39,0,.42-.49.13-.57-.78-.79-.69-1.1-1.09l.32.48c-.25,0-.58-.4-1-.93.07-.13.44.44.34.21-.36-.25-.5-.51-.79-1.21a11.86,11.86,0,0,0-1.05-2.07l0-.15c-.4.21.08-.51-.43-.12a7.32,7.32,0,0,1-1.71,1.57c-.29.19-.39.23-.56.34a3.38,3.38,0,0,0-.56.44c.41,0,.45-.07-.14.59.26-.21.53-.41.78-.63l.37-.34c.17-.15.41-.36.62-.57-.61.69-.77.92-1.07,1.29a6.68,6.68,0,0,0,.73-.64c.33-.3.63-.63.85-.8-.67.88-.56.69-.2.63a3.55,3.55,0,0,0-.7.43c-.17.14-.33.28-.48.43a2.66,2.66,0,0,1-1.15.77l-.27-.52a11.67,11.67,0,0,0-1.8.91,5.85,5.85,0,0,1-2.22.8l.61,0c-.19.29-1.12.3-1.71.45,0-.2-.36-.21-.62-.32,0,.15-1.34.08-1.52.43l-.82-.3c-1.47-.26-1.8.35-3.24-.12.49-.07-.11-.38.87-.29-.47-.1-.86-.28-.91-.16a2.29,2.29,0,0,0-.81-.21,1.71,1.71,0,0,1-.88-.38c-.22,0-.4.18-.87-.12,0-.07.05-.08.05-.08s-.82-.32-.51.11a8.94,8.94,0,0,0-1-1c-.4-.29-.8-.63-1.2-1A5.06,5.06,0,0,1,22.25,57a14.85,14.85,0,0,1-1.05-1.34,14.13,14.13,0,0,1-.8-1.42c.08,0,.09,0,.15.14-.36-1.3-.89-.54-1.18-2.1.08-.84.41.73.39.23.27-.2.11-.61-.05-1.15l-.14-.41-.07-.22c0-.08,0-.22-.05-.33A6.55,6.55,0,0,1,19.39,49l.08.38a5.28,5.28,0,0,0,0-.56l0-.28c0-.1,0-.23-.13-.17-.36,0-.77.1-1.18.17l-1.26.21-.32,0h-.23l-.47,0s.06-.06,0-.1A8,8,0,0,1,12,48.51c.45-.13.58,0,.43-.29-.55-.11,0,.47-1.06.16-.15-.13-.4-.29-.61-.46s-.37-.38-.36-.53a6.66,6.66,0,0,0,1,.39C11,47.3,10.17,47.24,9.7,47l.13-.1c-1.35-.76-1.62-.43-2.93-1.57l.06.2c-1-.36-.46-.67-1.3-1.17l.1-.48a11.26,11.26,0,0,1-2.25-2.45,8.45,8.45,0,0,1,1,1c.34.37.75.72,1,1-.17-.24-.5-.64-.79-1A3.4,3.4,0,0,0,4,41.49a2,2,0,0,1,.48.64,5.13,5.13,0,0,1-1.74-2.46c.42,0,.12-.78,0-1.7a6,6,0,0,1-.21-1.38,1.72,1.72,0,0,1,.15-1c-.43-2.1.24-4.19,1.09-6.43-.42.3-.37.13-.28-.13s.26-.58-.05-.64a2.64,2.64,0,0,1,.38-.78c.44-.44.8-.91,1.26-1.29.4-.22-.22.5-.06.55.76-1,.52-.27,1.12-.81-.28,0,0-.53.57-1l-.88.54A2.29,2.29,0,0,1,7,24.47a3.25,3.25,0,0,0,1.3-1L8,24a11.53,11.53,0,0,1,1.64-1.25c.32-.25.67-.45,1-.66a4.29,4.29,0,0,0,.72-.61c.17,0,.43.1.08.27.51-.15,1-.41,1.56-.57l.81-.28.84-.2a6.71,6.71,0,0,1,3.05-.14l-.18.14a1.35,1.35,0,0,0,.29,0l.47,0a3.38,3.38,0,0,1,1.15.19c0,.06-.23.11.13.18l.43,0c.08-.33.19-.77.31-1.23a3.89,3.89,0,0,1,.37-1l0,.26-.07.44a9.41,9.41,0,0,1,.4-.89c.1-.22.17-.44.25-.63.18-.39.3-.77.44-1.13a7.87,7.87,0,0,1,1.12-2.14c.33.27,1.53-.85,2.23-1.26l0,.07a29.6,29.6,0,0,1,2.61-1.87,11.23,11.23,0,0,1,2.85-1.36c.74.06,1.91-.05,3.2,0a10.07,10.07,0,0,1,3.7.69c-.3-.17.15-.32.55-.24a3.09,3.09,0,0,0,.48.17l.76.23c.45.16.78.31.78.53l-.32-.15a4.35,4.35,0,0,0,1,.7,14.69,14.69,0,0,0,.78-1.51c.13-.28.26-.6.42-.87l.22-.4L41.57,9C42.48,8.17,43.28,7,44.21,6A4.83,4.83,0,0,1,46.8,4.28a14.67,14.67,0,0,1,1.43-1l.08.27a21.06,21.06,0,0,1,3.87-1l-.34.24c1-.1,1.21-.94,2.21-1l.28.43c1.84,0,3.49.84,5.25,1.22-.06,0-.15.13-.42,0,.38.17,1.08.59,1.65.93s1,.58,1.08.26c-.1.17.28.44.76.76s1.09.73,1.49,1l-.3.07a3.45,3.45,0,0,1,1.71,1.22c.14.26,0,.33-.19,0a2,2,0,0,0,.33.51,3.28,3.28,0,0,0,.32.37,3.83,3.83,0,0,1,.76,1.13l.07,0-.08.08a3.63,3.63,0,0,1-.34-.27c.12.21.23.4.29.49a6,6,0,0,0,1.34-1.19,4.61,4.61,0,0,1,.59-.37,4.19,4.19,0,0,1,.59-.22,1.24,1.24,0,0,1,.86,0,1.45,1.45,0,0,1,1.06-.68c.1.07-.09.19-.17.25,1.56-.28,2.27-.88,3.41-.71a.24.24,0,0,0,.2.16c-1.27,0-2.27.29-2.18.24.06.24,1,.12.33.6a5.76,5.76,0,0,1,3.08-.72.38.38,0,0,1,.13.09l-.11,0a1.88,1.88,0,0,0,.63,0c.31,0,.5.13.79.17,0,.12.32.18.65.23l.94.21c0-.28.66-.09.11-.45.08,0-.1,0-.43-.06a.94.94,0,0,0-.22,0l0,0a11.65,11.65,0,0,0-1.25-.19,1.87,1.87,0,0,1,1.39.13c.29-.11.63-.22.81-.27a10.34,10.34,0,0,0,1.12.87,2.08,2.08,0,0,1,.7.7c1.49.46,3.13,1.74,4.19,2.06.37.27.27.47.33.64a4.4,4.4,0,0,0-.59-.4c.77.49,1.8,1.9,2.2,1.88.51,1-.63-.33.28.92l-.2-.12a23.69,23.69,0,0,0,1.46,2.94,5.64,5.64,0,0,1,.36.69l.16.36c0,.12.1.23.17.44A17.09,17.09,0,0,1,90,20.31a9,9,0,0,1,2.29-.75c-.33.06-.49.11-.56.07.16-.05.31-.11.48-.15l.36-.1.72-.17c.48-.12,1-.21,1.45-.29a14,14,0,0,1,3-.2,10.31,10.31,0,0,1,5.59,1.64,4.29,4.29,0,0,0,1.77.66,2.42,2.42,0,0,1,0,.38l1.13.41a4.44,4.44,0,0,1,1.48,1.72l.62,1a8.64,8.64,0,0,0,.88,1.06l0-.33c.4.62,1.23,2,1,2,.06.06.31.13.3.45l-.14.08a13.8,13.8,0,0,1,.82,1.63c.12.7,0,.68-.18.74s-.25.18-.12,1.16c.18.7.59,2.09.7,1.81s.06-.79.22-.83l.11.71c.47.11,1,.74,1.21-1.17a10.56,10.56,0,0,0-.44-1.27l.15-.46.19,1.1a2,2,0,0,0-.34-1.44.94.94,0,0,0,.1-.6,10.65,10.65,0,0,0-.79-1.11c.12-.21.55.43.34-.42-.4-.5-.19.67-.65-.21,0-.66.19-.56-.28-1.15.06-.15.19,0,.37.2a9.11,9.11,0,0,1-.61-1,2.17,2.17,0,0,0-.64-.69c-.08-.73-1.34-1.74-.94-2a8.2,8.2,0,0,1-1.47-1.05c1.19.36-1.64-1.54-1.12-1.74-.9-.18-2.62-1.5-4.09-1.79a.65.65,0,0,1,.38.05,10.55,10.55,0,0,1-1.41-.81c-.22.36-1.46.08-2.17.23-.91-.52.68-.36.44-.76,0,.31-1.79.05-1.48.36-.73-.29-.64-.15-1-.5-.15.49-.72,0-1.35.37C95.16,17,96,16.72,94.74,17,94.14,16.93,95.22,16.62,95.22,16.62Zm-19.64-11h0Zm-2.38.14,1-.1c.09.1,0,.2-.23.22C74.13,5.8,73.57,5.79,73.2,5.76Zm4.67,2c-.34,0-.44-.08-.47-.14l.58,0,0,0A.47.47,0,0,1,77.87,7.79Z"/><path class="b" d="M78.53,7.56h.14l-.18-.11-.14.06Z"/><path class="b" d="M83.73,62.79h0a.23.23,0,0,1,.1,0Z"/><polygon class="b" points="45.12 2.35 45.16 2.4 45.31 2.24 45.12 2.35"/><path class="b" d="M95.15,58.35a.35.35,0,0,0,.17-.07S95.23,58.31,95.15,58.35Z"/><path class="b" d="M98.2,53.7l.39-.7C98.41,53.3,98.29,53.52,98.2,53.7Z"/><path class="b" d="M99.48,49.64a.59.59,0,0,0-.11-.08h0Z"/><path class="b" d="M45.4,62.52l-.12-.13C45,62.12,45.18,62.32,45.4,62.52Z"/><path class="b" d="M64.24,66.15c-.17.13-.35.26-.54.38C64,66.4,64.3,66.3,64.24,66.15Z"/><path class="b" d="M26.77,63.2h0l-.13-.06Z"/><path class="b" d="M62.81,66.86a2.33,2.33,0,0,0,.89-.33A7.34,7.34,0,0,0,62.81,66.86Z"/><path class="b" d="M112,38.45l.08-.2s0,0,0,0Z"/><path class="b" d="M112,38.21l0-.23C112,38.08,112,38.17,112,38.21Z"/><path class="b" d="M112.13,37.49,112,38A.9.9,0,0,0,112.13,37.49Z"/><path class="b" d="M109,43.37l0,.12A.14.14,0,0,0,109,43.37Z"/><path class="b" d="M107.8,44.67A6.81,6.81,0,0,0,109,43.59l0-.1C109,43.82,108,44.27,107.8,44.67Z"/><path class="b" d="M101.14,47.09c.45-.08.87-.25,1.31-.37-.26,0-.6,0,0-.28C100.71,46.71,102.83,46.57,101.14,47.09Z"/><path class="b" d="M98,49.84c.09-.71-.16,0-.21-.07C97.83,50.23,97.84,50.35,98,49.84Z"/><path class="b" d="M74.76,60.28l.2-.18C74.48,59.83,74.9,60.18,74.76,60.28Z"/><path class="b" d="M71,60.59c.11-.07.2-.14.3-.19a2.9,2.9,0,0,1-.07-.34Z"/><polygon class="b" points="67.36 62.12 67.5 61.94 66.91 62.62 67.36 62.12"/><path class="b" d="M23.22,57.65,23.1,58C23.4,58.21,23.71,58,23.22,57.65Z"/><path class="b" d="M7.16,45.28a1.7,1.7,0,0,0-.81-.9A7.32,7.32,0,0,0,7.16,45.28Z"/><path class="b" d="M42.48,8.27l-.14.41a7.8,7.8,0,0,1,.38-.7Z"/></svg>