<svg xmlns="http://www.w3.org/2000/svg" viewBox="0 0 24 24"><defs><style>.a{fill:#303030;}</style></defs><title>dot</title><path class="a" d="M2.9,8.14c-.31,0-1.87.1-2.42,1.13-.71,1.33.48,3.81,2.42,4.2S7,12,6.77,10.4,4.5,8.06,2.9,8.14Z"/><path class="a" d="M15.48,16.21a3.33,3.33,0,0,0-2.26,0,4.63,4.63,0,0,0-2.58,1.13,3.73,3.73,0,0,0-.16,4.84c1.44,1.45,4.26.84,5.49-.81S16.77,16.92,15.48,16.21Z"/><path class="a" d="M23.71,8.63c-.19-1.62-2.14-2.07-2.26-2.1-.93-.2-2.37,0-2.9,1a2.39,2.39,0,0,0,.16,2.1,2.9,2.9,0,0,0,3.23,1.61A2.52,2.52,0,0,0,23.71,8.63Z"/><path class="a" d="M12.09,11.05A1.9,1.9,0,0,0,13.87,13a1.73,1.73,0,0,0,1.77-1,1.68,1.68,0,0,0-.48-1.78A1.81,1.81,0,0,0,14,9.76,1.85,1.85,0,0,0,12.09,11.05Z"/><path class="a" d="M13.92,3.5a2.19,2.19,0,0,0-1.5-2.4,3.14,3.14,0,0,0-1.5,0c-1.31.31-1.47.29-1.79.61-.53.53-.21,2.28.89,3C11.35,5.56,13.6,4.79,13.92,3.5Z"/></svg>