<svg xmlns="http://www.w3.org/2000/svg" viewBox="0 0 70 20"><defs><style>.a{fill:#b82065;}.b{fill:#fff;}.c{fill:#b72065;}</style></defs><title>資產 1</title><rect class="a" width="70" height="20"/><path class="b" d="M18.35,9.1h.8V8.33A1.41,1.41,0,0,1,20.7,6.78l.52.1v.93l-.55-.09c-.32,0-.45.19-.45.51V9.1h1V10h-1v3.87h-1V10h-.83V9.1"/><path class="b" d="M23.86,9a2.52,2.52,0,1,1-2.51,2.51A2.49,2.49,0,0,1,23.86,9m0,4.09a1.45,1.45,0,0,0,1.49-1.58,1.49,1.49,0,1,0-3,0A1.46,1.46,0,0,0,23.86,13.1Z"/><path class="b" d="M29.32,9a2.52,2.52,0,1,1-2.52,2.51A2.49,2.49,0,0,1,29.32,9m0,4.09a1.44,1.44,0,0,0,1.48-1.58,1.49,1.49,0,1,0-3,0A1.47,1.47,0,0,0,29.32,13.1Z"/><path class="b" d="M37.19,13.91h-.94l-.09-.42-.07-.06-.06.06a1.89,1.89,0,0,1-1.32.52,2.45,2.45,0,0,1-2.46-2.52A2.45,2.45,0,0,1,34.71,9,1.84,1.84,0,0,1,36,9.49l.06.07.07-.07V6.81h1v7.1m-2.42-4a1.44,1.44,0,0,0-1.48,1.58,1.44,1.44,0,0,0,1.48,1.58,1.5,1.5,0,0,0,1.48-1.58A1.52,1.52,0,0,0,34.77,9.91Z"/><path class="b" d="M38.22,9.1h.94l.09.42.07.07.06-.07A1.91,1.91,0,0,1,40.71,9a2.44,2.44,0,0,1,2.45,2.51A2.45,2.45,0,0,1,40.71,14a1.84,1.84,0,0,1-1.33-.51l-.06-.07-.07.07v2.58h-1v-7h0m2.39,4a1.44,1.44,0,0,0,1.48-1.58,1.44,1.44,0,0,0-1.48-1.58,1.51,1.51,0,0,0-1.49,1.58A1.53,1.53,0,0,0,40.61,13.1Z"/><path class="b" d="M45.71,10.91h.84v-.23c0-.57-.39-.83-.94-.83a.89.89,0,0,0-.9.64l-.91-.19A1.79,1.79,0,0,1,45.64,9a1.71,1.71,0,0,1,1.94,1.91v3h-.84l-.1-.65a1.67,1.67,0,0,1-1.51.71,1.37,1.37,0,0,1-1.49-1.48c0-.94.81-1.55,2.07-1.55m-.45,2.19a1.21,1.21,0,0,0,.87-.32,1.1,1.1,0,0,0,.38-.9v-.1h-.87c-.61,0-1,.29-1,.74A.57.57,0,0,0,45.26,13.1Z"/><path class="b" d="M48.48,9.1h.94l.09.42.07.07.06-.07A1.41,1.41,0,0,1,50.77,9a1.81,1.81,0,0,1,1.94,1.93v3h-1v-3a1,1,0,0,0-1-1A1.14,1.14,0,0,0,49.51,11v2.9h-1V9.1"/><path class="b" d="M58.23,13.91h-.94l-.1-.42-.06-.06-.07.06a1.88,1.88,0,0,1-1.32.52,2.45,2.45,0,0,1-2.45-2.52A2.45,2.45,0,0,1,55.74,9a1.81,1.81,0,0,1,1.32.52l.07.07.06-.07V6.81h1v7.1m-2.39-4a1.45,1.45,0,0,0-1.49,1.58,1.45,1.45,0,0,0,1.49,1.58,1.5,1.5,0,0,0,1.48-1.58A1.52,1.52,0,0,0,55.84,9.91Z"/><path class="b" d="M61.16,10.91H62v-.23c0-.57-.38-.83-.93-.83a.9.9,0,0,0-.91.64l-.9-.19A1.77,1.77,0,0,1,61.1,9,1.7,1.7,0,0,1,63,10.88v3H62.2l-.1-.65a1.68,1.68,0,0,1-1.52.71,1.37,1.37,0,0,1-1.48-1.48c0-.94.77-1.55,2.06-1.55m-.45,2.19a1.19,1.19,0,0,0,.87-.32,1.1,1.1,0,0,0,.39-.9v-.1H61.1c-.61,0-1,.29-1,.74A.56.56,0,0,0,60.71,13.1Z"/><path class="b" d="M11.14,14.71a4.38,4.38,0,0,1-4.36-4.36,4.54,4.54,0,0,1,.74-2.46A4.19,4.19,0,0,1,9.24,6.41a4.51,4.51,0,0,1,3.8,0,4.72,4.72,0,0,1,1.72,1.48,4.46,4.46,0,0,1,.74,2.46,4.38,4.38,0,0,1-4.36,4.36"/><path class="c" d="M13.65,8.47c-.39-.26-1.23-.39-1.56,0a.66.66,0,0,0,0,.91,3.14,3.14,0,0,1,.81,1.26c.1.39.26.52.55.52a1.35,1.35,0,0,0,1-1.2,1.62,1.62,0,0,0-.78-1.52m-.88.94A.23.23,0,1,1,13,9.18.22.22,0,0,1,12.77,9.41Z"/><path class="c" d="M10.17,8.5c-.32-.42-1.16-.29-1.55,0A1.66,1.66,0,0,0,7.84,10a1.28,1.28,0,0,0,1,1.2c.29,0,.46-.16.55-.52a3.54,3.54,0,0,1,.81-1.26.66.66,0,0,0,0-.91m-.61.91a.23.23,0,0,1,0-.46.23.23,0,0,1,0,.46Z"/><path class="b" d="M8.79,6a1.19,1.19,0,0,0-1,0,1.09,1.09,0,0,0-.46.39,1.21,1.21,0,0,0-.19.65,1.15,1.15,0,0,0,2.3,0,1.22,1.22,0,0,0-.2-.65A1.13,1.13,0,0,0,8.79,6m-.5,1.85a.82.82,0,0,1-.81-.81.81.81,0,0,1,.14-.46.84.84,0,0,1,.32-.27.81.81,0,0,1,.7,0A.84.84,0,0,1,9,6.59a.81.81,0,0,1,.14.46A.82.82,0,0,1,8.29,7.86Z"/><path class="b" d="M15,6.4A1.16,1.16,0,0,0,14.5,6,1.15,1.15,0,0,0,14,5.9a1.22,1.22,0,0,0-.5.11,1.06,1.06,0,0,0-.45.39,1.22,1.22,0,0,0-.2.65,1.15,1.15,0,1,0,2.3,0A1.21,1.21,0,0,0,15,6.4M14,7.86a.81.81,0,0,1-.8-.81.88.88,0,0,1,.13-.46.84.84,0,0,1,.32-.27A.85.85,0,0,1,14,6.24a.86.86,0,0,1,.36.08.89.89,0,0,1,.31.27A.81.81,0,0,1,14,7.86Z"/><path class="c" d="M11.13,12.38a1,1,0,0,0,1.07-.94H10.07a1,1,0,0,0,1.06.94"/><path class="c" d="M11.13,11.17c.07,0,.75-.22.75-.53s-.55-.21-.75-.21-.74,0-.74.21.68.56.74.53"/></svg>