<svg xmlns="http://www.w3.org/2000/svg" viewBox="0 0 497.09 189.21"><defs><style>.a{fill:#ffc700;}.b{fill:#e6e6e6;}</style></defs><title>gold-pot</title><path class="a" d="M496.32,6.75c0,1.52,0,3.13.15,4.78-.07.71-.16,0-.22-.14.16,2.25.44,4.85.75,3.39-.32-2.23-.19-2.77-.57-5.17,0-1.92.11-3.34.23-3,0-.26,0-.51,0-.77a4.92,4.92,0,0,0-.12-1.21,3.26,3.26,0,0,0-1.35-1.9,4.29,4.29,0,0,1,1,1.82A7.72,7.72,0,0,1,496.32,6.75Z"/><path class="a" d="M486.52,30.3c.65,0,1.19-.05,1.68-.09h-1.58A.43.43,0,0,1,486.52,30.3Z"/><path class="a" d="M445.7.28h0C445.93.3,446,.28,445.7.28Z"/><path class="a" d="M343.5.41a11.54,11.54,0,0,1,1.56.26C344.54.46,349.48.39,343.5.41Z"/><path class="a" d="M486.5,30.14a3.38,3.38,0,0,1-1,.12h1.12C486.72,30.2,486.74,30.16,486.5,30.14Z"/><path class="b" d="M103.48.42c-.41,0-.81,0-1.22,0Z"/><path class="b" d="M155.78,189.2c-1-.1-2-.15-3-.19a1.68,1.68,0,0,0-.62.07Z"/><path class="a" d="M496.55,17.65l-.07,1.86c.06-.47.21.11.25.93.21,3.29-.09,4.75-.19,4.94l-.06-2.44a14.87,14.87,0,0,0-.24,2.66,4,4,0,0,1-2,3.13,6,6,0,0,1-2,.81,13,13,0,0,1-2.16.17c-1.41.05-2.78.08-4,.07l1.67-.33h3.43c2.75,0,5-1.79,5-4V5.57c0-2.18-2.25-4-5-4h-.51c.25-.15.61-.3.68-.45a9.76,9.76,0,0,1,1.53.25,6,6,0,0,1,1.52.26,6.57,6.57,0,0,0-3.2-.7h0c-.46-.19-1.89-.37-5.39-.51L480.38.7,478.63.48h4.56a35,35,0,0,0-6.06.11,11.6,11.6,0,0,0-2.27-.25l-5.33.44c-.64-.18,2.39-.36-1.18-.46-2.49.21,2.39.41-1.74.54a19.45,19.45,0,0,0-4.88-.2c-.43-.12.22-.2,1.43-.25-2.71.15-7.18.06-8.57.31-2.71-.26-9.15.07-8.89-.37-.85.1-4.77.34-7.26.36,4.55-.53-9.31,0-8.11-.6-3.37.48-12.16.22-18.12.48A9.62,9.62,0,0,1,413.73.5c-3.36,0-4.33-.18-6.49-.27-.43.39-5.65.48-8.47.72-4.11-.38,2.5-.46,1.21-.82.2.31-7.15.31-5.75.58A25.26,25.26,0,0,1,389.9.25c-.55.49-2.93.08-5.54.38-4.55-.24-1.17-.46-6.17-.31C375.81.17,380.26,0,380.26,0c-5.09,0-2.39.36-3.47.57C370.71.68,374,.3,371.91.11c-3.8.1-6.7.44-9.53.43-.21-.07-.77-.09-.12-.16-4,.29-11.91,0-16.58.38a3.1,3.1,0,0,1-.61-.09c.76.18.87.37.72.5a33.39,33.39,0,0,1-5.1,0A10.53,10.53,0,0,0,342.86,1l-2.39.11c-2.15-.35,3.27-.12,3.27-.38-4.67.11-10.1.4-13.67.3-.75-.34,8.35-.11,3.58-.42l5.53.13c-4.22-.53,3.36,0-.52-.53-7.28-.1-8.14.17-15.4.07-1.63.19.54.28-1.09.47-10.32.34-8.12-.85-15.7-.4a31.2,31.2,0,0,1-8.13.43l1.84-.39c-7,0-4,.56-11.4.3,1.31-.15,5.54-.13,4.47-.18-4.78-.3-3.38.22-7.05.22l-.76-.34L261.37.75c.46-.1,1.88-.2-.06-.31C250.84.61,239,.4,228.84.2L225,.49c-.89,0-1.66-.13-.69-.19-3.94-.11-.2.19-2.1.3-2.24,0-3-.16-1.54-.25-7,.25-19.79.53-27.11.22L195,.48c-5.7-.12-6.43.6-11.72.33l1-.05c-12.38-.13-26,.14-35.5-.3-1.79.42-12.24-.19-13,.4-7.06-.29-5-.4-15-.6-2.66,0-4,.37-7.25.43L113.4.38l-4.46.33L106.57.34l-3.09.08a7.94,7.94,0,0,1,2.43.23c-2.41.07-5.34,0-7.69-.08a32.23,32.23,0,0,1-4.17-.3L82.66.53A15.71,15.71,0,0,1,85.13.34C81,.51,84.8,0,79.66.25c.74.07-.41.19-.53.25C76.35.31,70,.31,65.35.39l.9-.21C57.8.12,48.44.28,39,.27c3.4.1,2.62.47-.16.51L37.69.45c-1.8.2,2.9.12-.78.37-3.55,0-2.39-.37-.35-.48L32.25.46c-.25-.1.76-.15,1-.28-1.76.21-7.43-.32-10,0L23,.08,11.64.17,6.83.21H5.46A7.47,7.47,0,0,0,3.91.59,6.49,6.49,0,0,0,1,2.48,11,11,0,0,0,.14,4.91a5,5,0,0,0,0,.55,3.53,3.53,0,0,0,0,.46v.9a17.32,17.32,0,0,0,.13,1.8c-.06,2.84-.13,5.83-.19,9,0,1.57,0,3.18-.08,4.82v3.13a5.16,5.16,0,0,0,.1.87A4.63,4.63,0,0,0,.78,28,5.13,5.13,0,0,0,3,29.77c.43.19.55.19.57.17s-.27-.2.93.08a3.34,3.34,0,0,0,1.35.35c.73.07,1.44.07,2.12.11,1.3,0,2.13.08.35.18,8.21-.05,10.48-.05,20.86-.26-1.13-.11-2.39-.15-1.74-.24a16.25,16.25,0,0,1,4,.23h-.5c3.11-.11,6.48-.1,9.91-.05l5.19.11,2.6.07H50v3.22c0,1.43,0,2.83-.06,4.17,0,2.69,0,5.17.14,7.34v-.52l.28,9.61c-.05,4.43-.2-2.65-.35.62.42,10.38-.07,16.4.22,24.94-.76,6.61,0,23.47-.43,32.4l.18-.52a28.05,28.05,0,0,1-.15,4.49c.14-.24.16-2.5.26-1.07.11,9.77,0,19.86-.07,30v7.71l.1,2a4.22,4.22,0,0,0,.08,1l.17,1a24.58,24.58,0,0,0,.87,3.89A34.45,34.45,0,0,0,59,174.4a22.46,22.46,0,0,0,1.68,1.7c.51.42.93.75,1.3,1,.74.53,1.25.86,1.82,1.2A24,24,0,0,1,66,179.62c.91.69,2.26,1.47,4.24,2.78l-2.48-1.1,2.49,1.41c.85.45,1.73.82,2.6,1.24l1.3.61c.44.19.9.34,1.34.51l2.7,1a58.55,58.55,0,0,0,11.26,2.5,50,50,0,0,0,5.74.41c1.92.09,3.75,0,5.62,0,3.71,0,7.39,0,11-.13a16.07,16.07,0,0,1-2.3.17c1.53.12,4.36.13,6.81.07a31.47,31.47,0,0,0,4.55-.25c2.26,0,.53.18,1.92.28,3.06.14,7.69-.31,9.32-.07.19,0-.24,0-.71.07,2.6-.07,8.42,0,6.69-.22,5.43.13,10.4-.13,14.73,0,2.83-.31,9.3.15,10.2-.29-.39.45,9.53.36,13,.15-1.15.14,3,.14,1.64.33,3.92,0,7.52-.09,6.83-.32,7.23.54,14.52-.44,18.59.26,11.65-.25,22.42-.41,32.9-.52-.38.45-11.58,0-11.13.52,9.94-.18,15.67-.57,25.53-.46,2.55.06-1.45.19-2.31.27,9.92-.19,19.19,0,28-.2-1.59-.28,6.43-.57,7.41-.72-2.55.55,8.77.13,4.13.87,1.15,0,2.58-.14,2.32-.28,1.7,0,2.24.12.52.28,6.23-.11,4-.33,9.67-.33a14.77,14.77,0,0,1-1.75.26c2.86-.19,5.74-.39,10.52-.3-.25.05.13.11-.7.13,8,0,13.69-.51,22.51-.33-2.65.43,3.07.15,3.54.52l4.84-.11-1.94-.18c4.24,0,8-.27,11.63-.15l-3.15.16,7.94-.07-4.5-.15c4.29-.19-.46-.47,5.19-.36-1.15,0,4.23,0,6.44.22h0c2.1-.12,4.25-.24,7.39-.15.81.12-.66.41-.13.49,2.07-.31,9.93-.08,12.55-.42-.88.08-.92.28-.64.32l1.74-.26c2,.09,2.25.12,1.93.28,5.91,0-1.87-.47,5.14-.27-.55,0-.29.06-1.44.1h10.25c1.67,0,3.3,0,4.95-.09s3.29,0,4.91-.28c1,0-.44.3-1.83.42s-2.75.13-1.64.25A51.14,51.14,0,0,0,418,185.84a56.17,56.17,0,0,0,11.28-5.39h0a23,23,0,0,1,3.59-2.61A26.93,26.93,0,0,0,438,173.2c-.75.85-.81,1.29-.64,1l1.64-1.7c.5-.63,1-1.28,1.49-1.94l.75-1c.25-.34.44-.72.67-1.09.44-.74.88-1.5,1.34-2.29a31.49,31.49,0,0,0,3.23-11.9l.06,1.19c.09-.92.18-2,.26-3.15s0-2.34.05-3.56v-6.87c-.14-1.17-.12-3.42-.32-2.06.78-12.13-.41-23.14.23-33.9,0,1.29.12,3.07.12,2l-.12-9.16a17.2,17.2,0,0,0-.32,3.12c-.14-1.16-.25-3.75-.25-6,.16,4.13.38,0,.5-1.81-.07.29-.14-.32-.22-.16.42-4.79-.46-.81-.18-7.35l.12.35c-.06-2.45-.23-4.7-.19-7.34.27-1.1.12,2.6.34,2.77,0-3.71-.5-7.31-.24-10.67.05,1.58.11,3.84.15,5.41a66.92,66.92,0,0,0,.29-6.79v.27l.14-6.28-.08,1.6c-.7-4.64-.13-9.44-.59-15.69.44,6.07.25,1,.56,1.47.08-1.6.18-4,.26-3.33-.24-3,.19-4.93-.16-9.1.09-.19,0-3.16.25-2.49-.08-3.84-.17.9-.29.58-.07-1.17-.09-2.42-.09-3.74V30.11h2.73l3.57.05c2.44,0,5,0,7.54-.15,6.74-.17,8.45-.46,13.95-.63h2c1.09.14-2.34.31-2.34.31,3.71.14,6.5.11,10,0-.7.09,0,.16,1.09.27,2.81,0,1.88-.36,5.58-.21a26.73,26.73,0,0,1-2.81.39l2.48-.08a8.11,8.11,0,0,0,2.63-.44,5.67,5.67,0,0,0,2.26-1.54,4,4,0,0,0,1-2.6c0-.25.08-.23.11-.05a2.82,2.82,0,0,1-.06,1,4.72,4.72,0,0,1-1.5,2.38,4.39,4.39,0,0,0,1.75-3.28c0-1.19,0-2.31-.07-3.41A41.7,41.7,0,0,0,496.55,17.65ZM261.36.84h0Zm-5.66,0c.35.1,0,.2-1,.19a28.1,28.1,0,0,0-3.3-.2ZM446.44,119.35c-.07.12-.16.23-.24.12v-3.34A15.78,15.78,0,0,1,446.44,119.35Zm10.39-89.67-1.36-.23h4a26.12,26.12,0,0,1-2.64.23Zm26.28,0c-.65-.06-1.17-.17-.94-.26H487Z"/><path class="a" d="M278,188.73l-1.7.06H276s-1,.08-1.87.12C275.88,188.85,278.18,188.93,278,188.73Z"/><path class="a" d="M429.26,180.45a11,11,0,0,0,1.43-.88C430.23,179.88,429.74,180.16,429.26,180.45Z"/><path class="a" d="M496.48,19.51c0,.2,0,.41,0,.61Z"/><path class="b" d="M85.13.34l1.2-.05Z"/><polygon class="b" points="113.39 0.31 113.4 0.39 114.27 0.32 113.39 0.31"/><path class="a" d="M446.74,94.1a3.55,3.55,0,0,0,.08-.73A6,6,0,0,0,446.74,94.1Z"/><path class="a" d="M446.81,70.32l.1-3.36C446.86,68.42,446.83,69.48,446.81,70.32Z"/><path class="a" d="M447,52.05a1.09,1.09,0,0,0-.12-.36h0Z"/><path class="a" d="M274.14,188.87h-.71C271.78,188.94,272.9,188.91,274.14,188.87Z"/><path class="a" d="M360.62,188.21l-2.78.13A8.37,8.37,0,0,0,360.62,188.21Z"/><path class="a" d="M353.82,188.34c1.54.06,2.82,0,4,0C356.58,188.33,355.09,188.3,353.82,188.34Z"/><path class="a" d="M497,19.93V20S497.05,20,497,19.93Z"/><path class="a" d="M497,19.93v-1A8.34,8.34,0,0,0,497,19.93Z"/><path class="a" d="M496.94,16.89,497,19A14.88,14.88,0,0,0,496.94,16.89Z"/><path class="a" d="M478.62,30.19l-.28.1C478.5,30.27,478.59,30.24,478.62,30.19Z"/><path class="a" d="M471.27,30.22c1.75,0,4.4.22,6.85.16l.22-.09C477.19,30.45,472.94,30.05,471.27,30.22Z"/><path class="a" d="M400.65,188.63c.39-.07.79-.16,1.19-.26-1.24.07-2.45.06-3.67.1Z"/></svg>