<svg xmlns="http://www.w3.org/2000/svg" viewBox="0 0 100 60"><defs><style>.a{fill:#ffc700;}</style></defs><title>light_gold</title><path class="a" d="M15.6,54.06,1.34,53.53c-.19,0-.36.07-.36.17v1c0,.1.17.18.36.17l14.26-.53C16,54.38,16,54.07,15.6,54.06Z"/><path class="a" d="M16.13,48.08l-13.95-3c-.19,0-.37,0-.38.1l-.18,1c0,.1.13.2.32.23l14.13,1.95C16.48,48.47,16.53,48.17,16.13,48.08Z"/><path class="a" d="M17.69,42.29,4.47,36.92c-.18-.07-.36-.05-.39,0l-.36,1c0,.09.09.22.27.28l13.58,4.38C18,42.74,18.07,42.45,17.69,42.29Z"/><path class="a" d="M20.23,36.86,8.14,29.28c-.16-.11-.34-.12-.39,0l-.53.92c0,.08.06.23.23.32l12.61,6.67C20.42,37.34,20.58,37.08,20.23,36.86Z"/><path class="a" d="M13.09,22.39c-.14-.13-.32-.18-.38-.11l-.68.81c-.06.08,0,.24.17.36l11.26,8.76c.32.25.52,0,.21-.26Z"/><path class="a" d="M19.16,16.46c-.12-.15-.29-.23-.36-.17L18,17c-.07.06,0,.24.1.38l9.57,10.58c.28.31.51.11.26-.21Z"/><path class="a" d="M26.16,11.67c-.09-.17-.24-.27-.32-.22l-.92.52c-.08,0-.06.23,0,.4l7.58,12.08c.22.35.49.2.29-.17Z"/><path class="a" d="M33.89,8.18c-.06-.18-.19-.31-.28-.28l-1,.36c-.09,0-.11.21,0,.39L38,21.87c.15.38.44.28.31-.11Z"/><path class="a" d="M41.88,5.76l-1,.18c-.09,0-.14.19-.1.38l3,14c.09.4.39.35.33-.06l-2-14.13C42.08,5.89,42,5.74,41.88,5.76Z"/><path class="a" d="M50.4,5.08H49.34c-.09,0-.17.16-.16.36L49.7,19.7c0,.41.32.41.34,0l.53-14.26C50.57,5.24,50.5,5.08,50.4,5.08Z"/><path class="a" d="M57.87,5.71c-.1,0-.2.13-.23.32l-2,14.14c0,.4.25.46.33,0L59,6.28c0-.19,0-.37-.11-.39Z"/><path class="a" d="M67.14,8.17l-1-.36c-.09,0-.22.1-.28.28L61.49,21.67c-.13.39.16.49.31.11L67.17,8.57C67.25,8.39,67.23,8.21,67.14,8.17Z"/><path class="a" d="M74.85,11.85l-.91-.53c-.08-.05-.23,0-.32.23L66.94,24.16c-.19.36.08.51.29.16l7.59-12.08C74.92,12.08,74.94,11.9,74.85,11.85Z"/><path class="a" d="M81.81,16.8,81,16.13c-.07-.07-.23,0-.35.16L71.89,27.55c-.26.33,0,.52.25.22l9.57-10.58C81.84,17,81.89,16.87,81.81,16.8Z"/><path class="a" d="M87.8,22.89l-.67-.8c-.07-.08-.24,0-.38.1L76.16,31.76c-.3.27-.11.51.22.25l11.26-8.76C87.79,23.13,87.87,23,87.8,22.89Z"/><path class="a" d="M92.65,29.93,92.12,29c-.05-.08-.23-.07-.39,0L79.64,36.64c-.34.22-.19.48.17.29l12.61-6.67C92.59,30.17,92.7,30,92.65,29.93Z"/><path class="a" d="M96.2,37.71l-.36-1c0-.1-.22-.11-.4,0L82.23,42.05c-.39.16-.28.44.11.32L95.92,38C96.1,37.93,96.23,37.8,96.2,37.71Z"/><path class="a" d="M98.34,46l-.18-1c0-.1-.19-.14-.38-.1l-14,3c-.41.09-.35.39.06.33L98,46.2C98.21,46.18,98.36,46.07,98.34,46Z"/><path class="a" d="M98.66,53.27,84.4,53.8c-.41,0-.41.32,0,.34l14.26.52c.19,0,.36-.07.36-.17V53.44C99,53.34,98.85,53.27,98.66,53.27Z"/></svg>