<svg id="圖層_1" data-name="圖層 1" xmlns="http://www.w3.org/2000/svg" viewBox="0 0 120 60"><defs><style>.cls-1{fill:none;}</style></defs><title>logo</title><path id="shi-1" d="M14.86,21a1.66,1.66,0,0,0,.09-.38c0-.14-.18-.22-.56-.22a6.83,6.83,0,0,0-2.5,1.06,16,16,0,0,0-2.31,1.83c-1.15,1-2,1.79-2.53,2.33Q5.61,27.17,3.19,30C1.57,31.86.75,33,.73,33.27a1.1,1.1,0,0,0,.58.42,2.4,2.4,0,0,0,.8.17.74.74,0,0,0,.39-.14,1.61,1.61,0,0,0,.36-.33,4.38,4.38,0,0,0,.34-.91,5.19,5.19,0,0,1,1.16-2A35,35,0,0,1,6.8,27.67c1.23-1.31,2.42-2.49,3.59-3.53s2-1.55,2.4-1.56l2-1.23A1.36,1.36,0,0,1,14.86,21Z"/><path id="shi-2" d="M23.3,23.86a24,24,0,0,1-4-.67A17,17,0,0,1,15.55,22c-.52-.27-.78-.47-.78-.59h0l-2,1.23h0a3.4,3.4,0,0,1,1.47.53,30.3,30.3,0,0,0,5.87,1.81l1.28.31,1,.25a6.34,6.34,0,0,0,1.61.22c.12,0,.3-.21.51-.64a2.44,2.44,0,0,0,.33-.86C24.92,24,24.38,23.86,23.3,23.86Z"/><path id="shi-3" d="M12.83,25.67a11.07,11.07,0,0,1,2.06-.25c.79,0,1.19.19,1.19.56s-.22.48-.66.68a8,8,0,0,1-1.48.47,7.15,7.15,0,0,1-1.24.17A1.33,1.33,0,0,1,12,27a.72.72,0,0,1-.41-.58C11.61,26.1,12,25.84,12.83,25.67Z"/><path id="shi-4" d="M16,28.05a2.6,2.6,0,0,0-1.34-.35,4.18,4.18,0,0,0-1.5.32,1.53,1.53,0,0,0-1,.87L13,30.2a2.31,2.31,0,0,1,.7-.62,2.32,2.32,0,0,1,.79-.47c.27,0,.4.23.4.69v.47a2.39,2.39,0,0,0,0,.43l0,1.35-.59.59a1.5,1.5,0,0,1-.77.33,5.24,5.24,0,0,1-1,.11c-.11,0-.17,0-.19,0l0,1.34a.79.79,0,0,1,.31.09,1.11,1.11,0,0,0,.47.16h.06a3.34,3.34,0,0,0,2.41-1.09,4.08,4.08,0,0,0,.89-2,19.3,19.3,0,0,0,.14-2.51A1.11,1.11,0,0,0,16,28.05Z"/><path id="shi-5" d="M12.7,32.36l.66,0a1,1,0,0,0,.41-.06,2.68,2.68,0,0,1,.53-.16l.56-.12,0-1.35a9,9,0,0,0-2.06.41l-.14,1.25Z"/><path id="shi-6" d="M28.05,38.3c-.13,0-.48-.07-1.07-.13a6.24,6.24,0,0,1-1-.09,24.26,24.26,0,0,0-3.15-.35c-1-.06-1.84-.14-2.5-.23A9.36,9.36,0,0,1,18.23,37a2.82,2.82,0,0,1-1.18-.59.72.72,0,0,1,.2-.09l.2-.07c.48-.16.72-.34.72-.53,0-.39-.25-.59-.75-.59a13.55,13.55,0,0,0-1.9.42,7.65,7.65,0,0,0-1.75.55.59.59,0,0,0-.21.34,2.16,2.16,0,0,1-.11.31,3.35,3.35,0,0,1-.61,1.3,1.53,1.53,0,0,1-1.26.48,1.06,1.06,0,0,1-.52-.15A.46.46,0,0,1,10.8,38a7.93,7.93,0,0,1,.65-2c.44-1,.72-1.58.85-1.58l0-1.34a2,2,0,0,1,.15-.43c.09-.17.16-.25.21-.26l.14-1.25h0a1.73,1.73,0,0,1,.2-.91l-.89-1.31a.85.85,0,0,1-.44.47,1.56,1.56,0,0,0-.4.45A3.2,3.2,0,0,0,11.05,31a17.32,17.32,0,0,1-.88,3.69c0,.13-.12.37-.23.74s-.26.74-.44,1.15a6.32,6.32,0,0,1-.64,1.14A1.52,1.52,0,0,1,8.7,38a.86.86,0,0,0-.12.38c0,.23.18.46.54.7a5.67,5.67,0,0,0,1.26.61,3.32,3.32,0,0,0,1,.25,3.53,3.53,0,0,0,1.66-.44,3.07,3.07,0,0,0,1.25-1.09l.22-.31.28-.38c.58.17,1,.31,1.28.41,1.73.52,3.15.91,4.28,1.16a17,17,0,0,0,3.69.37c2.54,0,3.91-.24,4.12-.72a1.13,1.13,0,0,0,.1-.44A.25.25,0,0,0,28.05,38.3Z"/><path id="zai-1" d="M51.05,23.36c-.65,0-1.32,0-2,.09s-1.71.18-3.05.35L44.3,24h0L42,24.39h0a5.38,5.38,0,0,1-1.59.19,16,16,0,0,0-1.84.14c-.48.07-.75.2-.82.39a1.09,1.09,0,0,0-.12.47.41.41,0,0,0,.27.4,1.45,1.45,0,0,0,.67.13h.53q.21,0,.84-.06a5.07,5.07,0,0,1,1-.1h0l3.16-.25h0c2.08-.14,3.75-.32,5-.53s2-.49,2.25-.84a.86.86,0,0,0,.12-.47C51.45,23.53,51.32,23.36,51.05,23.36Z"/><path id="zai-2" d="M45.34,22.59A10,10,0,0,0,46.45,21a1.06,1.06,0,0,0,.16-.56.52.52,0,0,0-.14-.36.51.51,0,0,0-.36-.14,1.19,1.19,0,0,0-.56.19,3.82,3.82,0,0,0-.77.56,6.42,6.42,0,0,0-.7.83l-.56.76-.19.25c-.06.09-.13.17-.19.25a5.59,5.59,0,0,1-.45.61,8,8,0,0,0-.7,1.05L44.3,24Z"/><path id="zai-3" d="M39.83,27.7l-.63,1.07c-.18.31-.33.56-.43.75s-.71,1.16-1.94,3.17a11,11,0,0,0-1.91,4.51.6.6,0,0,0,.22.52.89.89,0,0,0,.53.26.46.46,0,0,0,.36-.15,1.4,1.4,0,0,0,.24-.42,3.27,3.27,0,0,1,.15-.39,27.56,27.56,0,0,1,2.63-5,57.16,57.16,0,0,1,3.5-5.2,4.63,4.63,0,0,1,.72-.83,1.3,1.3,0,0,1,.78-.29L40.89,26C40.84,26.05,40.49,26.63,39.83,27.7Z"/><path id="zai-4" d="M38.64,37.27c.13-.71.27-1.37.42-2s.26-1,.3-1.23A7.12,7.12,0,0,1,40,32.23c.3-.58.64-.87,1-.87s.59.22.59.66a4.84,4.84,0,0,1-.41,1.59c-.08.27-.22,1-.4,2s-.3,1.79-.32,2.13a6.84,6.84,0,0,0,.07.81,4.36,4.36,0,0,1,.09,1,.88.88,0,0,1-.25.62.77.77,0,0,1-.59.29c-.9,0-1.35-.38-1.35-1.13A12.56,12.56,0,0,1,38.64,37.27Z"/><path id="zai-5" d="M48.8,33.8a7.67,7.67,0,0,0,1.26-.52.78.78,0,0,0,.46-.55,1.41,1.41,0,0,0-.13-.75.34.34,0,0,0-.47-.15c-.79.21-1.33.34-1.62.4h0l-2.38.52h0L45,33a4.49,4.49,0,0,0-1.14.37.84.84,0,0,0-.45.8.54.54,0,0,0,.37.55,1.61,1.61,0,0,0,.79.08,3.52,3.52,0,0,1,.89,0l2.6-.73C48.15,34,48.41,33.92,48.8,33.8Z"/><path id="zai-6" d="M47.86,32.19a.63.63,0,0,1-.13-.46,4.19,4.19,0,0,1,0-.65,4.3,4.3,0,0,0,0-1c0-.25-.21-.38-.53-.38a.84.84,0,0,0-.7.43,2.54,2.54,0,0,0-.36,1.29,4.58,4.58,0,0,0,0,.53,2.89,2.89,0,0,1,0,.53c0,.17-.08.25-.16.28l2.38-.52A.53.53,0,0,1,47.86,32.19Z"/><path id="zai-7" d="M47.72,36.86a1.1,1.1,0,0,1-.3-.88,4.39,4.39,0,0,1,0-.56,3.53,3.53,0,0,1,.19-1,.67.67,0,0,1,.34-.39h0l-2.6.73h0a.28.28,0,0,1,.2.31l0,.34a4.1,4.1,0,0,0,0,.58,2.09,2.09,0,0,1-.13.72.51.51,0,0,1-.53.33l3.93,0A1.86,1.86,0,0,1,47.72,36.86Z"/><path id="zai-8" d="M54.16,36.64a.58.58,0,0,0-.36-.22,5.09,5.09,0,0,0-.86,0,9.11,9.11,0,0,0-1,.17l-.69.16c-.37.08-.76.16-1.17.23a6.74,6.74,0,0,1-1.14.11h-.07l-3.93,0h0l-.59,0q-.34,0-.75,0c-1.15,0-1.72.23-1.72.68,0,.25.22.45.65.58a14,14,0,0,0,2.44.39c1.11.11,2.1.16,3,.16l.53,0,2.39-.27A9.43,9.43,0,0,0,53.67,38a1.17,1.17,0,0,0,.6-.87A.61.61,0,0,0,54.16,36.64Z"/><path id="sin-1" d="M62.27,33.77c.64-1.25,1.36-2.49,2.14-3.72a9.9,9.9,0,0,1,1.64-2.19l.15-.11a.7.7,0,0,1,.35-.08c.48,0,.72.18.72.53A13.72,13.72,0,0,1,66,30.67a28.86,28.86,0,0,0-1.65,3.47l-.41.91a9.52,9.52,0,0,1-.9,1.33,1.34,1.34,0,0,1-1,.51.63.63,0,0,1-.46-.22.6.6,0,0,1-.22-.44A7.42,7.42,0,0,1,62.27,33.77Z"/><path id="sin-2" d="M69.33,29.56A1.64,1.64,0,0,1,71,28.45c.34,0,.5.12.5.35a4.72,4.72,0,0,1-.22,1.06A3.79,3.79,0,0,0,71,31a5.91,5.91,0,0,0,.61,2.74,2.05,2.05,0,0,0,2,1.2A8.6,8.6,0,0,0,76,34.7a5.77,5.77,0,0,0,.79-.34A2.42,2.42,0,0,1,78,34a.58.58,0,0,1,.5.22.45.45,0,0,1,0,.5c-.48.94-1.76,1.58-3.84,1.91a6.87,6.87,0,0,1-.78.06,5.28,5.28,0,0,1-2.41-.58,4.86,4.86,0,0,1-1.87-1.61,4,4,0,0,1-.72-2.37A6.47,6.47,0,0,1,69.33,29.56Z"/><path id="sin-3" d="M74.7,30.55a3.8,3.8,0,0,1-.47-1.85,2.1,2.1,0,0,1,.19-1,.87.87,0,0,1,.81-.33c.38,0,.63.45.75,1.34a4.07,4.07,0,0,0,.22.91.66.66,0,0,0,.53.22.94.94,0,0,1,.41.16.36.36,0,0,1,.13.31,1,1,0,0,1-.36.72,1.1,1.1,0,0,1-.77.34A1.55,1.55,0,0,1,74.7,30.55Z"/><path id="sin-4" d="M81,28.7a.34.34,0,0,1,.12-.26.53.53,0,0,1,.25-.14,2.36,2.36,0,0,1,.83.14c.41.11.84.24,1.3.39.18.06.55.18,1.11.34a12.24,12.24,0,0,0,1.39.35c.45.08,1.12.23,2,.43a14.25,14.25,0,0,0,1.53.38.31.31,0,0,1,.31.34,1,1,0,0,1-.41.72,1.3,1.3,0,0,1-.9.38,10.6,10.6,0,0,1-2.61-.38,11.74,11.74,0,0,1-2.49-.91,9.62,9.62,0,0,1-2.18-1.34A.58.58,0,0,1,81,28.7Z"/><path id="lu-1" d="M102.25,25.66a3,3,0,0,0-1.55-.33l-1,0a2.56,2.56,0,0,1-.61-.06.92.92,0,0,1-.37-.19,1.47,1.47,0,0,1-.17-.16.86.86,0,0,1-.14-.14.78.78,0,0,0-.49-.11c-.48,0-.8.38-1,1.14a10.25,10.25,0,0,0-.25,2.24,3.77,3.77,0,0,0,.52,2,1.51,1.51,0,0,0,1.32.87l1.85-.09a1,1,0,0,1,.25-.33,3,3,0,0,1,.37-.27A5,5,0,0,0,102.3,29a3.38,3.38,0,0,0,.5-2A1.47,1.47,0,0,0,102.25,25.66Zm-1.59,2.92a1.7,1.7,0,0,1-1.3.65.59.59,0,0,1-.45-.2.72.72,0,0,1-.21-.55,2,2,0,0,1,.41-1.4,2.41,2.41,0,0,1,1.66-.41.45.45,0,0,1,.32.14.52.52,0,0,1,.14.39A2.09,2.09,0,0,1,100.66,28.58Z"/><path id="lu-2" d="M100.17,36.5a11.66,11.66,0,0,1-.06-1.39,3.44,3.44,0,0,1,.08-.86.55.55,0,0,1,.29-.42h0l-.07-1.57c-.15,0-.22-.15-.22-.46a3.48,3.48,0,0,1,0-.58,1.45,1.45,0,0,1,.11-.39h0l-1.85.09h0c0,.5,0,1.15,0,1.94s0,1.59.08,2.28.12,1.37.21,2l1.64-.25Q100.23,36.94,100.17,36.5Z"/><path id="lu-3" d="M103.91,31.5a1.28,1.28,0,0,0-.71-.2,3.46,3.46,0,0,0-1.56.5,4.1,4.1,0,0,1-1.22.47h0l.07,1.57L102,33.3a10.1,10.1,0,0,0,1.74-.66q.51-.28.51-.66A.6.6,0,0,0,103.91,31.5Z"/><path id="lu-4" d="M103.05,36.23a2.55,2.55,0,0,0-.63.22,8.77,8.77,0,0,1-2,.47h0l-1.64.25h0a1,1,0,0,1-1-.53,4.06,4.06,0,0,1-.55-1.75,5.2,5.2,0,0,0-.2-1.06c-.07-.19-.27-.28-.58-.28a.67.67,0,0,0-.69.39,3,3,0,0,0-.15,1,4,4,0,0,0,.79,2.6,2.7,2.7,0,0,0,2.18,1,11.26,11.26,0,0,0,1.76-.22,10.07,10.07,0,0,0,2.11-.63c.63-.27.94-.58.94-.93S103.23,36.23,103.05,36.23Z"/><path id="lu-5" d="M112.23,26.77c.17-.25.27-.41.32-.47.5-.75.87-1.36,1.12-1.82a2.81,2.81,0,0,0,.38-1.37.73.73,0,0,0-.52-.73,6.23,6.23,0,0,0-1.55-.33,9.28,9.28,0,0,1-1.1-.19c-.22-.06-.33-.18-.33-.34a1.62,1.62,0,0,1,.22-.69l.12-.36A1.48,1.48,0,0,0,111,20a.45.45,0,0,0-.17-.39.6.6,0,0,0-.42-.15.63.63,0,0,0-.25,0c-.29.06-.58.4-.87,1a3.61,3.61,0,0,0-.44,1.4c0,.34.21.6.64.78a7.23,7.23,0,0,0,1.64.47c.83.15,1.25.33,1.25.53a3,3,0,0,1-.83,1.36c-.55.66-1.06,1.22-1.51,1.68h0l-1.47,1.09h0a3.17,3.17,0,0,1-1,.75,4.81,4.81,0,0,0-.63.39,1.08,1.08,0,0,0-.37.42c-.07.19,0,.37.31.55a1.44,1.44,0,0,0,.81.26,1.34,1.34,0,0,0,.7-.23c.26-.16.6-.39,1-.7s.82-.59.92-.65L112,27.29A1.2,1.2,0,0,1,112.23,26.77Z"/><path id="lu-6" d="M110,26.77a4.45,4.45,0,0,0-1.65-.54,1.73,1.73,0,0,0-.6.11c-.18.08-.28.19-.28.33s.37.67,1.09,1.19L110,26.77Z"/><path id="lu-7" d="M118.91,28.27a1,1,0,0,0-.61-.16q-.19,0-.75.06c-.57.06-1,.1-1.44.1a6.37,6.37,0,0,1-1.28-.13c-.4-.08-1.14-.26-2.22-.53-.42-.15-.63-.25-.63-.31h0l-1.71,1.36h0l.65.16c1.17.29,2.18.51,3,.67a13.76,13.76,0,0,0,2.58.23,7.28,7.28,0,0,0,1.75-.2c.56-.14.84-.4.84-.8A.5.5,0,0,0,118.91,28.27Z"/><path id="lu-8" d="M110,34.86a13.32,13.32,0,0,1,.67-2.16,1.37,1.37,0,0,1,.6-.59,1.7,1.7,0,0,1,.84-.22c.23,0,.34.15.34.44a2.58,2.58,0,0,1-.15.75,4.51,4.51,0,0,0-.16.5s0,.07.09.08h.29a5.18,5.18,0,0,1,2.21.39,1.66,1.66,0,0,1,.82,1.67,1.68,1.68,0,0,1-.11.55c-.08.2-.12.33-.14.39a3.11,3.11,0,0,1-.13.42,1.63,1.63,0,0,0-.09.52c0,.1.08.17.23.19a5.36,5.36,0,0,0,.64,0l2.25,0a2.72,2.72,0,0,1,.85.08.3.3,0,0,1,.22.29c0,.29-.3.5-.88.63l-1.53.28a16.56,16.56,0,0,0-2.63.65,2.47,2.47,0,0,1-1.06.38,1,1,0,0,1-.62-.19.55.55,0,0,1-.25-.47.88.88,0,0,1,.12-.43c.44-.75.78-1.39,1-1.93a4.09,4.09,0,0,0,.38-1.76c0-.27-.1-.41-.28-.41a1.2,1.2,0,0,0-.94.42,16.13,16.13,0,0,0-1,1.3l-.33.49a2,2,0,0,1-.42.51.55.55,0,0,1-.37.16,1.17,1.17,0,0,1-.61-.22c-.22-.15-.33-.3-.33-.47A11.23,11.23,0,0,1,110,34.86Z"/><path id="line-shi-1" class="cls-1" d="M15.22,20.64a14,14,0,0,0-4.92,2.73,41,41,0,0,0-4,4c-.71.77-1.43,1.53-2.13,2.3a17.28,17.28,0,0,0-1.36,1.61,9.28,9.28,0,0,0-1.65,4"/><path id="line-shi-2" class="cls-1" d="M12.28,21a12.32,12.32,0,0,0,4.87,2.38A48.2,48.2,0,0,0,25.48,25"/><path id="line-shi-3" class="cls-1" d="M11.17,26.66a13.49,13.49,0,0,1,6-.63"/><path id="line-shi-4" class="cls-1" d="M12.17,29.78a3.68,3.68,0,0,1,3-1.22.65.65,0,0,1,.2.05.56.56,0,0,1,.22.26,3.93,3.93,0,0,1-.14,3.72,2.17,2.17,0,0,1-.77.82,2.58,2.58,0,0,1-1,.31,6.46,6.46,0,0,1-3.76-.5"/><path id="line-shi-5" class="cls-1" d="M10.69,31.92A25,25,0,0,1,14,31.36c.34,0,.67-.05,1-.09a13.43,13.43,0,0,0,1.89-.37"/><path id="line-shi-6" class="cls-1" d="M11.78,29a7.12,7.12,0,0,1-.23,3.74c-.36,1.21-.9,2.36-1.31,3.56a4.27,4.27,0,0,0-.31,2,1.15,1.15,0,0,0,.39.74,1.17,1.17,0,0,0,.9.11c2.3-.42,3.7-3.07,6-3.44-.36.3-.74.71-.63,1.16s.66.63,1.12.71c.64.11,1.29.19,1.94.26a58.76,58.76,0,0,0,13.24.58"/><path id="line-zai-1" class="cls-1" d="M36,25.47a124.83,124.83,0,0,0,12.67-1,17.26,17.26,0,0,0,4.5-1.06"/><path id="line-zai-2" class="cls-1" d="M46.78,19.28a35.58,35.58,0,0,0-3.38,5.28"/><path id="line-zai-3" class="cls-1" d="M42.41,25.56c-1,2-2.63,3.6-3.89,5.45a27.53,27.53,0,0,0-3.6,8.23"/><path id="line-zai-4" class="cls-1" d="M41.28,30.94c-.48,1.72-1.28,3.35-1.59,5.11-.08.48-.13,1-.18,1.46a18.52,18.52,0,0,0,0,4.82"/><path id="line-zai-5" class="cls-1" d="M42.64,34.18a12.68,12.68,0,0,1,3.74-.74,14,14,0,0,0,5.37-1.9"/><path id="line-zai-6" class="cls-1" d="M47.11,29.19c.1,1.35-.36,2.69-.34,4.05"/><path id="line-zai-7" class="cls-1" d="M46.67,34.19c-.12,1.8-.19,3.6-.19,5.41"/><path id="line-zai-8" class="cls-1" d="M41.47,37.34a10.08,10.08,0,0,1,1.55.29,12.1,12.1,0,0,0,2.41.13l2.16,0a39.44,39.44,0,0,0,4.61-.24,13,13,0,0,0,4.4-1.33"/><path id="line-sin-1" class="cls-1" d="M67.21,27.34A112.18,112.18,0,0,0,60.91,38l0-.12"/><path id="line-sin-2" class="cls-1" d="M70.83,28a3.2,3.2,0,0,0-.34,1,6.54,6.54,0,0,0-.07.89,11.32,11.32,0,0,0,.13,2.67,3.59,3.59,0,0,0,4.11,3.09,10,10,0,0,0,2.92-.79c1.08-.43,2.14-.89,3.19-1.4"/><path id="line-sin-3" class="cls-1" d="M74.8,27.14a10.48,10.48,0,0,0,.36,1.77,3.56,3.56,0,0,0,.93,1.53,4,4,0,0,0,2,.88"/><path id="line-sin-4" class="cls-1" d="M80.93,28.08a6.79,6.79,0,0,0,2,1.45,12.25,12.25,0,0,0,1.64.57,23.28,23.28,0,0,0,6.52,1"/><path id="line-lu-1" class="cls-1" d="M97.86,24.28a5.84,5.84,0,0,0-.15,4.84,1.9,1.9,0,0,0,.74,1,1.46,1.46,0,0,0,1.21.06,3.1,3.1,0,0,0,1-.7A4.25,4.25,0,0,0,102,27a.66.66,0,0,0-.17-.61.68.68,0,0,0-.39-.11,14.11,14.11,0,0,0-5.58.83"/><path id="line-lu-2" class="cls-1" d="M99.41,30.45a6.34,6.34,0,0,0-.36,1.93,9.13,9.13,0,0,0,0,1,30,30,0,0,0,.7,5.25,4.41,4.41,0,0,0,.28.87"/><path id="line-lu-3" class="cls-1" d="M98.76,33.07a12.41,12.41,0,0,0,6.26-1.7"/><path id="line-lu-4" class="cls-1" d="M96.22,33.12a9.17,9.17,0,0,0,.58,3.5,2.37,2.37,0,0,0,.61.85,2.08,2.08,0,0,0,1.28.38,6.81,6.81,0,0,0,1.34-.22,27.78,27.78,0,0,0,4.22-1.28s.1-.1,0-.12"/><path id="line-lu-5" class="cls-1" d="M111.09,19.05a3.31,3.31,0,0,0-1.5,2.24.85.85,0,0,0,0,.55,1,1,0,0,0,.5.36,11.56,11.56,0,0,0,1.82.55c.39.09.86.2,1,.57a1.11,1.11,0,0,1-.07.87,9.89,9.89,0,0,1-3,3.94,29.12,29.12,0,0,1-4.2,2.74c-.06,0-.19,0-.14-.05"/><path id="line-lu-6" class="cls-1" d="M107.18,26.17a18.8,18.8,0,0,0,2.92,1.36"/><path id="line-lu-7" class="cls-1" d="M110.79,27.92l2,.48a15.57,15.57,0,0,0,3.1.52c.31,0,.62,0,.93,0a23.58,23.58,0,0,0,3.91-.54l0,.14"/><path id="line-lu-8" class="cls-1" d="M111.93,31.6c-.42,1.35-.79,2.71-1.1,4.1,0,.13,0,.31.09.36a3.88,3.88,0,0,1,1.56-1.6,2.74,2.74,0,0,1,1.27-.19,1.59,1.59,0,0,1,1,.36,1.31,1.31,0,0,1,.31,1.16,5.32,5.32,0,0,1-.41,1.18,5.68,5.68,0,0,0-.4,1.45.25.25,0,0,0,0,.15.17.17,0,0,0,.1.06,3.26,3.26,0,0,0,1.51-.16c.28-.06.57-.1.86-.14,1.48-.21,3-.38,4.45-.51"/></svg>