<svg xmlns="http://www.w3.org/2000/svg" viewBox="0 0 263.7 263.7"><defs><style>.a{fill:#f71c54;}.b{fill:#fff;}.c{fill:#e1c6b3;}</style></defs><title>資產 1</title><circle class="a" cx="131.85" cy="131.85" r="131.85"/><path class="b" d="M51.2,91.38l-.32-3.71c-.5.14-1.07.29-1.68.43V81.67h2V78h-2V72H45.55v6H42.18v3.65h3.37v7.16c-1.78.32-3.21.53-3.29.54v3.72c.11,0,1.52-.2,3.3-.5V101h-3.1l.74,3.66h2.48a3.43,3.43,0,0,0,3.53-3.47V91.88C49.91,91.73,50.59,91.55,51.2,91.38Zm-5.65,9.76v0h0Z"/><path class="b" d="M56.68,77.2H74.17V73.55H53V85.69c.06,5-.5,13.48-2.39,16.19l2.92,2.58c3.18-4.56,3.14-17.36,3.13-18.78Z"/><rect class="b" x="58.99" y="79.42" width="13.46" height="3.65"/><path class="b" d="M71.28,97.43l2.89-2-1.64-3.07-2.79,1.79a28.25,28.25,0,0,1-1.3-4.92h5.73V85.57H59v15.34a3.4,3.4,0,0,0,3.1,3.58h3.68l.51-3.66H62.64V89.23h2.22c.33,2.94,1.8,11.69,8.14,15.43l2.29-3A11.67,11.67,0,0,1,71.28,97.43Z"/><path class="b" d="M110.18,73.2H103.3v3.65h3.23v3h-3v3.65h3v2.87h-3V90h3V93.6h-4.38V76.43h0V72.77H88.38v3.66h0V93.6H84.54V90H87.2V86.32H84.54V83.45H87.2V79.8H84.54V76.42c1.54-.36,3-.74,3.08-.77L86.37,72.2a45.75,45.75,0,0,1-5.49,1.27h0V93.6H79.11v3.65h7.21a15.34,15.34,0,0,1-6.13,3.61l.58,3.8a20.72,20.72,0,0,0,10.35-7.41H99.8a20.72,20.72,0,0,0,10.35,7.41l.48-3.68a15.76,15.76,0,0,1-6-3.73h7.18V93.6h-1.58ZM91.43,76.43h7.68V93.6H91.43Z"/><rect class="b" x="92.68" y="78.88" width="5.26" height="3.04"/><polygon class="b" points="92.68 86.58 92.68 86.58 92.68 92.03 94.5 92.03 94.5 86.58 96.11 86.58 96.11 92.03 97.94 92.03 97.94 86.58 97.94 86.58 97.94 83.94 92.68 83.94 92.68 86.58"/><path class="b" d="M143,84.53H131.41l1.74-7.33h14.13V73.55h-30V77.2H129.4l-1.75,7.33h-8.87v3.65h8l-2.7,11.32H116v3.66h32.45V99.5H143Zm-12.49,3.65h8.84V99.5H127.84Z"/><path class="b" d="M180.69,78.82h3.57V75.17h-9.45V72.36h-3.65v2.81h-8.4v3.65H166l1.26,5.1H161.7v3.65h23.53V83.92h-5.81Zm-10.9,0h7.14l-1.27,5.1h-4.6Z"/><path class="b" d="M164,104.52h3.65v-1.36H179.3v1.36H183V90.7H164ZM179.3,94.35V99.5H167.62V94.35Z"/><path class="b" d="M162.15,72.77l-3.56-.83c0,.1-1.85,8.85-6.57,14.63L154,90a24.71,24.71,0,0,0,2.14-2.83v17.31h3.65V80.22h0A54,54,0,0,0,162.15,72.77Z"/><path class="b" d="M221.52,84.22H203.24a30.11,30.11,0,0,0,1.56-3.36h14V77.21H214.7l.82-2.63-3.37-1.45-1.28,4.08H206a24.91,24.91,0,0,0,.73-4.74H203a21.93,21.93,0,0,1-.89,4.74H199l-1-4.21-3.46,1.23.72,3h-3.48v3.65h9.07a25.81,25.81,0,0,1-1.86,3.36h-9.85v3.66H196a24.49,24.49,0,0,1-6.31,4.6L191,95.91a30.53,30.53,0,0,0,4.37-2.66l.15,1.64h5.33c-1.1,2-4,5.36-11.18,6.25l1,3.55c10.65-1.27,13.52-7.5,14.23-9.8h7.07v5.24s0,.65-.14.77a.75.75,0,0,1-.4.1h-3.68l.62,3.66h3.1a4,4,0,0,0,3-1.23,4.81,4.81,0,0,0,1.14-3.35V93.73a32.35,32.35,0,0,0,4.13,2.69L221,93a30,30,0,0,1-6.66-5.09h7.17Zm-8.91,7H197.79a27.16,27.16,0,0,0,3.07-3.36h8.58A35.58,35.58,0,0,0,212.61,91.24Z"/><circle class="c" cx="190.47" cy="149.86" r="30.63" transform="translate(12.12 313.96) rotate(-80.81)"/><path class="c" d="M155.79,124a30.63,30.63,0,1,0,0,51.76Z"/><path class="c" d="M104.53,119.25a30.62,30.62,0,0,0,0,61.23Z"/><rect class="c" x="42.59" y="119.23" width="30.68" height="16.84"/><path class="c" d="M43.83,141l-1.24,0v19.62a10.19,10.19,0,0,1,1.24-.08,10.81,10.81,0,1,1,0,21.62c-.42,0-.83,0-1.24-.07v19.62l1.24,0a30.39,30.39,0,1,0,0-60.77Z"/></svg>