<svg xmlns="http://www.w3.org/2000/svg" viewBox="0 0 80 80"><defs><style>.a{fill:#ffc700;}</style></defs><title>資產 3</title><path class="a" d="M78.31,44.05a5.86,5.86,0,0,0-1.61,7,5.82,5.82,0,0,1-3.22,7.54A5.38,5.38,0,0,0,69.79,64,5.88,5.88,0,0,1,64,69.79a5.38,5.38,0,0,0-5.37,3.69,5.82,5.82,0,0,1-7.54,3.22,5.86,5.86,0,0,0-7,1.61,5.7,5.7,0,0,1-8.1,0,5.86,5.86,0,0,0-7-1.61,5.82,5.82,0,0,1-7.54-3.22A5.38,5.38,0,0,0,16,69.79,5.88,5.88,0,0,1,10.21,64a5.38,5.38,0,0,0-3.69-5.37A5.82,5.82,0,0,1,3.3,51.05a5.86,5.86,0,0,0-1.61-7,5.7,5.7,0,0,1,0-8.1A5.86,5.86,0,0,0,3.3,29a5.82,5.82,0,0,1,3.22-7.54A5.38,5.38,0,0,0,10.21,16,5.88,5.88,0,0,1,16,10.21a5.38,5.38,0,0,0,5.37-3.69A5.82,5.82,0,0,1,29,3.3a5.86,5.86,0,0,0,7-1.61,5.7,5.7,0,0,1,8.1,0,5.86,5.86,0,0,0,7,1.61,5.82,5.82,0,0,1,7.54,3.22A5.38,5.38,0,0,0,64,10.21,5.88,5.88,0,0,1,69.79,16a5.38,5.38,0,0,0,3.69,5.37A5.82,5.82,0,0,1,76.7,29a5.86,5.86,0,0,0,1.61,7A5.7,5.7,0,0,1,78.31,44.05Z"/></svg>