<svg xmlns="http://www.w3.org/2000/svg" viewBox="0 0 72 20"><defs><style>.a{fill:#06c167;}.b{fill:#fff;}</style></defs><title>資產 2</title><rect width="72" height="20"/><path class="a" d="M48.36,11a1.8,1.8,0,1,0-1.8,1.77A1.78,1.78,0,0,0,48.36,11m1.46-2.91v5.81H48.33v-.52a3,3,0,0,1-1.89.67,3.06,3.06,0,1,1,0-6.11,3,3,0,0,1,1.89.67V8.05Zm5,4.49H53.66c-.34,0-.56-.14-.56-.45V9.37h1.69V8.05H53.1V6.4H51.59V8.05H50.46V9.37h1.13v3.09a1.41,1.41,0,0,0,1.58,1.4h1.62V12.54ZM58.19,14c1.73,0,2.7-.81,2.7-1.92,0-.8-.57-1.39-1.78-1.65l-1.27-.25c-.74-.13-1-.27-1-.54s.36-.56,1-.56,1.24.19,1.39.83h1.49c-.08-1.21-1-2-2.78-2-1.56,0-2.66.63-2.66,1.86,0,.85.61,1.4,1.91,1.67l1.42.32c.57.11.72.26.72.48s-.43.59-1.11.59c-.86,0-1.36-.19-1.55-.83H55.19c.22,1.21,1.14,2,3,2M37.26,6h5.63V7.33H38.78V9.26h4v1.3h-4v1.95h4.11v1.34H37.26Z"/><path class="b" d="M34.58,9.13V8.08h-.4a1.55,1.55,0,0,0-1.39.75V8.12H31.64v5.73H32.8V10.6a1.32,1.32,0,0,1,1.3-1.47Zm-8.3,1.33a1.82,1.82,0,0,1,3.56,0ZM28.09,8a3,3,0,1,0,.1,6,3.09,3.09,0,0,0,2.52-1.23l-.84-.6a2,2,0,0,1-1.68.84,2,2,0,0,1-1.94-1.63H31V11a2.86,2.86,0,0,0-2.91-3m-6.61,5a2,2,0,1,1,2-2,2,2,0,0,1-2,2m-3.14.86h1.14v-.71A3,3,0,1,0,21.57,8a3,3,0,0,0-2.08.85V6H18.34Zm-4.06-.92a2,2,0,0,0,2-2.09V6h1.2v7.86h-1.2v-.73a2.9,2.9,0,0,1-2.11.87,2.94,2.94,0,0,1-3-3.08V6h1.2v4.85a2,2,0,0,0,2,2.09"/></svg>